{"glyphs":{"0":{"ha":551,"x_min":38,"x_max":526,"o":"m 38 328 q 42 491 38 418 q 71 616 46 564 q 148 696 95 667 q 298 724 201 724 q 466 671 406 724 q 526 505 526 617 q 519 402 526 457 q 495 291 511 347 q 453 182 479 235 q 391 88 427 129 q 306 23 354 47 q 197 -1 258 -1 q 129 16 156 -1 q 84 61 102 33 q 57 125 66 90 q 43 197 47 160 q 39 267 39 233 q 38 328 38 301 m 85 313 q 88 240 85 283 q 102 157 91 197 q 136 89 113 117 q 201 61 159 61 q 328 101 274 61 q 414 202 381 141 q 464 334 448 263 q 480 465 480 404 q 473 552 480 513 q 448 619 467 591 q 394 662 429 647 q 307 677 359 677 q 181 646 225 677 q 115 562 137 614 q 90 445 94 510 q 85 313 85 380 z "},"1":{"ha":157,"x_min":22,"x_max":134,"o":"m 71 16 q 67 76 69 35 q 62 168 65 117 q 55 275 58 218 q 48 382 52 332 q 43 474 45 433 q 41 534 42 515 q 29 642 37 590 q 22 749 22 694 q 56 739 39 749 q 71 708 72 728 q 78 633 73 684 q 89 519 83 583 q 102 385 95 456 q 116 252 110 315 q 127 138 122 189 q 134 62 132 87 l 134 54 q 131 39 134 47 q 122 20 127 30 q 110 5 117 11 q 95 -1 103 -1 q 71 16 79 -1 z "},"2":{"ha":644,"x_min":20,"x_max":628,"o":"m 311 628 q 310 644 311 633 q 309 668 309 655 q 307 692 308 681 q 307 708 307 703 q 294 723 302 722 q 275 724 286 724 q 227 711 248 724 q 190 679 206 699 q 159 637 174 659 q 130 595 145 614 q 99 562 115 575 q 61 549 83 549 q 47 550 54 549 q 33 553 39 551 q 24 562 27 555 q 23 581 20 568 q 74 656 49 621 q 129 716 99 690 q 197 758 159 742 q 285 773 235 773 q 353 741 335 773 q 370 661 370 708 q 351 519 370 593 q 302 372 331 445 q 239 232 273 300 q 180 110 206 164 l 180 94 l 574 220 q 581 220 575 220 q 590 221 587 221 q 609 219 600 221 q 621 205 618 217 q 624 190 623 199 q 627 171 625 180 q 628 149 628 160 l 480 149 l 115 4 q 146 161 115 85 q 213 314 176 237 q 280 467 250 391 q 311 628 311 544 z "},"3":{"ha":526,"x_min":22,"x_max":498,"o":"m 213 0 q 184 18 189 0 q 179 54 180 35 q 180 80 179 66 q 184 106 180 94 q 197 127 189 118 q 220 141 205 137 l 220 66 q 236 64 228 65 q 248 62 241 62 q 260 62 255 61 q 334 93 301 69 q 389 150 366 117 q 422 222 411 183 q 434 298 434 260 l 434 311 q 433 331 434 321 q 433 349 433 340 q 433 361 433 358 q 398 389 419 382 q 355 395 377 395 q 271 376 311 395 q 195 335 231 358 q 128 294 159 312 q 71 275 98 275 l 71 347 q 95 385 79 359 q 132 442 111 410 q 174 511 152 475 q 216 579 195 547 q 252 638 236 612 q 274 677 267 665 q 285 694 278 681 l 312 750 q 323 770 320 764 q 307 772 319 772 q 292 773 296 773 q 230 758 259 773 q 173 724 201 742 q 118 690 145 705 q 62 675 91 675 q 34 682 46 675 q 22 707 22 689 q 44 743 22 726 q 100 773 66 760 q 174 799 133 787 q 254 819 216 811 q 324 831 293 826 q 370 836 355 836 q 397 835 380 836 q 416 834 415 834 q 427 827 420 833 q 433 818 433 821 q 427 804 433 817 q 416 787 420 792 q 394 751 411 777 q 355 688 377 724 q 307 612 332 652 q 258 537 281 572 q 218 475 236 502 q 197 439 201 448 q 189 424 194 435 q 180 408 183 412 q 228 427 208 420 q 267 436 248 433 q 306 440 286 439 q 351 441 326 441 q 458 414 418 441 q 498 316 498 387 q 477 202 498 259 q 417 100 456 145 q 326 27 378 54 q 213 0 274 0 z "},"4":{"ha":621,"x_min":15,"x_max":601,"o":"m 347 16 q 345 45 347 24 q 339 87 342 65 q 334 130 336 110 q 331 157 332 151 q 326 191 327 179 q 324 210 326 203 q 317 219 323 217 q 296 221 311 221 q 233 211 263 221 q 172 189 202 201 q 113 166 142 176 q 54 156 84 156 q 28 169 41 156 q 15 197 15 182 q 16 201 15 198 q 16 205 16 203 q 157 425 94 311 q 267 661 221 538 q 268 705 262 685 q 301 726 274 726 q 321 720 315 726 q 331 690 328 713 l 362 347 q 368 305 365 312 q 389 298 372 298 q 434 303 411 298 q 478 315 457 308 q 520 326 499 321 q 560 331 541 331 q 589 315 578 331 q 601 283 601 300 q 597 265 601 274 q 582 251 594 256 q 479 253 534 255 q 377 237 425 251 l 377 227 q 387 144 377 184 q 396 60 396 103 q 396 42 396 53 q 395 22 396 31 q 388 5 393 12 q 370 -1 382 -1 q 347 16 355 -1 m 126 248 q 174 252 141 248 q 238 262 206 255 q 293 279 270 270 q 315 298 316 288 l 283 551 l 126 267 l 126 248 z "},"5":{"ha":543,"x_min":23,"x_max":513,"o":"m 164 54 q 171 94 164 75 q 197 126 178 114 q 205 92 201 104 q 218 73 210 79 q 237 64 225 66 q 269 61 250 61 q 336 76 301 61 q 400 117 372 91 q 447 176 429 142 q 465 244 465 209 q 444 326 465 292 q 388 382 422 359 q 312 416 354 406 q 228 426 270 426 q 186 421 206 426 q 147 410 167 416 q 109 398 127 403 q 69 393 91 393 q 52 395 60 393 q 41 408 43 396 q 37 452 39 420 q 33 518 35 483 q 27 585 30 553 q 23 628 24 616 l 23 647 q 24 664 23 656 q 41 677 26 671 q 108 684 72 680 q 181 696 144 689 q 254 713 218 703 q 323 738 290 724 q 330 744 323 739 q 346 754 338 749 q 361 764 354 760 q 370 770 368 769 q 388 781 376 774 q 401 787 400 787 q 429 776 426 787 q 433 749 433 765 q 432 725 433 738 q 416 708 431 712 l 103 625 l 103 461 q 184 462 140 461 q 275 459 229 463 q 364 444 321 456 q 439 410 407 433 q 492 350 472 388 q 513 255 513 312 q 491 156 513 202 q 433 75 469 110 q 349 20 396 41 q 251 -1 302 -1 q 221 1 237 -1 q 193 9 205 3 q 172 25 180 15 q 164 54 164 35 z "},"6":{"ha":533,"x_min":38,"x_max":515,"o":"m 38 376 q 48 552 38 467 q 87 724 58 637 l 91 724 l 94 726 q 117 714 107 726 q 133 690 126 703 q 96 532 106 614 q 85 369 85 449 q 87 317 85 347 q 96 252 90 286 q 111 184 102 217 q 138 123 121 151 q 178 78 155 95 q 236 61 202 61 q 247 62 237 61 q 259 62 256 62 q 290 160 274 111 q 326 254 305 209 q 374 336 346 298 q 445 401 401 373 q 498 371 481 400 q 515 297 515 342 q 498 201 515 252 q 447 104 480 149 q 366 30 414 60 q 259 0 319 0 q 178 18 213 0 q 118 66 142 37 q 78 136 94 96 q 53 217 62 175 q 41 300 43 259 q 38 376 38 340 m 353 141 q 357 118 353 127 q 376 109 362 109 q 381 109 378 109 q 384 110 384 110 q 429 171 408 140 q 460 232 449 202 q 471 284 471 262 q 456 316 471 307 q 418 294 437 316 q 386 243 400 273 q 362 185 372 214 q 353 141 353 156 z "},"7":{"ha":605,"x_min":15,"x_max":567,"o":"m 392 328 q 346 323 369 328 q 300 313 323 319 q 256 303 278 308 q 210 298 233 298 q 177 317 184 298 q 170 359 170 336 q 201 359 179 359 q 250 362 224 359 q 306 370 277 365 q 359 382 335 374 q 396 399 382 389 q 408 425 410 410 q 412 481 410 441 q 417 566 414 521 q 422 652 420 612 q 425 708 423 692 q 424 715 425 711 q 423 722 423 719 q 337 714 380 722 q 251 698 294 707 q 163 682 208 689 q 76 675 119 675 l 56 675 q 39 678 47 675 q 25 688 31 681 q 16 708 19 694 q 22 725 15 713 q 33 738 28 736 q 144 739 90 732 q 254 757 199 746 q 362 777 308 768 q 473 787 416 787 q 506 754 506 787 q 474 583 479 673 q 477 403 469 494 q 492 404 481 403 q 515 407 503 406 q 536 409 526 408 q 552 408 547 410 q 561 402 555 408 q 567 393 567 396 q 560 385 566 391 q 552 377 555 378 q 532 370 545 374 q 504 361 518 366 q 475 352 490 357 q 457 347 461 347 l 408 16 q 401 4 408 8 q 385 -2 395 0 q 368 -5 376 -4 q 358 -5 359 -5 q 363 79 358 37 q 375 161 369 121 q 387 244 381 202 q 392 328 392 286 z "},"8":{"ha":495,"x_min":30,"x_max":457,"o":"m 109 137 q 126 268 109 205 q 172 393 144 331 q 105 388 132 384 q 62 408 79 392 q 37 451 45 425 q 30 511 30 477 q 31 556 30 524 q 41 628 33 589 q 65 708 49 667 q 112 779 81 749 q 188 821 142 808 q 298 818 233 834 q 342 801 326 818 q 366 760 358 784 q 376 709 373 735 q 378 665 378 682 q 374 626 378 644 q 362 591 369 608 q 351 556 355 574 q 346 518 346 538 q 347 511 346 517 q 347 505 347 506 q 433 399 408 456 q 457 266 457 343 q 433 172 457 218 q 370 86 408 125 q 285 24 332 47 q 189 0 237 0 q 142 14 159 0 q 119 47 126 27 q 110 91 111 66 q 109 137 109 115 m 155 136 q 160 82 155 103 q 201 61 165 61 q 277 81 239 61 q 344 131 315 100 q 391 199 373 161 q 410 275 410 237 q 405 319 410 290 q 389 374 400 347 q 362 420 378 400 q 323 441 346 441 l 316 441 q 313 439 313 441 q 253 379 282 408 q 201 315 224 350 q 165 237 178 281 q 155 136 152 194 m 77 526 q 79 496 77 511 q 87 469 80 481 q 104 448 94 456 q 134 439 115 439 q 206 463 171 439 q 270 520 241 486 q 315 595 298 555 q 332 669 332 635 l 332 680 q 332 696 332 688 q 330 713 331 705 q 330 724 330 720 q 280 764 305 755 q 216 773 255 773 q 150 747 176 773 q 107 682 123 720 q 84 600 91 643 q 77 526 77 557 z "},"9":{"ha":590,"x_min":15,"x_max":552,"o":"m 423 53 q 429 142 423 98 q 440 231 434 187 q 452 319 446 274 q 457 408 457 363 q 457 433 457 415 q 457 457 457 450 q 429 435 448 449 q 388 403 411 420 q 339 367 365 385 q 290 332 313 349 q 248 301 267 315 q 221 282 229 288 q 165 256 189 262 q 111 250 142 250 q 38 277 61 250 q 15 353 15 305 q 33 429 15 388 q 81 513 52 471 q 150 593 111 555 q 230 661 189 631 q 311 708 271 690 q 385 726 351 726 q 437 718 408 726 q 491 693 465 709 q 534 654 517 677 q 552 605 552 632 l 552 597 q 543 574 549 591 q 534 551 537 556 l 472 31 l 441 0 q 429 9 433 1 q 423 24 425 16 q 422 41 422 33 q 423 53 423 49 m 64 347 q 70 330 64 342 q 79 315 76 317 q 99 313 84 313 q 118 312 114 312 q 186 323 149 312 q 261 356 224 335 q 334 405 298 377 q 398 464 370 433 q 442 529 426 495 q 458 597 458 563 l 458 606 q 458 621 458 614 q 457 635 457 628 q 457 644 457 642 q 423 662 441 661 q 385 663 406 663 q 279 633 335 663 q 175 557 222 604 q 96 455 127 511 q 64 347 64 399 z "}," ":{"ha":625,"x_min":0,"x_max":0,"o":""},"!":{"ha":164,"x_min":-1,"x_max":127,"o":"m 47 330 q 48 373 47 343 q 49 439 49 403 l 49 597 q 48 664 49 635 q 47 708 47 693 q 43 753 46 719 q 35 831 41 787 q 24 928 30 876 q 14 1024 19 979 q 5 1103 8 1069 q 0 1147 1 1137 q -1 1156 0 1149 q -1 1165 -1 1162 q 4 1187 -1 1177 q 23 1196 9 1196 q 47 1179 39 1196 q 68 973 57 1080 q 88 757 79 867 q 104 538 98 647 q 110 327 110 429 q 77 298 110 298 q 54 304 64 298 q 47 330 45 309 m 62 54 q 73 74 62 68 q 94 80 83 80 q 121 69 115 80 q 127 39 127 58 q 123 12 127 26 q 103 -1 119 -1 q 86 5 94 -1 q 73 20 79 11 q 65 39 68 30 q 62 54 62 49 z "},"\"":{"ha":237,"x_min":23,"x_max":198,"o":"m 104 970 q 126 983 111 983 q 161 962 146 983 q 182 912 175 940 q 194 857 190 884 q 198 818 198 829 q 187 798 198 803 q 164 792 176 792 q 137 800 145 792 l 104 970 m 41 983 q 52 973 43 987 q 70 936 61 959 q 86 886 79 913 q 96 835 94 859 q 92 794 98 811 q 71 777 87 777 q 52 779 61 777 q 41 795 43 781 l 23 951 l 23 960 q 25 974 23 970 q 41 983 27 978 z "},"#":{"ha":1044,"x_min":23,"x_max":1031,"o":"m 258 263 q 191 257 222 263 q 125 251 159 251 l 117 251 q 102 266 114 254 q 87 282 90 278 q 118 324 98 315 q 163 334 138 334 q 214 332 189 334 q 260 338 239 330 q 294 375 281 347 q 308 464 308 403 q 307 475 308 467 q 307 487 307 484 q 244 473 274 483 q 184 451 214 463 q 123 431 153 439 q 62 422 94 422 l 53 422 q 39 423 46 422 q 28 429 33 425 q 23 439 23 433 q 25 450 23 444 q 30 464 27 457 q 35 477 33 471 q 41 487 38 484 q 84 496 53 490 q 150 511 115 503 q 216 524 184 518 q 260 534 247 530 q 270 538 263 536 q 284 543 277 540 q 298 547 292 545 q 307 551 304 549 q 317 559 311 553 q 323 567 323 564 l 354 818 q 357 821 354 819 q 359 822 359 822 q 378 807 372 822 q 384 787 384 792 l 384 568 q 427 571 399 568 q 486 577 454 574 q 552 586 518 581 q 613 596 586 591 q 659 606 640 601 q 677 614 677 610 l 677 838 l 685 837 q 704 836 694 837 q 722 829 713 834 q 731 818 731 825 l 731 614 q 775 616 743 614 q 842 621 807 618 q 907 626 876 624 q 951 628 939 628 l 970 628 q 1004 621 987 628 q 1031 597 1020 613 q 988 560 1009 571 q 935 549 967 549 q 911 552 920 549 q 894 558 902 555 q 876 564 886 562 q 850 567 867 567 q 824 566 844 567 q 783 564 804 566 q 747 559 762 563 q 731 551 731 555 l 731 422 q 759 424 738 422 q 807 429 780 426 q 863 432 834 431 q 915 431 891 433 q 954 424 939 430 q 970 407 970 418 q 966 392 970 400 q 952 382 962 384 q 913 377 945 381 q 841 370 880 373 q 769 363 802 366 q 731 361 736 359 q 728 311 730 347 q 723 235 726 275 q 718 160 720 195 q 715 110 716 125 q 715 83 715 99 q 713 52 716 66 q 701 26 711 37 q 669 16 690 16 q 644 51 651 31 q 637 92 636 71 q 647 133 639 113 q 669 172 655 153 q 668 210 669 183 q 666 267 667 237 q 664 322 665 296 q 663 359 663 349 q 658 361 661 359 q 652 361 655 362 q 595 351 633 358 q 516 337 556 345 q 443 323 476 330 q 401 315 410 316 q 333 270 355 305 q 302 189 311 235 q 294 97 294 144 q 292 16 294 50 q 267 1 278 5 q 240 -3 255 -3 q 249 132 240 66 q 258 263 258 197 m 384 505 q 363 479 370 498 q 353 437 357 460 q 350 393 350 415 l 350 359 q 385 364 358 359 q 446 375 411 369 q 521 389 481 381 q 593 403 560 396 q 648 416 627 410 q 669 425 669 422 l 669 540 q 524 529 600 540 q 384 505 449 518 z "},"$":{"ha":534,"x_min":30,"x_max":506,"o":"m 47 79 q 47 90 47 81 q 45 106 46 98 q 45 122 45 115 l 45 134 q 45 163 45 145 q 51 199 46 182 q 66 228 56 216 q 96 240 77 240 q 87 194 96 216 q 77 149 77 172 q 88 111 77 127 q 115 85 99 95 q 152 71 132 75 q 189 66 172 66 l 189 425 q 141 469 168 445 q 90 519 114 492 q 47 578 65 547 q 30 644 30 609 q 33 669 30 659 q 47 690 37 678 q 74 720 54 700 q 117 764 94 741 q 160 806 140 787 q 189 834 180 826 q 245 851 218 841 q 297 872 271 861 q 350 890 323 883 q 410 897 377 897 q 446 896 430 897 q 474 889 463 895 q 492 869 486 883 q 499 831 499 856 q 454 840 473 831 q 410 849 435 849 q 319 829 362 849 q 237 787 275 810 l 237 773 q 237 754 237 764 q 236 736 236 745 l 236 724 q 237 661 236 689 q 239 605 237 632 q 243 546 240 578 q 251 471 247 514 q 294 432 267 446 q 347 408 321 418 l 347 770 q 355 783 347 780 q 369 787 362 787 q 393 770 384 787 q 393 720 393 755 q 392 644 392 685 q 393 568 392 604 q 393 518 393 533 q 405 431 396 465 q 426 373 414 396 q 452 334 438 350 q 478 300 467 317 q 498 260 490 283 q 506 202 506 237 q 479 115 506 152 q 413 52 453 77 q 326 12 373 26 q 236 -1 278 -1 q 186 3 213 -1 q 133 18 159 8 q 85 43 107 28 q 47 79 62 58 m 250 267 q 249 245 250 262 q 248 205 248 228 q 248 157 247 182 q 255 111 250 132 q 271 77 260 91 q 298 62 281 62 q 326 64 312 62 q 351 73 340 66 q 370 89 362 79 q 377 114 377 99 q 375 207 377 164 q 361 285 373 250 q 324 347 350 320 q 251 393 298 373 q 250 368 251 385 q 250 330 250 350 l 250 267 m 94 636 q 103 596 94 614 q 126 561 113 578 q 157 530 140 544 q 189 505 174 517 l 189 610 q 187 650 189 631 q 182 690 186 669 q 172 738 178 712 q 168 739 172 739 l 164 739 q 136 728 149 739 q 114 702 123 718 q 99 668 104 686 q 94 636 94 650 m 423 251 q 422 227 423 240 q 420 197 420 213 q 422 167 420 182 q 427 140 423 152 q 429 151 427 140 q 434 172 431 161 q 439 193 437 183 q 441 205 441 202 q 440 237 441 222 q 423 267 439 252 l 423 251 z "},"%":{"ha":770,"x_min":22,"x_max":734,"o":"m 353 47 q 353 63 353 52 q 354 79 354 75 q 368 130 359 95 q 387 208 376 164 q 410 299 397 251 q 433 390 422 347 q 452 467 444 433 q 464 518 460 502 q 477 585 473 562 q 480 627 480 608 q 478 670 480 647 q 476 736 476 693 q 410 718 435 736 q 364 671 384 700 q 329 611 345 643 q 295 551 313 579 q 252 504 277 522 q 189 486 227 486 q 149 499 163 486 q 126 533 134 513 q 113 575 118 553 q 103 614 109 597 q 81 642 95 632 q 55 661 68 652 q 32 684 42 670 q 22 726 22 697 q 45 771 22 749 q 100 811 68 793 q 165 839 132 829 q 220 849 199 849 q 275 834 251 849 q 315 802 298 819 q 343 768 332 784 q 361 753 354 753 q 366 753 363 753 q 370 754 369 754 l 528 834 l 571 834 l 401 16 q 391 2 399 5 q 377 -1 384 -1 q 362 3 368 -1 q 355 16 357 8 q 353 31 353 23 l 353 47 m 541 117 q 572 258 541 197 q 652 377 602 320 q 656 378 654 377 q 661 378 659 378 q 704 360 689 378 q 726 317 719 342 q 733 264 732 292 q 734 220 734 237 q 729 159 734 194 q 711 91 724 123 q 674 36 697 58 q 614 14 651 14 q 581 23 594 14 q 558 48 567 33 q 545 82 549 64 q 541 117 541 100 m 605 123 q 604 98 605 114 q 621 79 604 83 q 659 113 646 95 q 677 153 671 132 q 685 197 684 174 q 686 248 686 221 q 686 277 686 258 q 684 298 685 297 l 669 315 q 623 223 640 270 q 605 123 605 176 m 274 644 q 197 622 225 644 q 168 548 168 600 q 208 556 189 548 q 244 577 227 564 q 274 608 262 590 q 292 644 286 625 l 274 644 m 267 787 q 243 775 254 787 q 224 749 232 764 q 213 717 217 734 q 209 689 209 700 q 237 692 222 689 q 265 701 252 694 q 286 718 278 708 q 294 743 294 728 q 290 772 294 757 q 267 787 286 787 m 87 715 q 97 695 87 701 q 119 689 107 689 q 128 690 123 689 q 134 690 133 690 l 180 770 q 177 771 179 770 q 172 772 175 772 q 151 767 164 772 q 123 755 137 762 q 98 736 109 747 q 87 715 87 726 z "},"&":{"ha":636,"x_min":22,"x_max":624,"o":"m 180 47 q 200 124 189 81 q 221 214 212 167 q 238 310 231 262 q 245 401 245 358 q 229 453 245 433 q 188 490 213 473 q 134 520 163 506 q 79 550 104 534 q 38 584 54 566 q 22 628 22 602 q 22 636 22 631 q 23 644 23 642 q 81 707 46 669 q 155 780 115 745 q 239 840 195 815 q 323 865 282 865 q 332 859 326 865 q 339 848 339 852 l 339 779 q 330 631 339 704 q 321 483 321 557 l 321 457 q 323 439 321 441 l 449 315 q 454 313 449 313 q 461 312 458 312 q 492 320 479 312 q 519 338 506 328 q 545 355 532 347 q 574 363 557 363 q 608 330 608 363 q 596 302 608 311 q 569 288 585 294 q 536 273 553 281 q 511 251 519 266 l 621 141 q 618 127 624 140 q 605 110 612 115 q 597 109 605 109 l 591 109 q 590 110 590 109 q 568 129 583 115 q 536 158 553 142 q 503 187 518 174 q 480 205 487 201 q 465 213 477 208 q 449 220 453 218 q 416 191 437 212 q 372 146 396 171 q 323 96 349 122 q 275 48 298 69 q 233 13 252 27 q 203 -1 214 -1 l 199 -1 q 197 0 198 -1 q 193 9 195 3 q 187 23 190 16 q 182 37 184 30 q 180 47 180 43 m 117 628 q 185 562 149 593 q 260 505 221 530 q 266 550 262 517 q 275 621 270 583 q 284 692 279 659 q 292 738 289 726 l 292 747 q 287 774 292 761 q 269 787 282 787 q 220 770 247 787 q 172 728 194 753 q 133 677 149 704 q 117 628 117 650 m 307 377 q 278 327 288 355 q 264 269 269 298 q 260 208 260 239 q 259 149 259 176 q 260 137 259 146 q 260 126 260 127 l 416 267 l 307 377 z "},"'":{"ha":134,"x_min":30,"x_max":95,"o":"m 47 503 q 44 559 46 518 q 39 644 42 600 q 35 730 37 689 q 31 787 33 770 q 31 795 31 787 q 30 806 30 803 q 58 802 42 806 q 79 787 73 799 q 87 724 84 750 q 92 672 91 697 q 94 622 94 647 q 95 566 95 597 l 95 551 q 94 527 95 540 q 94 503 94 514 l 94 487 q 69 469 85 469 q 53 479 57 469 q 47 503 49 488 z "},"(":{"ha":260,"x_min":28,"x_max":239,"o":"m 206 -20 q 125 63 159 11 q 69 180 91 115 q 38 317 47 244 q 29 465 28 391 q 41 608 30 538 q 71 737 52 678 q 120 840 91 796 q 186 902 149 883 l 186 872 q 153 760 171 814 q 118 654 134 707 q 90 547 102 601 q 79 433 79 492 q 83 304 79 354 q 104 214 88 254 q 153 132 121 174 q 237 27 184 90 q 238 22 237 24 q 239 18 239 19 q 238 14 239 16 q 237 9 237 11 q 221 -7 233 4 q 206 -20 209 -19 z "},")":{"ha":292,"x_min":-46,"x_max":264,"o":"m 115 -14 q 131 33 115 8 q 164 87 146 58 q 197 150 182 117 q 213 221 213 183 q 202 329 213 264 q 174 460 191 393 q 132 585 156 526 q 83 678 109 644 q 49 715 71 693 q 6 761 27 736 q -31 810 -15 785 q -46 861 -46 836 q 37 825 -4 863 q 115 727 79 787 q 179 593 151 667 q 228 448 208 519 q 256 315 248 377 q 260 220 264 254 q 229 71 260 144 q 133 -46 197 -1 q 117 -34 119 -43 q 115 -14 115 -24 z "},"*":{"ha":543,"x_min":22,"x_max":513,"o":"m 41 456 q 24 469 27 456 q 22 488 22 481 q 42 515 22 513 q 86 516 62 518 q 130 514 110 514 q 151 533 151 514 q 138 574 151 555 q 109 611 125 593 q 79 650 92 629 q 66 696 66 670 q 108 675 91 696 q 138 630 125 655 q 168 585 152 605 q 205 566 183 566 l 213 566 q 227 600 216 575 q 250 652 237 625 q 274 704 262 680 q 292 738 286 728 q 305 754 294 742 q 323 770 316 766 l 324 770 q 327 771 326 770 q 330 772 328 772 q 348 764 340 772 q 355 746 355 757 q 343 700 355 723 q 316 653 331 677 q 289 604 301 629 q 277 553 277 579 q 383 559 332 553 q 488 566 434 566 q 505 559 498 566 q 513 541 513 552 q 498 529 513 534 q 460 519 483 524 q 411 510 438 514 q 357 502 384 506 q 308 494 330 498 q 274 487 286 491 q 349 418 307 448 q 445 388 392 388 q 435 349 445 369 q 401 330 426 330 q 352 345 373 330 q 312 378 331 359 q 273 414 293 396 q 228 439 254 433 q 219 405 225 431 q 201 350 213 378 q 170 299 189 321 q 127 277 152 277 q 133 323 127 301 q 145 368 138 346 q 157 411 152 389 q 161 456 161 433 l 41 456 z "},"+":{"ha":574,"x_min":22,"x_max":548,"o":"m 184 370 q 119 361 151 370 q 54 353 87 353 q 22 384 22 353 q 22 395 22 388 q 25 409 23 403 q 31 420 27 415 q 41 425 34 425 l 180 425 q 189 433 183 425 q 197 448 194 442 l 197 454 q 188 578 197 517 q 179 704 179 640 q 217 672 203 704 q 238 598 231 640 q 249 513 245 556 q 260 448 252 469 l 274 448 q 410 458 345 448 q 548 469 476 469 q 532 431 548 444 q 491 412 517 418 q 433 405 465 406 q 370 403 401 404 q 309 398 338 401 q 260 384 279 395 q 273 283 269 335 q 278 180 278 232 l 228 180 l 225 194 q 221 229 224 209 q 216 271 218 250 q 213 307 213 292 q 212 326 212 315 q 210 347 212 338 q 202 363 208 357 q 184 370 197 370 z "},",":{"ha":227,"x_min":22,"x_max":198,"o":"m 136 -46 q 127 41 136 8 q 106 92 118 73 q 79 117 94 110 q 52 130 64 125 q 31 141 39 134 q 22 164 22 148 q 36 201 22 195 q 79 206 50 206 q 139 180 115 206 q 176 118 163 155 q 193 41 189 81 q 198 -30 198 1 q 194 -100 198 -58 q 178 -182 190 -142 q 143 -249 165 -221 q 83 -277 121 -277 q 91 -220 83 -247 q 109 -165 99 -193 q 127 -109 119 -138 q 136 -46 136 -80 z "},"-":{"ha":688,"x_min":49,"x_max":666,"o":"m 68 606 q 140 614 99 612 q 225 620 182 617 q 309 625 269 623 q 381 628 350 627 q 401 629 384 628 q 439 630 418 629 q 481 631 460 631 l 543 631 q 583 630 562 631 q 622 629 604 629 q 648 628 640 628 q 660 615 654 627 q 665 597 666 604 q 652 579 665 591 q 633 567 640 567 q 585 568 617 567 q 509 568 552 568 l 332 568 q 258 568 290 568 q 209 567 225 567 q 155 563 182 564 q 100 559 127 562 q 90 558 98 559 q 75 557 83 557 q 59 555 66 556 q 49 555 52 555 q 52 585 49 567 q 68 606 54 602 z "},".":{"ha":164,"x_min":30,"x_max":127,"o":"m 30 56 q 42 95 30 79 q 77 111 54 111 q 113 103 99 111 q 127 71 127 95 q 109 20 127 43 q 62 -3 91 -3 q 45 3 52 -3 q 35 18 38 9 q 31 37 31 27 q 30 56 30 47 z "},"/":{"ha":336,"x_min":15,"x_max":298,"o":"m 15 39 q 20 59 15 50 q 33 79 24 68 l 252 802 q 270 824 254 811 q 298 837 286 837 l 298 787 q 275 708 290 761 q 237 589 259 655 l 153 308 q 119 188 134 240 q 95 110 103 136 q 90 79 91 95 q 84 48 88 64 q 73 20 80 33 q 47 0 65 7 q 41 5 45 1 l 20 24 q 16 31 18 30 q 15 35 15 34 l 15 39 z "},":":{"ha":244,"x_min":35,"x_max":201,"o":"m 53 199 q 57 233 53 213 q 70 270 61 252 q 92 300 79 288 q 125 312 106 312 q 153 305 140 312 q 176 288 165 298 q 193 263 187 277 q 199 237 199 250 q 191 205 201 224 q 165 171 180 187 q 132 145 149 155 q 103 137 115 136 q 64 156 76 137 q 53 199 53 175 m 35 510 q 43 553 35 532 q 64 591 50 574 q 97 618 79 608 q 140 628 115 628 q 160 622 152 628 q 172 606 168 616 q 178 585 176 597 q 179 566 179 574 q 172 530 179 547 q 150 499 164 513 q 119 477 136 486 q 83 469 102 469 q 51 480 66 469 q 35 510 35 491 z "},";":{"ha":245,"x_min":30,"x_max":237,"o":"m 141 -294 q 159 -268 153 -279 q 169 -245 165 -256 q 173 -222 172 -235 q 174 -194 174 -210 q 169 -145 174 -170 q 141 -104 164 -121 q 111 -144 127 -134 q 69 -155 95 -155 q 38 -142 46 -155 q 30 -106 30 -129 q 34 -67 30 -90 q 47 -26 38 -45 q 71 7 56 -7 q 110 20 87 20 q 160 -3 137 20 q 200 -58 183 -26 q 227 -125 217 -91 q 237 -184 237 -160 q 234 -220 237 -198 q 223 -262 231 -241 q 203 -297 216 -282 q 172 -312 190 -312 q 154 -310 163 -312 q 141 -294 145 -308 m 30 335 q 36 363 30 347 q 53 394 42 380 q 76 419 64 408 q 102 430 88 430 q 142 414 127 430 q 157 374 157 397 q 155 340 157 358 q 143 305 152 321 q 121 279 134 289 q 88 270 107 270 q 45 288 60 270 q 30 335 30 307 z "},"<":{"ha":526,"x_min":30,"x_max":505,"o":"m 46 165 q 31 179 33 168 q 30 198 30 190 q 43 248 30 221 q 78 304 57 274 q 123 369 99 335 q 169 439 148 403 q 204 513 190 475 q 218 591 218 551 q 222 591 220 591 q 225 591 225 591 q 249 575 247 591 q 251 544 251 559 q 250 505 251 519 q 236 465 248 491 q 210 418 228 452 q 172 347 191 384 q 134 275 152 309 q 109 229 115 241 q 121 226 113 228 q 140 221 129 224 q 159 216 151 218 q 171 213 167 213 q 233 204 189 212 q 328 189 278 197 q 423 175 378 182 q 486 165 468 168 q 502 154 499 163 q 505 136 505 145 q 471 103 505 103 q 446 106 457 103 q 422 119 435 109 l 46 165 z "},"=":{"ha":526,"x_min":38,"x_max":495,"o":"m 38 221 q 43 243 38 236 q 69 251 49 251 l 479 251 q 492 243 488 251 q 495 227 495 235 q 483 201 495 213 q 456 189 471 189 q 431 205 439 189 l 361 205 q 214 197 286 205 q 66 189 141 189 q 38 221 38 189 m 69 408 q 54 433 54 416 l 54 435 q 54 439 54 437 q 193 452 130 448 q 326 457 255 457 l 358 457 q 399 454 378 457 q 434 441 419 450 q 449 416 449 433 q 439 398 449 403 q 418 393 430 393 q 328 397 369 393 q 249 404 288 400 q 167 410 210 408 q 69 408 123 411 z "},">":{"ha":416,"x_min":11,"x_max":389,"o":"m 136 85 q 136 98 136 90 q 138 109 137 106 l 208 178 q 251 222 231 201 q 278 251 271 243 q 289 264 283 256 q 299 279 294 271 q 307 292 304 286 l 311 298 l 11 581 l 58 581 l 180 490 q 250 437 214 464 q 317 387 285 411 q 372 346 349 362 q 386 334 382 336 q 389 321 389 331 l 388 317 l 388 313 q 380 297 385 309 q 372 282 374 285 l 168 46 q 164 45 165 45 l 161 45 q 140 58 144 45 q 136 85 136 72 z "},"?":{"ha":495,"x_min":22,"x_max":465,"o":"m 418 636 q 408 680 418 661 q 381 713 397 700 q 344 732 365 726 q 300 739 323 739 q 226 729 258 739 q 168 701 194 719 q 119 656 141 682 q 71 597 96 629 q 62 596 68 597 q 54 595 57 595 q 33 602 43 595 q 22 621 22 608 q 54 694 22 663 q 130 746 85 726 q 220 777 174 766 q 297 787 267 787 q 424 747 382 787 q 465 621 465 707 q 446 515 465 566 q 399 416 426 464 q 346 319 372 368 q 307 220 320 271 q 294 205 304 210 q 273 200 285 201 q 252 199 262 199 l 239 199 q 252 277 239 240 q 286 348 266 313 q 328 416 305 382 q 371 484 351 449 q 404 555 391 518 q 418 636 418 593 m 292 31 q 291 50 288 43 q 300 60 294 57 q 315 64 307 64 q 328 65 323 65 q 356 61 342 65 q 370 39 370 57 q 365 25 370 33 q 351 12 359 18 q 335 2 343 5 q 323 0 327 -1 q 304 14 316 1 q 292 31 293 26 z "},"@":{"ha":669,"x_min":30,"x_max":633,"o":"m 30 212 q 45 319 30 262 q 88 435 61 377 q 153 549 115 494 q 236 646 190 604 q 333 713 282 689 q 439 738 384 738 q 520 708 487 738 q 574 632 553 678 q 608 528 595 586 q 625 414 620 469 q 632 311 631 359 q 633 237 633 263 l 581 237 q 578 267 579 250 q 576 300 578 283 q 569 333 574 317 q 553 359 564 349 q 528 319 544 343 q 490 267 511 294 q 445 211 469 239 q 397 161 420 183 q 351 124 373 138 q 313 110 330 110 q 271 123 289 110 q 242 157 254 137 q 225 200 231 176 q 220 244 220 224 q 235 322 222 281 q 268 404 248 363 q 315 481 288 445 q 376 542 343 517 q 444 578 408 567 q 518 581 480 590 q 528 587 522 581 q 534 597 534 593 q 525 629 534 614 q 500 654 515 643 q 469 671 486 665 q 437 677 452 677 q 297 631 362 677 q 183 515 232 585 q 106 366 134 446 q 77 220 77 286 q 96 127 73 164 q 156 73 118 91 q 240 56 194 54 q 330 79 286 57 q 340 73 334 79 q 347 62 347 66 q 286 16 323 31 q 213 0 250 0 q 134 18 168 0 q 77 66 100 37 q 42 133 54 95 q 30 212 30 171 m 282 189 q 307 172 292 172 q 355 191 330 172 q 404 237 380 209 q 448 302 427 266 q 486 373 469 338 q 511 439 502 408 q 519 488 519 469 q 506 522 519 509 q 471 536 492 536 q 394 503 429 536 q 334 422 359 469 q 295 326 309 376 q 281 244 281 277 l 281 232 q 281 216 281 225 q 282 199 282 208 l 282 189 z "},"A":{"ha":731,"x_min":5,"x_max":686,"o":"m 33 -64 q 15 -57 20 -64 q 7 -40 9 -50 q 7 -18 5 -30 q 8 0 8 -7 l 245 1006 q 257 1033 248 1019 q 275 1054 266 1047 q 288 1029 279 1042 q 308 1006 296 1016 l 685 142 q 686 136 686 141 l 686 127 q 681 104 686 114 q 662 94 675 94 q 637 110 644 94 l 543 330 q 526 333 543 331 q 499 335 509 335 q 484 334 494 335 q 463 333 473 334 q 443 331 452 332 q 433 330 434 330 q 352 315 401 324 q 255 296 302 307 q 173 278 208 286 q 136 267 138 270 l 56 -46 q 47 -60 54 -56 q 33 -64 41 -64 m 275 913 q 272 903 274 909 q 267 889 270 897 q 263 875 264 882 q 260 865 262 868 q 240 780 251 830 l 193 567 q 172 465 180 511 q 157 385 163 419 q 151 342 151 351 q 203 345 170 342 q 276 353 237 347 q 355 366 315 359 q 427 382 395 373 q 479 402 458 392 q 499 423 499 412 q 498 432 499 426 q 496 441 498 438 l 275 913 z "},"B":{"ha":724,"x_min":30,"x_max":678,"o":"m 264 68 q 267 93 264 80 q 282 110 269 106 q 295 83 288 98 q 313 62 302 69 l 324 62 q 342 62 334 62 q 358 61 350 61 l 369 61 q 462 77 415 61 q 546 122 509 92 q 606 193 583 152 q 629 285 629 233 q 603 375 629 336 q 535 439 576 414 q 445 476 494 464 q 353 488 396 488 q 326 487 347 488 q 281 482 305 486 q 239 473 258 479 q 220 457 220 467 l 220 189 q 211 176 220 179 q 197 172 202 172 q 179 191 187 172 q 165 237 171 209 q 156 298 160 264 q 149 364 152 332 q 144 420 145 396 q 141 457 142 445 l 141 597 q 136 653 140 613 q 127 739 132 693 q 117 824 122 784 q 110 880 113 864 q 102 909 114 905 q 75 912 91 913 q 44 913 58 911 q 30 936 30 916 l 30 940 q 31 944 30 941 l 110 1023 l 118 1023 q 140 1023 127 1023 q 164 1024 152 1024 l 186 1024 q 282 1021 227 1024 q 387 1004 338 1019 q 470 958 435 990 q 505 865 505 925 q 485 776 505 819 q 437 692 465 732 q 375 616 408 652 q 313 551 342 579 q 441 531 376 544 q 559 488 506 518 q 645 408 612 457 q 678 282 678 359 q 648 169 678 221 q 570 79 617 117 q 463 20 522 42 q 346 -1 404 -1 q 317 4 331 -1 q 291 20 302 9 q 272 42 279 30 q 264 68 264 54 m 203 551 q 288 598 244 564 q 370 676 332 632 q 433 770 408 720 q 457 865 457 821 q 431 923 457 903 q 370 951 404 943 q 298 960 335 959 q 241 960 262 960 l 222 960 q 200 960 212 960 q 181 958 189 959 q 172 958 174 958 l 157 928 l 203 551 z "},"C":{"ha":590,"x_min":22,"x_max":562,"o":"m 22 339 q 26 414 22 365 q 39 520 30 463 q 64 637 49 578 q 104 744 80 696 q 161 823 127 792 q 237 854 194 854 q 230 821 237 834 q 212 795 222 807 q 189 770 201 783 q 164 738 176 757 q 121 644 140 694 q 91 541 103 593 q 74 435 79 488 q 69 330 69 381 q 73 254 69 294 q 87 177 76 214 q 119 109 98 140 q 180 62 141 79 l 198 62 q 224 62 210 62 q 250 61 237 61 l 267 61 q 321 64 283 61 q 398 75 359 66 q 467 101 437 84 q 496 149 496 118 q 487 180 496 165 q 477 213 477 194 q 506 207 491 213 q 533 191 521 201 q 553 169 545 182 q 562 141 562 156 q 543 96 562 117 q 496 60 525 76 q 431 32 467 43 q 359 13 395 20 q 292 2 323 5 q 243 -1 262 -1 q 130 31 174 -1 q 63 114 87 64 q 31 224 39 164 q 22 339 22 283 z "},"D":{"ha":677,"x_min":30,"x_max":646,"o":"m 250 39 q 276 53 250 43 q 341 78 302 62 q 425 117 380 94 q 509 172 471 140 q 574 248 548 205 q 601 347 601 292 q 578 432 601 385 q 518 525 555 479 q 433 615 481 571 q 336 693 385 659 q 241 747 288 727 q 159 768 194 768 q 166 608 159 688 q 182 449 174 529 q 197 290 190 369 q 205 129 205 210 q 201 100 205 111 q 172 79 198 90 l 157 94 l 94 787 q 81 793 91 787 q 60 806 71 799 q 39 823 49 814 q 30 841 30 833 q 43 861 30 849 q 72 885 56 873 q 103 905 88 897 q 125 914 118 914 q 150 905 145 914 q 155 882 155 895 q 156 855 155 869 q 172 834 157 841 q 273 778 220 807 q 379 714 326 749 q 481 640 433 680 q 566 554 529 601 q 624 454 602 507 q 646 336 646 400 q 613 216 646 277 q 530 108 581 156 q 418 29 480 60 q 298 -1 357 -1 q 265 9 281 -1 q 250 39 250 20 z "},"E":{"ha":636,"x_min":54,"x_max":605,"o":"m 54 677 l 54 848 q 66 850 57 849 q 79 850 76 850 q 98 845 92 850 q 106 833 103 840 q 112 822 109 827 q 125 817 115 817 q 180 825 146 817 q 250 845 213 834 q 322 866 286 856 q 384 880 358 876 l 395 880 q 422 873 411 880 q 434 848 434 865 q 433 841 434 846 q 433 834 433 836 q 353 826 397 831 q 262 809 308 821 q 178 777 217 798 q 117 724 140 757 l 117 635 q 117 567 117 604 q 120 496 118 530 q 125 435 122 463 q 134 393 129 407 l 480 534 q 519 528 509 532 q 528 517 529 524 q 516 503 526 510 q 495 487 506 495 q 427 456 476 479 q 323 409 378 434 q 218 361 267 384 q 151 330 170 339 q 136 321 140 328 q 132 307 133 315 q 132 290 132 298 q 133 277 133 281 q 142 199 133 237 q 152 121 152 161 q 140 87 152 103 q 99 72 127 72 l 54 677 m 605 141 q 568 131 593 138 q 509 114 543 123 q 440 94 476 104 q 372 75 404 84 q 313 59 339 66 q 274 47 286 52 q 229 31 243 38 q 204 18 214 23 q 181 12 194 14 q 140 9 168 9 q 146 56 140 42 q 180 79 152 71 l 586 191 l 605 141 z "},"F":{"ha":487,"x_min":30,"x_max":472,"o":"m 47 738 q 32 752 34 743 q 30 770 30 761 q 34 801 30 787 q 47 834 38 815 q 127 833 88 831 q 206 840 167 836 q 285 847 245 844 q 365 850 324 850 q 390 851 376 850 q 418 851 404 852 q 447 846 433 850 q 471 834 461 842 q 472 830 472 834 l 472 822 q 471 818 472 819 q 437 815 461 818 q 385 810 412 812 q 334 806 358 808 q 298 802 309 803 q 254 795 283 799 q 195 785 225 792 q 141 766 165 777 q 110 738 117 755 l 110 724 q 109 701 110 713 q 109 677 109 688 l 109 661 q 109 585 109 617 q 112 520 110 553 q 117 450 114 487 q 125 361 119 412 l 141 361 l 439 468 l 439 425 l 125 282 q 123 262 123 271 l 123 233 q 132 136 123 183 q 141 38 141 88 l 141 31 q 136 24 140 30 l 126 15 q 116 5 121 9 q 110 0 111 1 q 87 29 95 7 q 79 62 79 52 l 47 738 z "},"G":{"ha":700,"x_min":27,"x_max":674,"o":"m 594 117 q 522 68 557 90 q 450 32 487 46 q 372 12 412 18 q 286 5 332 5 q 170 28 218 5 q 89 92 121 52 q 42 188 57 133 q 27 308 27 243 q 39 467 27 380 q 79 641 52 555 q 153 802 107 727 q 264 921 198 876 q 272 921 267 921 q 279 921 277 921 q 302 916 293 921 q 312 897 312 910 q 311 891 312 894 q 311 887 311 888 q 205 768 250 834 q 132 627 161 701 q 89 474 103 553 q 75 313 75 395 q 89 210 75 258 q 133 127 103 163 q 206 73 163 92 q 307 54 250 54 q 347 60 320 54 q 406 75 373 65 q 472 98 438 84 q 532 130 506 113 q 576 168 559 148 q 594 213 594 189 l 594 471 q 576 472 590 471 q 548 475 563 473 q 519 479 533 477 q 500 479 506 480 q 457 470 494 477 q 376 452 420 463 q 286 432 331 442 q 217 416 241 422 q 208 414 214 416 q 193 409 201 411 q 178 404 186 407 q 170 401 171 401 q 165 400 167 400 l 161 400 q 143 414 148 400 q 138 439 138 429 q 142 454 138 448 q 155 464 145 461 l 564 543 q 583 543 567 543 q 609 543 600 543 q 627 544 616 543 q 648 544 637 545 q 666 536 658 543 q 674 518 674 530 l 674 511 l 658 433 l 658 -113 q 610 -71 617 -113 q 606 -33 609 -60 q 601 24 604 -7 q 596 80 598 54 q 594 117 594 106 z "},"H":{"ha":567,"x_min":16,"x_max":521,"o":"m 49 289 q 23 309 30 298 q 16 335 16 319 q 26 365 16 355 q 56 382 35 374 l 56 854 l 103 854 l 103 387 q 115 385 107 387 q 132 384 123 384 q 148 383 140 384 q 159 382 156 382 q 203 391 171 384 q 269 405 235 397 q 335 419 304 412 q 378 430 366 426 q 379 442 378 433 q 380 454 380 452 q 375 567 380 510 q 363 680 370 624 q 352 792 357 736 q 347 906 347 848 q 373 903 357 906 q 396 886 389 899 q 406 665 396 780 q 442 446 415 551 q 470 439 465 448 q 475 416 475 430 q 472 391 475 401 q 457 368 469 380 q 471 327 461 355 q 490 265 480 298 q 509 203 500 232 q 521 163 518 175 l 521 148 q 516 125 521 136 q 498 115 511 115 q 484 119 488 115 q 473 132 479 122 q 464 163 471 140 q 450 211 457 186 q 436 258 444 236 q 426 289 429 279 q 419 309 423 297 l 408 335 q 400 357 404 347 q 396 368 396 366 q 384 369 395 368 q 369 370 373 370 q 233 357 302 370 q 111 304 164 343 l 111 286 q 111 261 111 274 q 110 235 110 248 l 110 217 q 111 134 110 172 q 127 53 113 95 q 131 68 127 56 q 140 96 134 81 q 152 121 145 110 q 165 133 159 133 l 171 133 q 175 132 174 133 q 172 103 175 123 q 167 60 170 83 q 162 18 164 38 q 159 -9 160 -3 q 155 -24 157 -16 q 146 -39 152 -31 q 134 -53 140 -47 q 119 -58 127 -58 q 92 -41 103 -58 q 75 -1 81 -23 q 67 43 69 22 q 65 68 65 64 q 61 111 64 80 q 56 178 58 142 q 52 244 54 213 q 49 289 49 275 z "},"I":{"ha":164,"x_min":15,"x_max":142,"o":"m 79 16 q 72 98 77 42 q 60 227 66 155 q 47 377 54 298 q 33 527 39 456 q 22 655 27 598 q 16 738 18 712 l 16 747 q 16 763 16 754 q 15 780 15 772 l 15 804 q 16 821 15 812 q 16 837 16 830 l 16 848 q 28 864 19 861 q 47 867 38 867 q 56 866 50 867 q 64 865 61 865 l 126 110 q 130 98 127 106 q 135 79 132 90 q 140 60 138 68 q 142 47 141 52 l 142 39 q 137 24 142 31 q 123 12 132 18 q 108 3 115 7 q 95 0 100 0 q 85 6 91 0 q 79 16 79 12 z "},"J":{"ha":551,"x_min":7,"x_max":518,"o":"m 7 172 q 18 227 7 198 q 54 267 30 255 q 59 184 49 225 q 92 113 69 144 q 152 63 115 81 q 236 45 189 45 q 337 74 294 45 q 408 147 380 103 q 450 245 437 191 q 464 349 464 298 l 464 377 l 384 818 q 382 834 382 823 q 386 855 381 845 q 401 869 391 865 q 433 865 411 873 q 439 839 433 863 q 452 778 445 815 q 469 694 460 741 q 486 602 477 648 q 500 512 494 555 q 511 439 507 469 q 507 290 518 368 q 464 148 496 213 q 372 41 431 83 q 225 -1 313 -1 q 154 12 193 -1 q 83 49 115 26 q 29 104 52 72 q 7 172 7 136 z "},"K":{"ha":635,"x_min":30,"x_max":667,"o":"m 64 16 q 59 74 62 34 q 53 163 56 114 q 47 268 50 213 q 41 372 43 323 q 35 460 38 420 q 33 518 33 500 q 32 543 33 522 q 31 589 31 563 q 30 640 30 616 l 30 716 q 31 767 30 741 q 32 817 31 793 q 33 848 33 840 q 43 862 38 859 q 54 865 47 865 l 64 865 l 111 258 l 331 628 q 347 651 338 640 q 370 662 357 662 q 388 654 380 662 q 396 636 396 646 q 395 632 396 635 q 395 628 395 629 l 157 220 q 178 219 163 220 q 198 218 193 218 q 315 224 256 218 q 433 237 374 229 q 551 250 492 244 q 667 255 609 255 q 659 217 667 235 q 629 189 651 199 q 602 190 623 190 l 515 190 q 487 189 495 190 q 422 182 460 187 q 345 172 385 178 q 266 162 305 167 q 195 153 227 157 q 145 146 164 149 q 126 141 126 142 l 126 31 q 122 26 126 30 q 114 18 118 22 l 103 7 q 95 0 99 3 q 91 -1 92 -1 l 88 -1 q 64 16 72 -1 z "},"L":{"ha":661,"x_min":39,"x_max":652,"o":"m 39 31 q 43 66 41 42 q 47 118 45 91 q 52 170 50 145 q 54 205 54 195 q 55 272 54 227 q 56 374 56 317 l 56 616 q 55 718 56 673 q 54 787 54 764 q 64 799 60 796 q 77 802 68 802 l 87 802 q 100 793 91 799 q 110 787 110 787 l 110 83 q 123 81 114 83 q 144 79 133 80 q 166 79 156 79 q 179 79 176 79 q 223 84 194 80 q 290 92 252 88 q 369 101 328 96 q 447 111 410 106 q 513 119 484 115 q 557 126 543 123 q 590 139 576 136 q 623 142 604 142 q 646 130 640 142 q 652 103 652 118 q 648 82 652 91 q 636 62 643 73 q 497 61 567 69 q 358 39 427 53 q 221 12 289 24 q 87 0 153 0 q 61 11 77 0 q 39 31 45 22 z "},"M":{"ha":880,"x_min":18,"x_max":837,"o":"m 18 819 q 18 823 18 821 q 25 834 20 826 q 35 850 30 842 q 45 863 41 857 q 50 869 49 869 q 75 879 58 873 q 91 882 81 882 l 91 806 l 317 366 l 334 382 q 348 429 336 396 q 372 500 359 463 q 395 571 384 538 q 411 617 407 604 q 422 642 414 624 q 443 684 431 659 q 467 735 454 708 q 492 787 480 762 q 511 829 503 811 q 522 853 519 848 q 528 878 526 861 q 535 909 530 894 q 549 937 540 925 q 576 948 559 948 q 581 947 579 948 q 585 947 583 947 q 604 939 591 945 q 616 933 616 933 l 804 146 q 812 134 807 142 q 821 116 817 126 q 831 97 826 106 q 836 84 836 88 q 836 80 836 83 q 837 75 837 77 q 829 46 837 58 q 804 34 822 34 q 782 40 791 34 q 774 66 773 46 q 758 140 769 91 q 733 251 747 189 q 704 382 719 313 q 675 513 689 450 q 650 624 661 575 q 632 696 639 673 q 623 725 629 704 q 609 768 616 746 q 595 810 602 791 q 585 837 589 830 q 440 557 496 708 q 349 256 384 407 q 337 254 347 255 q 324 254 327 254 q 289 276 304 254 q 264 328 274 298 q 248 382 254 357 q 239 414 241 408 q 224 446 235 425 l 140 614 q 115 664 126 642 q 98 696 103 686 l 98 665 q 105 587 100 640 q 116 467 110 534 q 129 327 122 400 q 142 186 136 254 q 153 67 148 119 q 160 -11 157 15 q 172 -52 167 -34 q 176 -91 176 -69 q 171 -113 176 -103 q 152 -122 165 -122 q 130 -108 138 -122 q 119 -77 122 -94 q 114 -45 115 -60 q 113 -28 113 -31 q 82 343 92 159 q 50 713 72 528 q 44 735 49 722 q 33 763 39 749 q 22 791 27 777 q 18 814 18 804 l 18 819 z "},"N":{"ha":779,"x_min":14,"x_max":723,"o":"m 54 625 q 48 669 54 648 q 34 710 42 690 q 20 749 26 730 q 14 791 14 769 q 18 814 14 799 q 31 846 23 830 q 46 875 38 861 q 62 892 54 888 q 75 867 66 891 q 94 812 84 842 q 112 753 103 781 q 125 720 121 726 q 153 680 133 707 q 197 621 172 654 q 248 553 221 589 q 300 486 275 518 q 346 427 326 453 q 376 389 366 401 q 403 362 380 384 q 457 312 426 340 l 518 258 q 566 216 548 231 q 579 203 567 213 q 604 180 591 193 q 629 158 617 168 q 644 146 642 148 q 648 222 652 179 q 644 301 644 266 q 636 428 644 365 q 619 553 628 491 q 602 679 610 616 q 594 806 594 742 l 594 821 q 595 843 594 831 q 595 864 595 854 l 595 878 q 620 894 605 894 q 642 880 636 894 q 649 848 648 865 q 646 816 650 831 q 643 799 643 800 l 723 122 q 713 92 723 103 q 692 74 704 81 q 666 64 680 66 q 643 60 652 61 q 640 58 642 58 l 635 58 q 618 66 627 58 q 602 83 609 73 q 589 104 594 92 q 581 122 583 115 q 536 168 567 137 q 469 236 506 198 q 391 317 433 274 q 313 399 350 359 q 246 469 275 438 q 203 515 217 500 q 180 542 197 522 q 147 585 164 562 q 115 628 130 608 q 94 658 99 648 l 94 610 q 93 539 94 576 q 92 468 92 502 l 92 420 q 100 195 92 307 q 109 -30 109 84 l 109 -35 q 94 -52 106 -39 q 77 -66 83 -64 l 54 -50 l 54 625 z "},"O":{"ha":621,"x_min":23,"x_max":590,"o":"m 23 377 q 36 490 30 433 q 52 604 42 548 q 78 711 61 661 q 125 800 95 762 q 202 860 156 837 q 316 883 248 883 q 414 859 372 883 q 488 796 457 836 q 537 706 518 757 q 568 602 556 655 q 585 496 579 549 q 590 400 590 444 q 567 257 590 328 q 501 128 544 186 q 397 35 458 71 q 256 -1 335 -1 q 144 35 189 -1 q 72 127 99 72 q 34 245 45 182 q 23 362 23 309 l 23 377 m 68 365 q 77 261 68 317 q 110 157 87 205 q 173 78 133 110 q 274 46 213 46 q 397 83 346 46 q 481 174 448 119 q 529 294 514 229 q 544 416 544 359 q 536 542 544 469 q 503 680 528 614 q 431 790 477 745 q 311 836 384 836 q 221 811 259 836 q 156 747 183 787 q 112 656 129 707 q 85 553 95 605 q 72 451 76 500 q 68 365 68 401 z "},"P":{"ha":621,"x_min":30,"x_max":598,"o":"m 79 834 q 56 828 66 825 q 41 840 46 831 q 33 861 35 849 q 30 882 30 872 q 38 907 30 888 q 57 944 46 925 q 78 978 68 963 q 91 993 88 993 q 205 983 146 993 q 321 953 264 972 q 429 902 378 933 q 517 828 479 871 q 576 730 555 785 q 598 608 598 675 q 569 479 598 544 q 491 363 540 415 q 380 277 442 311 q 251 244 317 244 l 251 307 q 361 334 307 307 q 457 406 415 362 q 526 505 499 450 q 552 614 552 560 q 523 725 552 671 q 448 821 494 779 q 347 888 403 863 q 237 914 292 914 q 187 912 209 914 q 141 897 165 910 l 141 875 q 140 845 141 861 q 140 814 140 829 l 140 793 q 142 650 140 719 q 148 513 144 582 q 158 373 152 445 q 172 220 164 301 q 177 188 172 213 q 187 134 182 163 q 197 79 193 104 q 203 47 202 54 q 204 43 203 46 q 205 39 205 41 q 204 37 205 38 q 203 34 203 35 l 203 31 q 198 25 202 30 q 189 15 194 20 q 180 5 184 9 q 172 0 175 1 l 157 16 q 151 38 155 18 q 141 86 146 58 q 131 142 136 114 q 125 189 126 171 q 119 263 122 213 q 110 377 115 313 q 100 511 104 441 q 91 644 95 581 q 83 759 87 708 q 79 834 80 810 z "},"Q":{"ha":738,"x_min":23,"x_max":701,"o":"m 23 315 q 25 367 23 330 q 30 446 27 404 q 35 527 33 488 q 41 581 38 566 q 44 608 41 587 q 52 654 47 629 q 62 703 57 680 q 71 738 66 727 q 84 787 76 757 q 106 845 92 817 q 141 894 121 873 q 189 914 161 914 q 205 913 197 914 q 219 910 213 913 q 228 900 225 907 q 228 880 231 892 q 140 778 172 836 q 93 655 109 720 q 73 520 77 590 q 69 384 69 450 q 76 271 69 328 q 104 166 83 213 q 165 90 126 119 q 271 61 205 61 q 313 68 283 61 q 373 85 343 75 q 426 111 403 96 q 449 141 449 126 l 449 157 q 424 172 442 161 q 385 195 406 183 q 347 219 365 208 q 323 237 330 231 q 309 248 319 239 q 290 266 300 256 q 272 286 281 275 q 260 298 263 296 q 259 301 259 300 l 259 307 q 269 326 259 320 q 292 331 279 331 q 336 313 315 331 q 378 274 357 296 q 425 235 400 252 q 481 217 449 217 q 519 249 506 217 q 538 321 533 281 q 543 400 543 362 l 543 454 q 530 570 543 509 q 490 684 518 632 q 416 770 461 736 q 304 803 370 803 q 273 798 285 803 q 252 785 262 792 q 233 772 243 777 q 208 766 224 766 q 224 839 208 812 q 290 865 240 865 q 433 824 374 865 q 526 719 491 783 q 576 579 560 655 q 591 434 591 503 q 579 310 591 369 q 543 189 567 251 q 571 177 551 186 q 614 158 591 168 q 657 138 637 148 q 684 126 677 129 q 699 113 697 119 q 701 94 701 106 q 669 61 701 61 q 629 71 647 61 q 593 93 610 81 q 557 115 575 104 q 518 126 540 126 q 480 106 507 126 q 417 63 453 87 q 342 20 381 39 q 267 0 302 0 q 156 27 202 0 q 81 99 110 54 q 37 200 52 144 q 23 315 23 256 z "},"R":{"ha":705,"x_min":43,"x_max":746,"o":"m 62 770 q 49 804 53 785 q 44 842 45 823 q 44 880 43 861 q 45 913 45 898 l 45 932 q 45 960 45 945 q 47 987 46 974 q 47 1006 47 1001 q 61 1017 49 1010 q 79 1023 73 1024 q 106 1000 102 1017 q 109 962 110 982 q 108 928 107 943 q 125 913 109 913 l 313 913 q 362 895 343 913 q 392 852 381 878 q 406 799 403 826 q 410 751 410 772 q 391 630 410 690 q 342 511 372 570 q 279 399 312 453 q 220 298 247 346 l 220 274 q 325 279 282 274 q 406 291 368 285 q 488 302 445 297 q 594 308 530 308 l 621 308 q 662 307 640 308 q 701 307 684 307 l 728 307 q 743 292 741 301 q 746 274 746 283 q 740 245 746 258 q 713 227 734 232 q 614 252 663 248 q 517 252 566 256 q 424 237 469 248 q 332 219 378 227 q 239 208 286 212 q 145 213 193 203 q 151 129 145 170 q 157 45 157 88 q 155 15 157 31 q 134 -1 153 -1 q 119 2 126 -1 q 110 16 113 5 q 106 37 109 20 q 101 70 103 53 q 97 102 99 87 q 94 126 95 118 q 90 200 92 151 q 83 314 87 250 q 77 448 80 378 q 70 582 73 518 q 65 696 66 646 q 62 770 64 746 m 110 787 q 113 726 111 766 q 119 635 115 686 q 125 527 122 583 q 132 420 129 471 q 138 328 136 369 q 141 267 140 286 q 212 376 174 317 q 283 498 250 435 q 340 627 317 562 q 362 754 362 692 q 352 801 362 780 q 325 836 342 822 q 285 858 308 850 q 237 865 262 865 q 203 863 225 865 q 161 853 182 860 q 125 834 140 846 q 110 803 110 822 l 110 787 z "},"S":{"ha":636,"x_min":8,"x_max":606,"o":"m 179 87 q 190 117 179 103 q 213 141 201 132 q 237 82 216 103 q 297 61 259 61 q 374 73 331 61 q 455 109 418 85 q 517 165 492 132 q 543 239 543 198 q 505 317 543 288 q 408 368 467 347 q 282 408 350 389 q 157 454 214 427 q 60 522 99 481 q 22 628 22 563 q 31 705 8 666 q 94 777 53 743 q 190 841 136 811 q 295 890 244 871 q 387 918 346 909 q 442 922 427 928 q 439 895 457 917 q 354 833 420 873 q 335 834 345 833 q 323 848 326 836 q 252 814 293 837 q 174 760 212 791 q 111 694 137 730 q 85 623 85 658 q 124 535 85 567 q 220 481 163 503 q 346 440 278 458 q 472 397 414 422 q 568 332 530 372 q 606 227 606 292 q 589 159 606 190 q 543 104 571 129 q 477 60 514 79 q 402 27 441 41 q 326 7 363 14 q 260 0 289 0 q 233 9 247 0 q 207 31 218 18 q 187 60 195 45 q 179 87 179 75 z "},"T":{"ha":680,"x_min":15,"x_max":886,"o":"m 393 12 q 387 209 389 107 q 378 414 384 311 q 360 621 372 518 q 331 818 349 723 q 321 845 326 840 q 301 850 317 850 q 239 840 269 850 q 178 818 209 830 q 118 795 148 806 q 54 785 88 785 q 26 791 37 785 q 15 818 15 798 q 17 837 15 827 q 33 848 19 846 l 298 913 q 303 951 296 943 q 328 960 311 960 q 368 951 351 960 q 408 943 384 943 q 529 953 469 943 q 648 976 589 963 q 767 999 708 989 q 886 1009 826 1009 l 886 996 q 885 975 886 986 q 879 955 884 964 q 865 944 873 945 q 821 939 850 943 q 755 931 792 936 q 677 922 718 926 q 598 912 636 917 q 531 903 560 907 q 487 897 502 898 q 456 889 475 894 q 420 880 438 884 q 390 871 403 875 q 377 865 377 867 l 377 848 l 456 30 l 456 12 q 450 6 454 9 q 437 1 445 3 q 418 1 429 -1 q 393 12 407 3 z "},"U":{"ha":590,"x_min":30,"x_max":552,"o":"m 79 251 q 73 315 77 273 q 64 412 69 358 q 55 526 60 467 q 45 640 50 586 q 37 738 41 694 q 31 802 33 781 q 31 817 31 804 q 30 834 30 830 l 79 834 q 82 779 80 817 q 87 696 84 742 q 94 597 91 650 q 100 499 96 545 q 106 416 103 453 q 110 361 109 378 q 123 267 114 320 q 153 169 132 214 q 209 92 175 123 q 296 61 243 61 q 374 90 340 61 q 430 163 407 118 q 467 264 453 209 q 490 374 481 320 q 503 473 499 427 q 506 544 506 518 q 496 672 506 612 q 486 795 486 732 q 496 814 486 810 q 518 819 506 819 q 526 819 521 819 q 534 818 532 818 q 545 764 543 788 q 550 719 548 741 q 552 674 552 697 l 552 624 q 550 523 552 585 q 540 392 548 461 q 515 253 532 323 q 469 126 498 183 q 394 34 439 69 q 285 -1 349 -1 q 201 22 237 -1 q 139 83 164 46 q 98 164 114 119 q 79 251 83 209 z "},"V":{"ha":821,"x_min":16,"x_max":875,"o":"m 16 761 q 58 754 42 761 q 84 734 73 747 q 104 703 95 722 q 126 661 113 684 l 552 141 q 562 128 559 132 q 575 125 566 125 q 578 125 576 125 q 582 126 581 126 q 595 178 586 142 q 614 260 604 214 q 636 355 624 305 q 659 449 648 404 q 679 529 670 494 q 692 581 688 564 q 715 664 701 614 q 750 759 728 713 q 802 838 772 804 q 875 871 833 871 q 871 831 875 842 q 861 811 868 819 q 843 791 853 803 q 819 754 833 780 q 801 721 812 745 q 777 669 789 697 q 754 616 765 642 q 739 581 743 591 q 728 532 736 566 q 711 457 720 499 q 691 369 701 415 q 672 281 681 323 q 656 206 663 239 q 644 157 648 174 q 641 133 643 151 q 636 95 639 115 q 631 57 633 75 q 629 31 629 39 q 612 9 621 19 q 590 -1 604 -1 q 576 2 579 -1 q 567 16 574 5 l 16 708 l 16 761 z "},"W":{"ha":1237,"x_min":12,"x_max":1293,"o":"m 33 677 l 408 126 l 425 126 l 429 153 q 438 223 433 183 q 448 306 444 263 q 457 377 453 349 l 457 393 q 465 449 458 408 q 480 534 472 490 q 495 620 488 579 q 505 677 502 661 q 519 692 507 690 q 543 693 532 693 q 564 690 556 693 q 577 681 572 688 q 586 665 582 674 q 597 644 590 655 q 672 527 633 590 q 752 400 711 464 q 838 275 793 336 q 929 157 882 213 q 935 151 930 155 q 943 141 939 146 q 953 132 948 136 q 959 126 958 127 l 975 157 q 989 214 979 176 q 1014 300 1000 252 q 1043 402 1028 349 q 1072 503 1058 456 q 1099 589 1086 551 q 1116 644 1111 627 q 1137 690 1122 658 q 1170 756 1153 722 q 1203 822 1187 791 q 1227 865 1219 853 q 1242 875 1230 869 q 1259 880 1253 880 q 1288 870 1283 880 q 1293 842 1293 860 q 1271 783 1293 817 q 1221 714 1249 750 q 1167 641 1194 678 q 1133 567 1141 604 l 1006 47 q 994 33 1004 34 q 975 31 985 31 q 957 33 962 31 q 944 47 952 34 l 555 601 l 534 581 q 528 561 532 579 q 519 518 524 543 q 511 467 515 494 q 505 425 506 441 q 499 378 502 410 q 493 309 496 347 q 486 229 490 271 q 480 146 483 186 q 475 77 477 107 q 472 31 472 46 q 455 9 464 19 q 433 -1 446 -1 q 419 2 423 -1 q 408 16 415 5 l 64 534 q 28 602 45 563 q 12 677 12 640 l 33 677 z "},"X":{"ha":787,"x_min":22,"x_max":764,"o":"m 243 30 l 243 53 q 244 62 243 61 l 378 382 l 87 724 q 76 739 84 726 q 58 770 68 753 q 39 805 49 787 q 23 834 28 823 q 22 837 22 836 l 22 841 q 30 858 22 850 q 47 865 38 865 q 75 849 60 865 q 102 812 90 833 q 123 774 115 792 q 134 754 132 757 q 165 720 144 743 q 212 667 186 696 q 267 605 237 637 q 322 543 296 572 q 370 491 349 514 q 401 457 391 468 l 416 471 l 438 518 q 471 591 453 551 q 510 677 490 632 q 549 762 530 722 q 583 833 568 802 q 605 880 598 865 q 620 907 613 895 q 635 926 627 918 q 654 937 643 933 q 684 941 666 941 l 684 913 q 621 798 652 859 q 557 675 589 738 q 498 549 526 613 q 449 425 471 486 q 448 421 449 423 q 448 416 448 419 q 448 412 448 415 q 449 408 449 410 q 460 393 452 404 q 479 370 469 382 q 498 346 490 357 q 511 330 507 335 q 551 290 522 319 q 612 227 579 260 l 674 165 q 715 126 703 137 q 726 139 720 136 q 738 142 731 142 q 743 142 741 142 q 747 141 746 141 q 751 130 749 138 q 755 111 753 121 q 760 92 758 100 q 762 79 762 83 q 763 74 762 77 q 764 69 764 71 q 751 42 764 54 q 723 30 738 30 q 719 31 722 30 q 715 31 716 31 l 416 347 l 292 16 q 278 6 290 12 q 260 0 266 0 q 249 5 252 0 q 244 18 245 11 q 243 30 243 24 z "},"Y":{"ha":798,"x_min":-7,"x_max":773,"o":"m 728 1020 q 731 1065 713 1050 q 773 1080 749 1080 l 773 1005 l 675 -138 l 625 -113 l 728 1020 m -5 914 q -7 917 -7 914 l -7 921 q -1 938 -7 930 q 16 945 5 945 l 18 944 l 23 944 l 618 621 q 661 607 646 616 q 677 568 677 598 q 674 545 677 557 q 654 532 671 532 l 647 532 q 635 541 643 534 q 617 554 627 547 q 600 568 608 562 q 590 578 591 574 l -5 914 z "},"Z":{"ha":880,"x_min":20,"x_max":857,"o":"m 274 -7 q 279 43 274 16 q 290 91 285 71 q 304 134 294 104 q 326 201 313 164 q 352 279 338 237 q 378 357 366 320 q 400 423 391 395 l 415 468 l 415 481 q 363 474 389 481 q 313 458 338 467 q 262 441 288 449 q 210 434 237 434 q 189 439 199 434 q 178 458 178 445 l 178 464 q 179 468 178 465 q 186 475 182 469 q 197 486 191 481 l 205 494 q 212 499 210 499 l 448 562 l 526 902 q 465 905 490 902 q 419 908 441 907 q 375 905 397 909 q 321 891 353 902 q 271 873 307 886 q 194 845 235 860 q 118 817 153 830 q 69 798 83 803 q 61 795 66 796 q 54 795 56 795 q 28 808 37 795 q 20 837 20 821 q 29 852 20 849 q 54 860 38 854 l 198 909 q 323 945 262 930 q 446 967 384 959 q 589 975 509 975 l 510 591 l 510 571 q 536 574 522 571 q 562 577 551 578 q 582 570 574 576 q 590 544 590 563 q 582 522 590 528 q 562 515 574 515 q 537 516 551 514 q 511 519 524 518 q 490 515 499 519 q 479 499 481 511 q 453 427 471 479 q 416 318 435 376 q 378 209 396 260 q 353 137 359 157 q 343 90 350 111 q 339 42 336 68 q 418 55 363 42 q 537 85 473 68 q 662 121 601 103 q 762 152 723 140 q 774 159 766 153 q 789 170 781 164 q 804 181 796 176 q 817 186 811 186 q 846 170 836 186 q 857 138 857 155 q 854 119 857 127 q 840 104 852 110 q 577 45 709 84 q 321 -37 445 7 q 281 -34 288 -42 q 274 -7 274 -26 z "},"[":{"ha":471,"x_min":30,"x_max":445,"o":"m 47 -87 q 50 -81 47 -85 q 55 -71 53 -76 q 60 -60 57 -65 q 62 -56 62 -56 l 62 -46 q 63 -29 62 -39 q 64 -7 64 -19 l 64 8 q 59 274 64 141 q 47 540 54 407 q 35 805 41 673 q 30 1070 30 937 l 30 1105 q 31 1160 30 1131 q 31 1214 31 1190 l 31 1251 q 54 1257 34 1252 q 103 1267 73 1261 q 168 1278 133 1272 q 236 1288 203 1283 q 294 1296 269 1293 q 331 1299 320 1299 q 365 1295 351 1299 q 378 1265 378 1290 q 376 1248 378 1257 q 361 1236 374 1238 l 110 1203 l 94 1173 l 94 945 q 94 776 94 868 q 96 587 95 684 q 100 397 98 491 q 106 221 103 302 q 113 76 109 140 q 125 -22 118 12 q 134 -43 127 -31 q 141 -56 140 -56 l 445 -56 l 445 -66 q 444 -87 445 -76 q 437 -107 442 -98 q 423 -117 433 -117 q 342 -130 385 -125 q 255 -140 298 -136 q 168 -148 212 -145 q 85 -151 125 -151 q 68 -142 76 -151 q 57 -123 61 -134 q 50 -102 53 -113 q 47 -87 47 -92 z "},"\\":{"ha":746,"x_min":16,"x_max":741,"o":"m 16 944 l 60 978 l 644 172 q 667 153 651 167 q 700 119 684 138 q 728 81 716 100 q 739 47 741 61 q 732 35 738 42 q 720 20 727 27 q 705 6 713 12 q 692 0 697 0 q 675 17 684 5 q 661 41 667 28 q 650 65 655 54 q 644 79 646 76 l 16 944 z "},"]":{"ha":684,"x_min":-72,"x_max":574,"o":"m 178 -94 q 183 -76 176 -88 q 195 -62 190 -64 l 456 4 l 353 1227 l 345 1227 q 136 1217 239 1227 q -72 1206 34 1206 l -72 1242 q -28 1246 -60 1244 q 37 1251 3 1248 q 104 1255 72 1253 q 148 1259 136 1257 l 164 1259 q 185 1261 168 1259 q 225 1267 202 1263 q 273 1274 248 1271 q 321 1282 298 1278 q 361 1287 345 1286 q 384 1290 377 1289 q 391 1291 384 1290 q 401 1291 399 1291 q 424 1287 415 1291 q 431 1259 433 1283 q 431 1137 429 1200 q 439 999 433 1074 q 458 831 446 924 q 481 623 469 739 q 509 360 494 506 q 541 33 525 214 q 567 13 560 23 q 574 -15 574 3 q 567 -43 574 -31 q 541 -62 560 -56 q 526 -64 537 -64 q 501 -63 514 -64 q 476 -62 488 -62 l 463 -62 q 402 -75 433 -65 q 341 -96 372 -85 q 281 -117 311 -107 q 225 -126 252 -126 q 197 -121 210 -126 q 178 -94 184 -115 z "},"^":{"ha":597,"x_min":79,"x_max":471,"o":"m 79 977 q 102 1029 88 994 q 132 1101 117 1063 q 162 1172 148 1138 q 184 1226 176 1206 q 191 1252 189 1238 q 197 1277 193 1265 q 208 1297 201 1289 q 232 1305 214 1305 l 240 1305 q 247 1303 245 1305 l 420 1090 q 462 1085 453 1099 q 471 1053 471 1072 q 461 1015 471 1035 q 429 994 452 994 q 376 1038 399 1013 q 336 1090 354 1063 q 303 1145 317 1118 q 277 1194 289 1172 q 262 1204 274 1198 q 247 1210 250 1210 q 238 1204 244 1210 q 231 1194 232 1198 l 110 959 q 107 958 110 958 l 103 958 q 79 977 87 958 z "},"_":{"ha":928,"x_min":15,"x_max":897,"o":"m 15 39 q 33 62 15 54 q 222 62 127 56 q 410 80 316 69 q 597 101 503 91 q 787 111 690 111 l 834 111 q 863 111 849 111 q 882 110 876 110 q 890 96 884 107 q 897 79 897 84 q 892 65 897 73 q 883 50 888 57 q 871 37 878 42 q 859 31 864 31 q 779 39 818 31 q 700 47 739 47 q 562 39 629 47 q 425 22 494 31 q 287 6 355 14 q 149 -1 218 -1 q 115 -2 138 -1 q 71 1 92 -3 q 32 12 49 4 q 15 39 15 20 z "},"`":{"ha":237,"x_min":16,"x_max":224,"o":"m 16 1073 q 24 1076 18 1074 q 31 1080 30 1078 q 54 1077 42 1081 q 75 1065 65 1073 q 94 1050 85 1058 q 110 1034 103 1042 q 130 1009 118 1024 q 156 977 142 994 q 182 945 170 960 q 202 921 194 930 q 208 905 205 917 q 213 890 212 894 q 219 864 214 880 q 209 840 224 848 l 189 850 l 16 1073 z "},"a":{"ha":553,"x_min":22,"x_max":581,"o":"m 22 141 q 31 239 22 180 q 56 360 39 297 q 100 487 73 423 q 160 602 126 551 q 237 684 194 652 q 332 715 281 715 q 317 677 332 696 q 281 642 301 659 q 241 610 262 625 q 213 581 221 594 q 155 488 180 538 q 110 383 129 437 q 80 273 91 330 q 69 164 69 217 q 72 139 69 156 q 79 104 75 122 q 92 74 84 87 q 110 61 100 61 l 114 61 q 117 62 115 61 q 178 151 153 103 q 220 249 202 198 q 250 353 237 300 q 274 457 262 406 q 277 502 278 472 q 280 560 277 532 q 294 610 283 589 q 334 631 305 631 q 347 630 339 631 q 354 628 354 629 q 439 451 404 524 q 499 331 475 378 q 538 256 524 283 q 561 215 553 229 q 571 196 568 201 q 574 189 574 191 q 576 169 575 183 q 578 139 578 155 q 580 109 579 123 q 581 91 581 95 q 551 92 567 91 q 528 110 534 94 l 354 471 l 339 487 q 323 434 335 472 q 299 353 312 396 q 275 273 286 311 q 260 220 264 235 q 239 163 252 199 q 208 90 227 126 q 164 26 189 53 q 110 -1 140 -1 q 69 14 85 -1 q 42 53 53 30 q 26 100 31 76 q 22 141 22 125 z "},"b":{"ha":511,"x_min":31,"x_max":488,"o":"m 31 970 q 41 987 31 982 q 62 993 52 993 q 71 991 65 993 q 79 990 77 990 l 125 393 q 146 455 133 426 q 180 507 160 484 q 227 541 199 529 q 292 553 254 553 q 374 531 338 553 q 436 475 411 509 q 475 397 461 441 q 488 312 488 354 q 458 195 488 251 q 378 95 427 138 q 269 25 330 52 q 149 -1 209 -1 q 115 16 126 -1 q 99 58 103 34 q 95 105 95 81 q 94 141 95 129 q 77 351 85 251 q 62 548 69 450 q 47 746 54 646 q 31 958 39 846 l 31 970 m 282 505 q 225 475 250 505 q 186 408 201 446 q 165 330 172 370 q 157 267 159 290 q 155 226 156 256 q 153 161 153 195 q 152 97 152 127 q 152 54 152 66 q 248 75 197 54 q 341 130 298 95 q 412 211 384 165 q 441 307 441 256 q 429 372 441 336 q 395 436 416 407 q 345 485 374 465 q 282 505 316 505 z "},"c":{"ha":471,"x_min":22,"x_max":437,"o":"m 22 197 q 26 248 22 210 q 37 334 30 285 q 58 435 45 382 q 90 533 72 488 q 132 606 109 578 q 187 635 156 635 q 155 545 175 597 q 118 437 136 494 q 89 323 100 381 q 82 214 77 264 q 113 122 87 163 q 194 60 138 81 q 283 83 245 60 q 349 134 321 106 q 398 186 377 163 q 437 209 419 209 q 412 118 437 157 q 348 52 387 79 q 261 12 309 26 q 164 -1 213 -1 q 98 18 126 -1 q 54 66 71 37 q 29 130 37 95 q 22 197 22 164 z "},"d":{"ha":518,"x_min":15,"x_max":487,"o":"m 15 115 q 44 264 15 189 q 122 404 73 339 q 234 520 171 469 q 362 597 297 571 q 358 677 362 637 q 349 756 354 716 q 338 837 343 796 q 331 921 332 878 q 341 940 331 935 q 362 945 351 945 q 382 943 370 945 q 395 928 393 941 l 487 79 q 484 74 487 79 q 476 64 481 69 q 465 55 471 60 q 457 47 460 50 q 454 45 457 46 q 449 45 450 45 q 424 89 433 56 q 410 162 415 122 q 402 240 406 202 q 395 298 399 278 q 383 262 392 288 q 358 202 374 236 q 319 133 342 168 q 264 68 296 98 q 193 18 233 38 q 103 -1 152 -1 q 62 8 79 -1 q 35 35 45 18 q 20 73 24 52 q 15 115 15 94 m 77 141 q 79 123 77 136 q 85 96 80 110 q 96 73 90 83 q 110 62 102 62 q 174 89 140 65 q 241 149 209 113 q 303 231 274 186 q 352 323 332 277 q 378 412 372 369 q 377 487 385 456 q 368 501 372 498 q 355 505 363 505 q 244 468 296 505 q 155 376 193 431 q 98 258 118 321 q 77 141 77 194 z "},"e":{"ha":457,"x_min":-38,"x_max":426,"o":"m 79 315 q 15 286 47 296 q -38 298 -18 275 q -20 333 -38 324 q 20 347 -3 342 q 64 361 42 353 q 95 393 87 369 q 110 458 103 420 q 129 532 117 496 q 164 591 141 567 q 228 614 187 614 q 286 599 251 614 q 351 562 320 583 q 404 515 382 540 q 426 471 426 491 q 424 453 426 461 q 410 439 422 445 l 142 347 l 141 340 q 140 326 141 335 l 140 309 q 140 296 140 300 q 144 229 140 269 q 161 151 148 189 q 197 87 174 114 q 259 60 220 60 q 284 66 274 60 q 304 79 294 72 q 325 93 315 87 q 349 99 335 99 q 340 60 349 79 q 316 28 331 42 q 282 7 301 15 q 244 -1 263 -1 q 161 35 193 -1 q 113 121 130 71 q 90 226 96 172 q 79 315 83 279 m 244 555 q 203 541 220 555 q 175 507 186 528 q 159 463 164 487 q 155 420 155 439 q 203 423 176 420 q 255 434 229 426 q 302 455 281 442 q 331 487 323 468 q 293 537 311 519 q 244 555 275 555 z "},"f":{"ha":562,"x_min":15,"x_max":678,"o":"m 213 425 q 172 416 191 425 q 134 399 152 408 q 96 383 115 391 q 54 376 76 376 q 15 419 15 376 l 15 422 q 16 425 15 423 l 221 487 q 223 606 225 547 q 220 720 221 665 q 222 823 218 774 q 237 914 225 872 q 275 987 250 956 q 345 1039 300 1019 q 378 1035 359 1039 q 411 1022 396 1031 q 437 999 426 1013 q 448 967 448 985 q 353 946 388 967 q 301 891 319 925 q 279 812 283 857 q 277 717 275 766 q 284 617 279 667 q 289 522 289 567 q 379 532 335 522 q 467 553 423 541 q 556 573 511 564 q 646 582 601 582 q 678 551 678 582 q 655 529 678 538 q 595 512 632 519 q 514 497 559 505 q 425 481 469 490 q 343 463 381 472 q 283 439 305 453 q 283 337 277 388 q 299 237 289 286 q 319 138 309 187 q 331 39 330 88 q 326 13 331 27 q 308 -1 321 -1 q 290 7 297 -1 q 279 25 283 15 q 271 45 274 35 q 267 62 269 56 q 250 157 258 113 q 235 243 241 201 q 226 330 229 286 q 221 425 222 373 l 213 425 z "},"g":{"ha":559,"x_min":18,"x_max":522,"o":"m 176 -519 q 178 -494 176 -507 q 186 -478 180 -481 q 201 -486 193 -475 q 224 -530 210 -496 q 303 -512 267 -530 q 368 -463 339 -494 q 416 -391 396 -431 q 449 -307 435 -350 q 469 -220 463 -263 q 475 -141 475 -178 q 448 147 475 0 q 365 425 420 294 q 317 301 338 365 q 269 178 297 237 q 199 73 240 119 q 88 -1 157 26 q 50 12 64 -1 q 28 43 35 24 q 19 83 20 62 q 18 123 18 104 q 25 203 18 153 q 49 309 33 252 q 87 423 65 366 q 140 526 110 480 q 206 601 170 572 q 286 629 243 629 q 313 623 300 629 q 340 608 327 616 l 368 591 q 396 581 381 585 q 410 522 400 563 q 430 431 419 481 q 452 323 441 380 q 475 215 464 266 q 494 123 486 164 q 506 62 503 81 q 511 31 507 53 q 516 -17 514 8 q 520 -64 518 -42 q 522 -94 522 -85 q 517 -186 522 -133 q 498 -294 511 -239 q 463 -404 484 -350 q 408 -502 441 -458 q 332 -572 376 -545 q 231 -598 288 -598 q 187 -574 198 -598 q 176 -519 176 -549 m 64 136 l 64 113 q 66 89 64 100 q 76 68 69 77 q 98 60 83 60 q 147 87 122 61 q 193 146 172 113 q 231 215 214 180 q 255 267 248 250 q 272 313 260 279 q 296 385 283 347 q 319 456 308 422 q 334 505 330 491 l 334 511 q 325 530 334 522 q 304 543 316 538 q 281 549 293 547 q 260 552 269 552 q 204 524 231 552 q 156 452 178 495 q 117 357 134 408 q 88 260 100 307 q 70 178 76 213 q 64 136 64 144 z "},"h":{"ha":621,"x_min":20,"x_max":613,"o":"m 20 1044 l 79 1054 l 141 315 q 170 415 151 361 q 220 514 189 469 q 299 584 252 559 q 408 597 346 609 q 484 564 452 590 q 538 499 515 537 q 576 416 562 461 q 598 323 590 370 q 610 233 606 277 q 613 157 613 190 q 608 119 613 129 q 583 109 604 109 q 564 111 574 109 q 551 126 555 113 q 553 194 553 152 q 549 281 553 236 q 533 371 544 326 q 503 453 522 416 q 452 512 483 490 q 377 534 420 534 q 299 515 332 534 q 243 464 266 495 q 208 394 221 433 q 189 315 194 355 q 186 280 189 304 q 182 227 184 256 q 178 165 179 198 q 175 102 176 132 q 173 50 174 73 q 172 16 172 27 q 160 1 168 3 q 141 -1 152 -1 q 134 -1 140 -1 q 125 0 127 0 l 20 1044 z "},"i":{"ha":197,"x_min":-7,"x_max":174,"o":"m 16 617 q 35 612 24 617 q 47 597 45 606 l 142 126 q 166 87 159 102 q 174 47 174 72 q 170 17 174 35 q 151 -1 165 -1 l 145 -1 q 142 0 142 -1 q 134 5 140 1 l 114 26 q 110 31 110 30 l 16 567 l 16 617 m -7 921 q 37 913 23 921 q 52 878 52 906 q 50 854 52 868 q 34 837 49 841 q 0 872 7 848 q -7 921 -7 897 z "},"j":{"ha":378,"x_min":-107,"x_max":194,"o":"m -107 -576 q -80 -592 -91 -576 q -59 -627 -69 -608 q -35 -663 -49 -647 q 3 -678 -22 -678 q 71 -611 42 -666 q 115 -475 99 -556 q 135 -292 130 -393 q 133 -86 140 -191 q 109 123 126 19 q 66 313 92 227 l 66 328 q 78 353 66 342 q 103 365 90 365 q 152 155 130 269 q 184 -74 174 42 q 192 -300 194 -190 q 174 -498 190 -410 q 123 -648 157 -587 q 35 -724 90 -708 q -18 -729 7 -742 q -62 -690 -43 -716 q -94 -630 -81 -663 q -107 -576 -106 -597 m 0 689 l 0 720 q 2 735 0 728 q 9 747 4 742 q 24 751 15 751 q 42 745 37 751 q 50 731 47 739 q 51 713 52 723 q 50 697 50 704 q 51 680 50 689 q 50 661 52 670 q 42 646 47 652 q 24 640 37 640 q 9 648 15 640 q 2 667 4 656 q 0 689 0 677 z "},"k":{"ha":625,"x_min":23,"x_max":696,"o":"m 23 975 q 69 986 54 994 q 87 958 84 978 l 213 347 q 245 383 228 358 q 279 439 262 408 q 315 505 297 471 q 352 566 334 538 q 390 612 370 594 q 431 629 410 629 q 451 628 438 629 q 464 614 464 627 q 458 595 464 604 q 445 578 453 586 q 429 562 437 570 q 416 551 420 555 q 394 522 408 541 q 364 483 380 503 q 336 446 349 463 q 323 425 324 430 q 300 388 313 411 q 274 342 286 365 q 253 302 262 320 q 244 282 244 285 l 244 256 q 358 261 308 256 q 456 273 408 266 q 553 284 503 279 q 666 289 604 289 q 686 283 677 289 q 696 264 696 278 q 692 245 696 254 q 680 225 688 237 q 581 227 642 229 q 455 218 519 225 q 331 199 391 212 q 237 172 271 187 l 237 31 l 213 0 q 177 112 187 52 q 163 236 167 172 q 155 364 160 300 q 134 487 151 429 q 134 493 134 488 q 130 513 133 498 q 119 560 126 529 q 100 645 113 591 q 69 779 88 699 q 23 975 50 860 z "},"l":{"ha":164,"x_min":16,"x_max":144,"o":"m 79 31 q 72 140 77 66 q 60 307 66 214 q 48 503 54 400 q 36 699 42 605 q 24 866 30 792 q 16 975 18 940 l 16 993 q 47 1024 16 1024 q 56 1023 50 1024 q 64 1023 61 1023 q 79 796 72 905 q 92 581 85 688 q 107 366 99 473 q 126 141 115 258 q 142 106 141 126 q 144 66 144 87 q 143 45 144 57 q 138 24 142 34 q 125 6 134 14 q 103 -1 117 -1 q 86 8 91 -1 q 79 31 81 18 z "},"m":{"ha":865,"x_min":23,"x_max":826,"o":"m 71 597 q 77 567 73 581 q 81 541 79 553 q 87 518 84 528 l 87 505 q 90 481 88 496 q 94 448 91 465 q 100 415 98 431 q 103 393 102 399 q 117 450 107 419 q 143 505 127 480 q 181 549 159 530 q 237 567 203 567 l 244 567 q 303 507 278 538 q 347 441 328 476 q 382 366 366 406 q 416 282 399 327 l 433 282 q 452 372 438 320 q 489 471 465 425 q 547 551 513 518 q 631 583 582 583 q 681 557 656 583 q 728 488 705 530 q 768 394 750 445 q 799 294 787 343 q 819 203 811 244 q 826 141 826 163 q 821 118 826 127 q 802 109 817 109 q 779 126 787 109 q 770 159 776 137 q 757 209 764 180 q 741 268 750 237 q 724 326 732 298 q 709 376 716 354 q 700 408 703 397 q 687 441 696 422 q 666 477 678 460 q 639 507 654 495 q 605 519 624 519 q 551 488 574 519 q 512 415 528 457 q 489 331 496 373 q 480 267 481 289 q 479 233 480 258 q 479 180 479 209 q 479 127 479 152 q 480 94 480 103 q 463 73 471 83 q 439 62 454 62 q 427 66 433 62 q 416 79 420 69 q 409 114 415 90 q 395 165 403 138 q 380 217 387 193 q 370 251 373 241 q 357 281 368 258 q 335 332 347 304 q 311 385 323 359 q 292 425 298 411 q 262 470 277 452 q 217 488 248 488 q 188 476 201 488 q 166 446 175 464 q 154 410 157 429 q 151 377 151 391 l 151 31 q 144 8 151 18 q 126 -1 138 -1 q 111 2 119 -1 q 103 16 103 5 l 23 597 l 71 597 z "},"n":{"ha":690,"x_min":38,"x_max":654,"o":"m 38 505 q 39 524 38 513 q 41 545 39 534 q 50 562 43 555 q 69 568 57 568 q 78 568 72 568 q 87 567 84 567 q 97 369 88 471 q 133 172 106 267 q 140 223 134 187 q 154 299 146 259 q 169 374 161 339 q 179 425 176 410 q 205 484 189 453 q 245 540 221 514 q 298 582 269 566 q 359 598 327 598 q 456 574 414 598 q 531 509 498 549 q 587 418 564 469 q 625 315 610 368 q 647 213 640 262 q 654 126 654 164 l 654 110 q 652 94 654 102 q 645 82 650 87 q 628 77 640 77 q 605 94 614 77 q 597 172 604 127 q 581 267 591 217 q 554 364 571 316 q 512 450 537 412 q 453 512 487 488 q 372 536 419 536 q 306 522 334 536 q 259 485 278 509 q 229 429 240 461 q 212 361 217 397 q 201 293 208 342 q 186 189 194 244 q 172 84 178 133 q 164 16 165 35 q 150 0 160 3 q 129 -3 140 -3 q 122 -2 127 -3 q 117 0 117 -1 l 39 471 q 39 486 39 473 q 38 505 38 498 z "},"o":{"ha":439,"x_min":30,"x_max":411,"o":"m 30 205 q 31 277 30 232 q 37 375 31 323 q 53 481 42 427 q 84 579 64 536 q 136 650 104 623 q 213 677 167 677 q 315 642 277 677 q 375 554 354 606 q 404 443 396 502 q 411 336 411 384 q 396 225 411 285 q 350 115 381 165 q 272 32 319 65 q 160 -1 225 -1 q 92 18 118 -1 q 54 68 66 38 q 35 134 41 98 q 30 205 30 171 m 76 221 q 77 168 76 195 q 85 115 79 140 q 110 76 92 91 q 161 61 127 61 q 260 88 221 61 q 321 158 298 115 q 353 252 345 201 q 362 351 362 304 q 357 429 362 381 q 338 521 353 476 q 294 597 323 566 q 220 629 266 629 q 163 604 187 629 q 123 537 140 578 q 98 448 107 496 q 84 354 90 399 q 77 273 79 309 q 76 221 76 236 z "},"p":{"ha":543,"x_min":27,"x_max":506,"o":"m 27 731 q 52 728 38 731 q 76 718 65 726 q 93 699 87 711 q 94 667 99 686 q 110 671 99 669 q 134 675 121 673 q 157 680 146 678 q 172 684 168 682 l 179 684 q 294 665 236 684 q 399 613 353 647 q 475 530 445 579 q 506 420 506 481 q 475 296 506 353 q 394 199 444 240 q 283 136 345 159 q 160 113 221 113 q 168 35 160 73 q 182 -41 175 -4 q 197 -116 190 -79 q 205 -190 205 -153 q 197 -208 205 -201 q 179 -214 190 -214 q 159 -203 167 -214 q 149 -179 152 -193 q 143 -153 145 -165 q 141 -134 141 -140 q 132 -74 138 -115 q 118 18 126 -33 q 101 125 110 69 q 85 233 92 182 q 71 325 77 285 q 62 384 65 365 l 27 731 m 92 549 l 92 536 q 93 520 92 529 q 94 505 94 511 l 94 495 q 100 439 96 472 q 110 371 104 407 q 121 298 115 335 q 130 233 126 262 q 137 184 134 203 q 141 164 140 165 q 251 170 195 152 q 351 229 307 189 q 426 321 396 269 q 457 430 456 374 q 433 516 457 480 q 373 576 410 552 q 291 611 336 600 q 201 623 245 623 q 159 620 179 623 q 125 610 140 617 q 101 589 110 604 q 92 549 92 574 z "},"q":{"ha":505,"x_min":22,"x_max":472,"o":"m 396 282 l 396 297 q 395 319 396 308 q 395 340 395 331 l 395 354 q 329 248 359 305 q 262 140 298 190 q 179 57 225 91 q 69 22 133 23 q 47 23 60 22 q 33 39 35 24 q 33 117 22 66 q 68 227 43 167 q 128 347 94 286 q 199 460 163 408 q 271 546 236 511 q 331 586 305 581 q 338 583 332 586 q 349 574 343 579 q 358 564 354 568 q 362 559 362 560 q 266 458 315 513 q 178 344 217 404 q 113 219 138 283 q 88 90 88 155 q 160 118 125 90 q 228 192 195 146 q 290 293 260 237 q 342 404 319 349 q 383 509 366 460 q 408 590 400 557 q 416 598 411 591 q 425 605 422 605 q 437 602 430 605 q 453 593 445 598 q 467 580 461 587 q 472 567 472 572 l 472 559 q 457 443 464 518 q 444 275 450 368 q 433 79 438 182 q 425 -118 429 -23 q 416 -292 420 -213 q 408 -416 412 -370 q 411 -456 408 -433 q 411 -500 414 -479 q 397 -538 408 -522 q 359 -553 385 -553 q 365 -343 359 -448 q 377 -135 370 -239 q 390 73 384 -31 q 396 282 396 176 z "},"r":{"ha":495,"x_min":19,"x_max":486,"o":"m 54 518 l 134 189 l 151 189 q 166 281 155 232 q 198 378 178 330 q 246 471 218 426 q 309 549 274 515 q 389 604 345 583 q 486 624 433 624 q 459 567 486 591 q 396 519 433 543 q 321 471 359 496 q 260 408 282 445 q 223 323 237 372 q 200 224 209 275 q 187 123 191 174 q 180 31 183 72 q 163 9 172 19 q 141 -1 155 -1 q 127 2 136 -1 q 117 16 119 5 l 19 518 l 54 518 z "},"s":{"ha":551,"x_min":30,"x_max":521,"o":"m 94 46 q 96 74 94 62 q 105 90 99 85 q 120 90 111 95 q 142 68 129 85 q 199 71 167 68 q 267 80 232 73 q 337 98 302 87 q 398 127 372 109 q 441 170 425 145 q 457 229 457 195 q 426 279 457 263 q 347 304 395 296 q 243 322 298 313 q 141 349 189 331 q 62 402 94 368 q 30 499 30 437 q 45 572 30 543 q 95 628 60 602 q 148 667 110 640 q 229 724 186 693 q 309 781 271 754 q 362 818 347 807 q 370 819 365 818 q 377 819 374 819 q 411 787 411 819 q 387 755 411 772 q 325 718 362 738 q 245 674 288 697 q 165 623 202 651 q 103 564 127 595 q 79 495 79 532 q 98 438 79 456 q 157 408 118 420 q 214 393 174 404 q 299 368 254 381 q 385 345 345 355 q 441 330 425 334 q 498 288 476 311 q 521 227 521 266 q 501 157 521 189 q 450 101 481 126 q 376 56 418 76 q 293 24 335 37 q 211 5 251 11 q 140 -1 171 -1 q 102 7 110 -1 q 94 46 94 16 z "},"t":{"ha":659,"x_min":15,"x_max":774,"o":"m 292 425 q 232 416 262 425 q 173 399 202 408 q 115 383 144 391 q 54 376 85 376 q 26 382 37 376 q 15 410 15 389 q 24 432 15 426 q 45 439 33 438 q 73 438 58 439 q 95 439 87 437 q 135 449 106 442 q 197 463 164 456 q 258 476 229 469 q 298 487 288 483 q 299 501 298 491 q 300 523 300 511 q 301 544 301 534 l 301 559 q 296 638 301 600 q 284 716 290 677 q 273 795 278 755 q 267 873 267 834 q 271 900 267 887 q 292 913 274 913 q 306 909 298 913 q 315 897 313 906 l 362 505 q 365 503 363 503 l 369 503 q 411 510 382 503 q 475 526 439 517 q 550 547 510 536 q 627 566 590 557 q 693 580 663 575 q 739 581 723 585 q 757 568 745 579 q 772 551 769 556 q 749 524 774 537 q 682 500 723 511 q 590 479 640 488 q 494 462 540 469 q 416 448 449 454 q 377 439 384 442 l 377 412 q 376 374 377 395 q 376 334 376 353 l 376 307 q 385 172 376 237 q 395 39 395 106 q 389 24 395 30 q 376 13 384 18 q 359 5 368 8 q 347 0 351 1 q 332 106 336 58 q 325 202 327 155 q 321 303 323 250 q 315 425 319 357 l 292 425 z "},"u":{"ha":608,"x_min":37,"x_max":589,"o":"m 179 0 q 132 5 153 -9 q 95 48 111 19 q 66 115 79 77 q 47 189 54 152 q 39 255 41 225 q 39 298 37 285 q 41 340 39 312 q 43 405 42 369 q 47 479 45 441 q 50 555 49 518 q 53 619 52 591 q 54 661 54 647 q 58 662 57 661 l 62 663 q 85 651 76 663 q 102 628 95 639 q 101 560 102 609 q 100 456 100 511 q 101 351 100 400 q 102 282 102 301 q 108 231 103 266 q 121 161 113 197 q 143 96 129 125 q 179 62 157 66 q 275 104 236 62 q 339 210 313 146 q 380 348 365 274 q 407 487 396 422 q 427 596 418 552 q 448 644 435 640 l 480 637 l 556 113 q 570 100 564 109 q 580 83 575 92 q 587 64 585 73 q 589 50 589 54 q 572 30 586 41 q 549 18 559 19 l 544 18 q 541 18 543 18 q 534 31 538 22 q 524 49 529 39 q 515 68 518 58 q 510 81 511 79 q 501 123 506 95 q 492 186 496 152 q 485 260 488 221 q 478 334 481 298 q 471 398 475 370 q 464 439 468 426 q 445 366 457 408 q 414 275 433 323 q 373 182 396 228 q 321 98 350 137 q 256 33 292 60 q 179 0 221 7 z "},"v":{"ha":605,"x_min":23,"x_max":574,"o":"m 23 567 q 60 589 43 595 q 87 567 77 583 q 110 523 94 552 q 146 456 126 494 q 188 378 165 419 q 230 299 210 336 q 267 232 250 262 q 292 189 283 202 q 304 170 296 183 q 323 143 312 157 q 345 119 334 129 q 363 109 355 109 l 368 109 q 370 110 370 109 l 511 677 l 574 644 q 515 503 541 579 q 471 348 490 427 q 438 192 452 269 q 416 47 425 115 q 412 34 415 42 q 403 18 408 26 q 391 4 397 9 q 377 -1 384 -1 q 355 9 363 -1 q 339 31 347 19 q 248 158 294 85 q 158 306 201 231 q 80 450 115 381 q 23 567 45 519 z "},"w":{"ha":998,"x_min":22,"x_max":952,"o":"m 339 16 q 310 80 330 37 q 266 176 290 123 l 213 290 q 162 405 187 351 q 117 502 137 458 q 87 567 96 545 q 68 597 79 581 q 47 630 57 613 q 29 664 37 647 q 22 700 22 681 q 25 715 22 707 q 41 724 28 724 q 50 721 42 724 q 64 713 57 718 q 78 702 72 708 q 87 690 84 696 l 351 127 l 433 614 q 431 635 429 624 q 441 656 434 647 q 459 671 449 665 q 480 677 469 677 q 498 675 490 677 q 511 661 507 674 q 529 622 517 648 q 556 563 541 595 q 588 494 571 530 q 621 426 605 458 q 650 368 637 393 l 669 330 q 689 289 677 311 q 715 246 701 267 q 746 205 730 225 q 779 172 762 186 l 903 738 q 911 763 907 753 q 928 773 914 773 q 949 759 945 773 q 952 732 952 745 q 911 564 924 651 l 887 392 q 855 223 875 307 q 793 62 836 140 l 787 62 q 762 79 773 62 l 480 581 q 460 496 469 551 q 444 376 452 441 q 427 243 435 311 q 410 122 419 176 q 388 33 400 68 q 361 -1 376 -1 q 339 16 347 -1 z "},"x":{"ha":661,"x_min":-4,"x_max":628,"o":"m 232 -22 q 233 -10 232 -19 q 236 0 233 -1 l 313 237 q 314 248 313 239 q 315 262 315 258 q 291 316 315 290 q 232 366 267 342 q 156 415 197 391 q 79 465 115 439 q 20 519 43 491 q -4 582 -4 548 l 15 582 q 49 557 26 574 q 101 517 72 540 q 163 471 130 495 q 225 426 195 448 q 278 387 255 404 q 313 362 301 370 q 329 353 316 359 q 346 347 342 347 q 363 399 350 361 q 391 479 376 437 q 419 561 406 522 q 438 614 433 600 q 447 637 442 624 q 459 663 452 651 q 477 682 467 674 q 503 689 487 689 l 503 644 q 475 569 492 613 q 439 478 457 525 q 407 388 420 431 q 392 315 393 345 l 392 298 q 431 272 407 289 q 487 234 456 255 q 554 189 518 213 q 628 142 590 165 q 625 129 628 137 q 615 113 621 121 q 602 99 609 104 q 589 94 594 94 q 583 94 586 94 q 579 95 581 95 q 545 126 572 103 q 488 174 518 149 q 427 218 457 199 q 384 237 397 237 q 369 233 376 237 q 359 220 362 229 l 281 -31 l 250 -62 q 234 -45 236 -58 q 232 -22 232 -33 z "},"y":{"ha":684,"x_min":23,"x_max":654,"o":"m 574 -222 q 582 -70 574 -145 q 590 81 590 5 q 572 138 590 114 q 528 179 553 161 q 391 275 457 231 q 263 366 326 320 q 140 461 201 411 q 23 574 80 511 l 54 605 q 96 572 68 594 q 160 522 125 549 q 235 463 195 494 q 310 404 274 431 q 374 353 346 376 q 416 321 403 331 q 456 295 431 311 q 507 264 481 279 q 551 238 532 250 q 574 227 571 227 l 590 227 l 590 244 q 592 297 591 262 q 594 376 593 332 q 597 471 595 420 q 602 566 600 521 q 604 646 604 610 q 605 699 605 681 q 626 717 610 713 q 654 720 642 720 q 651 483 654 602 l 643 247 q 637 9 640 127 q 637 -228 635 -110 q 621 -250 631 -239 q 597 -262 612 -262 q 578 -248 583 -262 q 574 -222 574 -235 z "},"z":{"ha":715,"x_min":22,"x_max":665,"o":"m 87 47 l 420 666 l 71 551 l 62 551 q 35 563 47 551 q 22 590 22 575 q 32 606 22 604 q 54 614 42 609 l 464 738 q 471 739 465 738 q 480 739 477 739 q 513 707 513 739 q 499 665 513 681 q 464 628 486 650 l 164 94 l 213 94 l 637 220 q 659 182 652 199 q 661 153 665 164 q 643 139 656 142 q 605 141 629 136 l 151 16 q 139 14 148 15 q 126 14 130 14 q 100 18 113 14 q 87 39 87 22 l 87 47 z "},"{":{"ha":433,"x_min":16,"x_max":388,"o":"m 95 123 q 111 227 95 176 q 153 323 127 277 q 208 413 178 370 q 263 495 237 456 q 228 498 247 496 q 193 507 209 500 q 165 527 176 514 q 153 564 153 540 q 160 618 153 595 q 189 670 167 640 q 134 666 164 667 q 79 673 104 665 q 35 701 53 681 q 16 758 16 720 q 29 832 16 795 q 64 906 42 869 q 113 977 85 943 q 168 1043 140 1012 q 220 1101 195 1074 q 263 1146 245 1127 q 267 1147 264 1146 q 273 1147 270 1147 q 296 1128 286 1147 q 220 1036 258 1078 q 153 950 183 994 q 105 857 123 906 q 87 745 87 808 q 172 753 132 745 q 256 761 213 761 q 277 760 262 761 q 296 758 292 758 q 305 742 300 755 q 311 723 311 728 q 294 689 307 704 q 268 659 282 674 q 243 627 254 643 q 232 591 232 612 q 233 585 232 589 q 233 581 233 582 q 272 579 252 579 q 307 574 292 579 q 333 556 323 568 q 343 519 343 544 l 343 507 q 342 495 343 498 q 275 415 309 456 q 215 330 241 374 q 172 238 189 286 q 155 134 155 190 l 155 117 q 155 93 155 106 q 156 68 156 80 l 156 54 q 172 20 163 31 q 193 4 182 9 q 219 -2 205 -1 q 248 -3 233 -3 q 287 -1 270 -3 q 319 7 304 1 q 351 24 335 14 q 387 54 368 35 q 388 43 388 52 l 388 35 q 372 -9 388 11 q 332 -42 355 -28 q 283 -63 308 -56 q 241 -71 258 -71 q 175 -56 202 -71 q 130 -14 148 -41 q 104 49 113 14 q 95 123 95 84 z "},"|":{"ha":205,"x_min":15,"x_max":175,"o":"m 15 802 l 15 819 q 16 840 15 830 q 24 859 18 850 q 39 867 30 867 q 54 863 46 867 q 64 848 61 859 q 87 613 80 732 q 110 377 95 494 q 119 321 114 357 q 129 250 123 285 q 138 188 134 214 q 142 157 141 161 q 147 140 142 153 q 158 110 152 126 q 168 80 164 94 q 174 62 172 66 q 174 55 174 61 q 175 46 175 49 q 170 20 175 30 q 142 0 164 9 q 119 29 126 7 q 110 62 113 52 l 16 770 q 16 785 16 773 q 15 802 15 796 z "},"}":{"ha":433,"x_min":23,"x_max":404,"o":"m 165 -54 q 180 -22 165 -37 q 216 9 194 -7 q 262 44 237 26 q 307 85 286 62 q 342 138 328 109 q 357 208 357 168 q 330 275 357 248 q 267 319 302 302 q 193 345 231 336 q 136 359 156 354 q 134 376 134 363 q 133 396 133 389 q 143 435 133 419 q 165 465 153 450 q 189 493 178 479 q 199 529 199 507 q 189 554 199 548 q 165 561 179 560 q 135 559 152 562 q 104 558 118 556 q 81 570 91 560 q 71 602 71 579 q 71 606 71 604 q 72 610 72 609 q 95 637 79 617 q 128 681 111 658 q 161 725 145 704 q 183 754 176 746 q 193 771 184 757 q 211 802 201 785 q 230 836 221 819 q 245 861 239 852 q 258 885 254 876 q 262 907 262 894 q 254 952 262 926 q 229 987 247 978 l 218 987 q 202 988 212 987 q 184 989 193 989 l 174 989 q 110 979 140 989 q 47 970 80 970 q 28 981 34 970 q 23 1006 23 993 q 32 1036 23 1023 q 54 1059 41 1050 q 81 1074 66 1069 q 110 1080 96 1080 q 187 1071 151 1080 q 251 1042 224 1062 q 294 989 278 1021 q 311 907 311 956 q 310 880 311 897 q 308 861 309 863 l 183 646 l 183 625 l 212 625 q 243 621 228 625 q 268 605 258 616 q 278 575 278 594 q 270 536 278 555 q 252 502 262 518 q 235 468 243 486 q 227 430 227 450 q 227 422 227 427 q 229 414 228 416 q 300 378 267 399 q 355 330 332 358 q 391 267 378 302 q 404 186 404 231 q 386 101 404 146 q 338 18 368 56 q 273 -47 309 -20 q 199 -73 236 -73 q 178 -71 191 -73 q 165 -54 165 -68 z "},"~":{"ha":684,"x_min":85,"x_max":628,"o":"m 90 741 q 95 812 85 777 q 125 876 104 848 q 176 919 145 903 q 248 932 208 935 q 311 909 283 932 q 364 861 338 887 q 419 814 391 836 q 487 792 448 792 q 540 808 519 792 q 575 842 560 823 q 602 876 590 860 q 628 891 613 891 q 586 780 628 812 q 480 747 544 747 q 404 767 434 747 q 348 810 373 787 q 298 854 323 834 q 241 873 274 873 q 197 858 214 873 q 168 819 179 842 q 152 768 157 796 q 144 719 146 741 q 128 707 137 713 q 110 701 119 701 q 94 715 98 701 q 90 741 90 730 z "},"":{"ha":625,"x_min":0,"x_max":0,"o":""},"":{"ha":195,"x_min":28,"x_max":170,"o":"m 83 735 q 84 700 83 724 q 84 645 84 675 l 84 516 q 84 460 84 484 q 83 424 83 436 q 78 387 81 415 q 70 323 75 359 q 58 243 64 286 q 46 164 52 201 q 36 99 40 127 q 31 63 33 72 q 30 56 31 62 q 30 48 30 50 q 36 30 30 38 q 56 23 42 23 q 83 37 74 23 q 105 206 93 118 q 127 384 117 294 q 144 564 137 474 q 151 738 151 654 q 115 761 151 761 q 90 757 101 761 q 83 735 80 752 m 99 962 q 110 946 99 951 q 133 941 121 941 q 163 950 157 941 q 170 974 170 958 q 165 996 170 985 q 143 1008 161 1008 q 125 1002 133 1008 q 111 990 117 997 q 102 974 105 982 q 99 962 99 966 z "},"":{"ha":471,"x_min":39,"x_max":437,"o":"m 172 734 l 172 750 q 174 771 172 761 q 182 789 176 781 q 197 798 187 798 q 211 793 203 798 q 221 780 218 789 q 231 680 228 726 q 237 590 235 633 q 287 637 262 618 q 335 655 312 655 q 344 629 347 647 q 326 585 340 610 q 289 526 311 559 q 243 458 267 494 q 247 419 244 439 q 251 377 250 399 q 278 227 262 298 q 307 98 294 156 q 349 133 330 114 q 383 170 368 152 q 412 198 399 187 q 437 209 425 209 q 403 103 437 146 q 317 35 369 60 q 320 -50 326 -19 q 285 -85 315 -81 q 268 -50 274 -80 q 258 11 262 -19 q 164 -1 213 -1 q 101 20 126 -1 q 62 72 76 41 q 44 140 49 103 q 39 209 39 176 q 52 257 39 221 q 85 339 64 293 q 134 437 106 385 q 194 534 163 490 l 174 701 q 173 715 174 703 q 172 734 172 727 m 194 60 q 250 68 225 60 l 209 410 q 144 302 174 357 q 104 200 114 248 q 113 115 95 152 q 194 60 132 79 z "},"":{"ha":865,"x_min":28,"x_max":844,"o":"m 28 77 q 30 111 28 92 q 38 145 31 129 q 58 174 45 161 q 95 189 72 186 l 298 220 q 306 233 300 220 q 315 251 312 245 q 323 275 317 258 q 331 298 328 293 q 332 362 331 317 q 336 456 334 407 q 342 551 339 506 q 347 614 345 595 q 356 664 349 632 q 378 726 363 696 q 414 779 393 757 q 465 802 435 802 q 493 787 480 802 q 515 753 506 773 q 530 714 525 734 q 536 684 536 694 q 523 655 536 669 q 495 642 510 642 q 487 644 487 642 l 457 724 q 420 683 433 709 q 401 625 407 656 q 395 563 396 594 q 393 509 393 532 q 393 499 393 507 q 393 481 392 491 q 397 465 393 472 q 408 457 400 457 l 534 457 l 552 439 q 519 414 544 420 q 469 406 495 408 q 420 398 442 403 q 395 377 397 393 l 362 220 l 377 205 q 418 195 378 202 q 514 177 458 187 q 628 157 570 167 q 724 141 686 146 q 741 140 726 141 q 764 140 757 140 q 789 143 780 140 q 806 151 799 146 q 821 158 812 155 q 844 161 829 161 q 829 103 844 129 q 781 77 815 77 q 681 87 730 77 q 583 111 632 98 q 486 134 534 123 q 385 145 437 145 q 336 134 358 145 q 297 107 315 123 q 263 72 279 91 q 229 37 247 53 q 187 9 210 20 q 133 -1 164 -1 q 91 2 110 -1 q 58 14 72 5 q 36 37 43 22 q 28 77 28 53 m 76 79 q 81 60 76 66 q 96 51 87 54 q 115 47 104 47 q 134 46 125 46 q 178 56 156 46 q 218 81 199 66 q 249 117 236 96 q 267 157 262 137 l 237 157 q 190 155 217 157 q 137 146 163 153 q 94 123 111 140 q 76 79 76 107 z "},"":{"ha":669,"x_min":69,"x_max":616,"o":"m 199 103 q 201 116 199 107 q 205 125 203 125 l 232 176 q 197 210 210 189 q 175 258 183 232 q 165 313 167 285 q 163 369 163 342 q 165 460 163 407 q 180 566 167 514 q 136 608 157 587 q 100 652 115 629 q 77 696 84 674 q 73 741 69 718 l 92 738 q 135 692 104 724 q 201 620 165 659 q 256 686 222 659 q 347 712 290 712 q 439 700 403 712 q 498 665 476 688 q 509 682 505 675 q 515 693 513 689 q 527 715 519 703 q 544 738 534 727 q 565 755 553 749 q 591 758 576 761 l 582 713 q 558 670 572 693 q 528 620 544 647 q 540 565 537 595 q 543 502 543 534 q 532 404 543 456 q 498 307 521 353 q 554 253 524 281 q 616 197 585 225 q 611 184 616 191 q 599 170 606 176 q 584 159 591 164 q 570 155 576 153 q 565 156 567 155 q 562 157 563 157 q 549 174 557 163 q 529 199 541 184 q 502 231 517 213 q 472 263 487 248 q 397 191 441 220 q 293 163 353 163 l 285 163 l 245 87 l 209 61 q 196 80 195 66 q 199 103 197 94 m 369 647 q 289 623 321 647 q 237 562 256 600 q 213 477 218 524 q 212 385 208 430 q 230 300 216 339 q 265 239 244 262 q 313 215 286 216 q 372 245 340 214 q 437 344 403 277 q 506 526 471 411 q 484 557 498 537 q 452 597 469 578 q 413 632 434 617 q 369 647 392 647 z "},"":{"ha":612,"x_min":9,"x_max":604,"o":"m 9 1160 q 47 1183 30 1190 q 72 1160 64 1177 q 95 1116 79 1145 q 132 1049 111 1086 q 174 971 152 1012 q 217 893 197 930 q 253 826 237 856 q 277 783 269 796 q 290 763 281 776 q 309 737 298 750 q 330 713 319 724 q 350 701 340 703 l 354 701 q 357 704 357 701 l 498 1270 l 560 1238 q 496 1087 521 1169 q 453 920 472 1005 q 418 755 434 836 q 384 605 403 674 q 387 579 384 604 l 437 579 q 477 576 457 579 q 513 565 498 574 q 529 540 529 556 q 519 522 529 526 q 498 517 510 517 q 441 517 468 517 q 389 521 415 518 q 392 492 392 507 l 392 460 l 586 457 q 600 448 595 457 q 604 433 604 439 q 591 407 604 419 q 563 395 579 395 q 538 411 547 395 l 469 411 q 431 410 450 411 q 392 410 412 410 q 388 243 392 340 q 378 16 384 146 q 368 3 377 5 q 354 1 359 0 q 326 15 338 3 q 316 43 315 27 q 335 66 317 57 q 336 79 335 69 q 337 100 336 90 q 338 121 338 111 q 339 137 339 132 q 340 176 339 149 q 343 241 342 203 q 345 321 345 278 q 346 408 346 365 q 241 404 293 406 q 145 401 190 401 q 115 433 115 401 q 121 456 115 448 q 148 464 126 464 l 345 461 q 344 495 345 479 q 342 526 343 511 q 254 532 298 530 q 151 532 209 534 q 134 556 134 540 l 134 560 q 136 564 134 562 q 238 573 190 570 q 335 579 286 576 q 324 625 332 616 q 233 751 279 678 q 144 900 186 825 q 66 1044 102 975 q 9 1160 30 1114 z "},"":{"ha":205,"x_min":15,"x_max":175,"o":"m 103 419 q 119 289 109 354 q 142 157 130 224 q 147 140 142 153 q 158 110 152 126 q 168 80 164 94 q 174 62 172 66 q 174 55 174 61 q 175 46 175 49 q 170 20 175 30 q 142 0 164 9 q 119 29 126 7 q 110 62 113 52 l 60 414 l 103 419 m 16 770 q 16 785 16 773 q 15 802 15 796 l 15 819 q 16 840 15 830 q 24 859 18 850 q 39 867 30 867 q 54 863 46 867 q 64 848 61 859 q 73 770 68 815 q 82 675 77 724 q 90 578 87 625 q 96 498 94 530 l 16 770 z "},"":{"ha":606,"x_min":72,"x_max":570,"o":"m 142 -24 q 145 3 142 -9 q 154 19 148 15 q 169 19 160 23 q 191 -3 178 15 q 248 0 216 -3 q 316 9 281 3 q 386 26 351 15 q 447 56 420 38 q 490 99 473 73 q 506 159 506 125 q 475 209 506 193 q 395 234 444 225 q 292 251 347 243 q 190 277 237 259 q 111 330 142 296 q 79 427 79 365 q 94 500 79 469 q 144 557 109 530 q 176 581 153 566 q 226 616 198 597 q 284 658 254 636 q 343 699 315 680 q 249 715 297 705 q 161 744 201 726 q 97 796 122 762 q 72 884 72 830 q 87 958 72 928 q 138 1015 103 989 q 189 1053 152 1025 q 269 1110 227 1080 q 351 1167 312 1141 q 406 1203 389 1194 q 413 1204 408 1203 q 420 1204 418 1204 q 454 1173 454 1204 q 430 1141 454 1158 q 368 1104 406 1124 q 288 1060 331 1084 q 207 1009 244 1036 q 145 950 170 982 q 121 882 121 918 q 141 825 121 842 q 201 795 161 808 q 224 785 202 792 q 276 770 245 779 q 342 753 307 762 q 408 736 377 745 q 460 723 438 728 q 483 716 481 718 q 541 674 518 696 q 564 614 564 652 q 545 545 564 576 q 492 487 525 513 q 419 442 460 461 q 336 410 378 423 q 254 391 294 397 q 183 384 213 384 q 155 385 168 384 q 133 389 142 385 q 158 358 140 369 q 206 336 176 347 q 262 321 222 332 q 348 297 302 309 q 433 273 393 285 q 490 259 473 262 q 547 216 525 237 q 570 156 570 195 q 550 86 570 118 q 498 30 530 54 q 425 -14 467 5 q 342 -47 384 -34 q 260 -66 300 -60 q 189 -72 220 -72 q 151 -64 159 -72 q 142 -24 142 -56 m 433 681 q 366 642 408 663 q 281 595 324 620 q 201 541 239 570 q 142 477 163 511 q 199 461 164 465 q 274 460 235 457 q 354 474 313 463 q 427 505 395 486 q 479 552 458 525 q 500 616 500 579 q 481 656 500 640 q 433 681 463 671 z "},"":{"ha":425,"x_min":71,"x_max":334,"o":"m 71 888 q 83 927 71 910 q 118 944 95 944 q 154 936 140 944 q 168 903 168 928 q 150 853 168 876 q 103 830 132 830 q 85 836 91 830 q 75 851 79 842 q 71 870 72 860 q 71 888 71 880 m 237 888 q 249 927 237 910 q 283 944 260 944 q 319 936 305 944 q 334 903 334 928 q 315 853 334 876 q 269 830 297 830 q 251 836 258 830 q 241 851 244 842 q 237 870 237 860 q 237 888 237 880 z "},"":{"ha":738,"x_min":61,"x_max":688,"o":"m 61 449 q 85 608 72 530 q 130 747 98 686 q 220 844 161 807 q 381 880 278 880 q 524 836 465 880 q 618 724 582 791 q 671 580 655 656 q 688 437 688 503 q 656 299 688 365 q 570 182 624 233 q 445 100 517 130 q 294 69 373 69 q 181 106 225 69 q 110 197 137 142 q 72 316 83 252 q 61 433 61 380 l 61 449 m 106 435 q 115 332 106 388 q 148 228 125 275 q 211 149 171 180 q 312 117 251 117 q 427 140 373 117 q 522 202 480 164 q 593 289 564 240 q 633 388 621 338 q 578 322 613 353 q 504 269 544 292 q 422 234 464 247 q 345 221 381 221 q 277 245 305 221 q 233 305 250 270 q 208 381 216 340 q 201 454 201 422 q 209 494 201 468 q 231 552 217 519 q 266 618 245 585 q 311 680 286 652 q 363 724 335 707 q 420 742 391 742 q 376 677 406 713 q 319 598 347 640 q 271 513 292 556 q 248 427 250 469 q 271 346 247 385 q 357 274 294 307 q 446 299 403 274 q 525 358 488 324 q 591 424 562 392 q 642 468 621 456 q 625 585 640 521 q 578 705 610 650 q 496 796 547 760 q 374 833 446 833 q 283 814 323 833 q 214 763 244 795 q 163 690 184 731 q 130 605 142 650 q 111 516 117 560 q 106 435 106 472 z "},"":{"ha":345,"x_min":22,"x_max":308,"o":"m 22 493 q 26 530 22 508 q 40 577 31 553 q 62 626 48 601 q 93 670 75 650 q 132 702 110 690 q 181 714 155 714 q 173 699 181 706 q 155 686 165 692 q 135 673 145 679 q 120 662 124 667 q 90 626 103 646 q 67 586 77 607 q 52 544 57 565 q 46 501 46 522 q 48 492 46 498 q 52 478 49 485 q 58 467 54 472 q 67 462 62 462 l 69 462 q 71 462 70 462 q 102 496 89 478 q 123 534 114 514 q 139 574 132 554 q 151 614 145 595 q 153 632 153 620 q 154 654 153 643 q 162 673 156 665 q 182 681 167 681 q 188 681 185 681 q 192 680 192 681 q 236 612 218 640 q 267 566 254 584 q 287 537 279 547 q 298 521 294 527 q 303 514 302 516 q 305 511 305 512 q 306 503 305 509 q 307 492 307 498 q 308 480 308 486 q 308 473 308 475 q 293 474 301 473 q 281 480 285 474 l 192 620 l 185 626 q 177 605 182 620 q 164 574 171 591 q 152 543 157 558 q 144 523 146 529 q 133 501 140 515 q 117 473 127 487 q 95 448 107 458 q 67 438 82 438 q 46 444 55 438 q 32 458 38 450 q 24 477 27 467 q 22 493 22 486 z "},"":{"ha":800,"x_min":68,"x_max":724,"o":"m 288 412 q 275 429 274 418 q 278 448 275 439 q 305 492 285 469 q 354 538 326 514 q 415 588 382 562 q 477 644 448 614 q 530 706 506 673 q 566 777 555 739 q 569 777 567 777 q 572 776 571 776 q 586 768 582 774 q 590 755 590 762 q 587 739 590 747 q 583 724 585 731 q 572 686 578 700 q 548 652 566 673 q 511 612 537 640 q 456 553 486 585 q 401 495 427 522 q 363 457 374 468 q 374 450 366 456 q 391 439 382 445 q 408 430 400 434 l 420 425 q 454 410 431 420 q 505 387 476 400 q 566 361 534 374 q 626 335 597 347 q 678 312 655 323 q 712 298 701 301 q 724 281 724 290 q 720 262 723 273 q 680 240 713 229 q 658 250 666 244 q 637 269 650 255 l 288 412 m 81 372 q 68 387 68 376 q 72 407 69 399 q 99 450 79 429 q 148 496 119 472 q 209 546 176 519 q 271 602 241 572 q 323 665 300 631 q 359 736 347 699 q 362 736 359 736 q 366 735 365 735 q 380 726 376 732 q 384 713 384 720 q 381 697 384 705 q 377 682 378 689 q 366 644 372 658 q 342 610 359 631 q 305 571 331 600 q 250 512 279 543 q 195 454 221 481 q 157 416 168 427 q 168 409 160 414 q 185 399 176 404 q 202 388 194 393 l 213 384 q 248 369 225 378 q 299 347 270 359 q 359 319 328 334 q 420 293 391 305 q 471 271 449 281 q 506 256 494 260 q 517 241 518 250 q 514 221 517 232 q 473 199 506 189 q 452 208 460 202 q 431 227 444 213 l 81 372 z "},"":{"ha":774,"x_min":95,"x_max":669,"o":"m 612 237 q 611 264 612 241 q 609 316 610 286 q 606 380 608 346 q 603 442 604 414 q 601 490 602 471 q 598 509 600 509 l 96 503 l 95 568 l 126 570 q 204 572 156 571 q 312 576 252 574 q 430 579 372 578 q 538 582 488 581 q 616 585 587 583 q 647 572 637 587 q 656 537 656 557 l 669 243 q 652 233 662 237 q 635 231 646 231 q 612 237 625 231 z "},"":{"ha":688,"x_min":49,"x_max":666,"o":"m 68 606 q 140 614 99 612 q 225 620 182 617 q 309 625 269 623 q 381 628 350 627 q 401 629 384 628 q 439 630 418 629 q 481 631 460 631 l 543 631 q 583 630 562 631 q 622 629 604 629 q 648 628 640 628 q 660 615 654 627 q 665 597 666 604 q 652 579 665 591 q 633 567 640 567 q 585 568 617 567 q 509 568 552 568 l 332 568 q 258 568 290 568 q 209 567 225 567 q 155 563 182 564 q 100 559 127 562 q 90 558 98 559 q 75 557 83 557 q 59 555 66 556 q 49 555 52 555 q 52 585 49 567 q 68 606 54 602 z "},"":{"ha":647,"x_min":23,"x_max":591,"o":"m 23 377 q 36 490 30 433 q 52 604 42 548 q 78 711 61 661 q 125 800 95 762 q 202 860 156 837 q 316 883 248 883 q 414 859 372 883 q 488 796 457 836 q 537 706 518 757 q 568 601 556 655 q 585 493 579 547 q 590 396 590 439 q 568 258 591 328 q 503 130 545 189 q 397 35 460 72 q 256 -1 335 -1 q 144 35 189 -1 q 72 127 99 72 q 34 245 45 182 q 23 362 23 309 l 23 377 m 68 365 q 77 261 68 317 q 110 157 87 205 q 173 78 133 110 q 274 46 213 46 q 381 74 335 46 q 460 144 427 102 q 512 241 492 187 q 540 347 532 294 q 458 354 498 353 q 380 355 419 355 q 302 356 340 355 q 225 359 263 357 q 229 328 225 345 q 232 296 232 312 q 229 287 232 293 q 223 274 227 281 q 215 262 220 267 q 203 256 210 256 q 189 262 191 256 q 183 283 187 267 q 178 305 179 300 q 175 336 176 315 q 170 385 174 358 q 164 441 167 411 q 159 498 161 471 q 154 546 156 525 q 152 578 152 567 q 140 605 140 589 q 141 632 141 621 l 141 651 q 142 669 141 665 q 151 673 144 671 q 163 675 159 675 q 182 665 176 673 q 191 650 189 658 q 198 637 194 643 q 213 631 202 631 q 315 653 274 654 q 382 638 357 652 q 419 602 408 624 q 433 559 430 579 q 418 515 434 536 q 380 473 403 494 q 332 432 357 453 q 290 389 307 411 q 353 391 330 389 q 398 394 377 392 q 443 397 419 396 q 506 397 467 397 q 520 397 510 397 q 543 396 530 396 q 543 407 543 403 q 544 416 544 411 q 536 542 544 469 q 503 680 528 614 q 431 790 477 745 q 311 836 384 836 q 221 811 259 836 q 156 747 183 787 q 112 656 129 707 q 85 553 95 605 q 72 451 76 500 q 68 365 68 401 m 202 582 q 207 543 203 571 q 212 482 210 514 q 218 421 214 450 q 222 381 221 392 q 266 423 241 400 q 311 471 290 446 q 346 520 332 495 q 359 570 359 545 q 336 602 359 590 q 281 613 312 613 q 260 612 274 613 q 234 608 247 610 q 212 600 221 605 q 202 589 202 595 l 202 582 z "},"":{"ha":556,"x_min":65,"x_max":530,"o":"m 85 903 q 133 909 115 909 q 165 909 151 910 q 196 909 179 909 q 245 910 213 909 q 265 912 248 911 q 302 913 282 913 q 345 914 323 914 l 406 914 q 446 913 425 914 q 487 912 468 913 q 513 910 506 911 q 524 897 518 909 q 529 880 530 886 q 516 861 528 873 q 498 848 505 849 q 437 852 473 849 q 361 859 400 856 q 286 863 323 861 q 225 864 250 865 q 171 861 199 861 q 115 856 142 860 q 106 855 114 856 q 90 854 99 854 q 74 852 81 853 q 65 852 66 852 q 67 881 65 864 q 85 903 69 898 z "},"":{"ha":425,"x_min":62,"x_max":334,"o":"m 62 640 q 64 693 62 659 q 79 762 66 727 q 117 823 91 798 q 194 848 144 848 q 267 832 239 848 q 309 794 294 817 q 328 745 323 772 q 334 699 334 719 q 326 648 334 675 q 301 596 319 620 q 254 557 283 572 q 176 541 224 541 q 126 551 148 541 q 90 576 104 562 q 69 609 76 591 q 62 640 62 627 m 95 647 q 153 585 118 595 q 222 588 189 574 q 279 635 255 602 q 307 703 304 667 q 286 770 311 738 q 195 814 262 802 q 140 792 160 814 q 110 742 119 770 q 98 686 100 713 q 95 647 95 658 z "},"":{"ha":574,"x_min":22,"x_max":514,"o":"m 79 111 q 64 136 62 119 l 64 140 q 65 142 64 140 q 149 157 107 146 q 229 171 191 168 q 226 201 228 182 q 221 241 224 221 q 216 280 218 262 q 213 307 213 298 q 212 326 212 315 q 210 347 212 338 q 202 363 208 357 q 184 370 197 370 q 119 361 151 370 q 54 353 87 353 q 22 384 22 353 q 22 395 22 388 q 25 409 23 403 q 31 420 27 415 q 41 425 34 425 l 180 425 q 189 433 183 425 q 197 448 194 442 l 197 454 q 188 578 197 517 q 179 704 179 640 q 217 672 203 704 q 238 598 231 640 q 249 513 245 556 q 260 448 252 469 l 274 448 q 337 453 309 448 q 391 464 365 458 q 440 470 416 469 q 490 464 464 471 q 511 451 514 457 q 490 439 509 445 q 440 428 471 433 q 376 416 410 423 q 311 402 343 410 q 260 384 279 395 q 268 336 263 363 q 276 279 273 309 q 282 222 279 250 q 285 174 285 194 q 313 175 300 175 l 376 175 q 416 172 396 175 q 452 160 437 168 q 467 136 468 152 q 456 117 467 122 q 433 111 446 111 q 343 113 384 111 q 262 115 302 114 q 177 115 221 115 q 79 111 133 114 z "},"":{"ha":416,"x_min":18,"x_max":368,"o":"m 186 699 q 185 707 186 702 q 184 719 185 713 q 184 731 184 726 q 183 739 183 737 q 176 747 181 746 q 165 748 172 748 q 138 741 150 748 q 116 725 125 735 q 99 703 107 715 q 82 682 90 692 q 64 666 73 672 q 42 659 54 659 q 34 660 38 659 q 26 661 29 660 q 20 666 22 662 q 20 675 18 669 q 49 713 35 696 q 81 743 64 730 q 120 764 98 756 q 171 772 142 772 q 210 756 200 772 q 220 715 220 739 q 209 644 220 681 q 181 570 197 607 q 145 499 164 534 q 111 438 125 465 l 111 430 l 337 493 q 341 494 338 493 q 347 494 345 494 q 357 493 352 494 q 364 486 363 492 q 366 478 365 483 q 368 469 367 473 q 368 458 368 463 l 283 458 l 73 385 q 91 464 73 426 q 129 541 108 502 q 168 618 150 579 q 186 699 186 657 z "},"":{"ha":347,"x_min":22,"x_max":320,"o":"m 142 416 q 124 425 127 416 q 121 444 122 434 q 121 457 121 450 q 124 469 122 463 q 132 480 127 476 q 146 487 137 485 l 146 450 q 157 448 151 449 q 164 447 160 448 q 172 448 169 447 q 218 463 198 451 q 253 492 238 475 q 274 528 267 508 q 281 566 281 547 l 281 572 q 281 582 281 578 q 280 592 280 587 q 280 597 280 596 q 259 611 272 608 q 232 614 245 614 q 178 605 203 614 q 131 584 153 596 q 89 564 108 573 q 52 554 70 554 l 52 591 q 68 609 58 597 q 91 638 78 622 q 117 673 104 654 q 144 707 131 691 q 166 736 157 723 q 180 756 176 750 q 187 765 183 758 l 204 793 q 211 803 209 799 q 201 804 209 803 q 192 804 194 804 q 153 796 171 804 q 117 779 134 788 q 82 763 99 770 q 47 755 65 755 q 29 759 37 755 q 22 771 22 762 q 36 789 22 780 q 71 804 50 797 q 118 817 92 811 q 168 827 144 823 q 212 833 192 831 q 241 835 232 835 q 258 835 247 835 q 270 835 269 835 q 276 831 273 834 q 280 827 280 828 q 276 820 280 826 q 270 811 273 814 q 256 793 267 806 q 231 762 245 780 q 201 724 217 744 q 171 686 185 703 q 145 654 157 668 q 132 637 134 641 q 127 629 130 635 q 122 621 123 623 q 151 630 139 627 q 176 635 164 633 q 201 637 188 637 q 229 637 213 637 q 296 624 271 637 q 321 575 321 610 q 308 518 321 546 q 270 466 295 489 q 213 430 246 444 q 142 416 180 416 z "},"":{"ha":311,"x_min":64,"x_max":252,"o":"m 95 842 l 77 831 q 67 855 64 838 q 73 883 71 872 q 77 898 75 887 q 83 914 80 909 q 102 941 91 924 q 125 975 114 958 q 149 1006 137 991 q 167 1031 160 1021 q 181 1048 174 1039 q 199 1065 189 1057 q 219 1077 209 1073 q 239 1080 229 1081 q 245 1076 241 1078 q 252 1073 250 1074 l 95 842 z "},"":{"ha":552,"x_min":20,"x_max":530,"o":"m 354 -8 q 277 24 312 -3 q 214 90 243 52 q 161 176 184 129 q 121 271 138 224 q 90 362 103 319 q 71 438 77 406 q 71 307 68 373 q 78 165 75 241 q 84 -4 81 88 q 84 -214 87 -96 q 55 -218 69 -216 q 35 -208 41 -220 l 20 646 l 88 648 q 109 599 100 644 q 129 487 118 553 q 155 345 140 420 q 196 205 171 270 q 260 97 221 140 q 354 54 298 54 q 390 88 376 60 q 412 153 404 117 q 425 226 420 190 q 431 278 429 262 q 432 319 431 292 q 433 382 433 347 l 433 529 q 432 591 433 564 q 431 631 431 618 q 447 654 437 642 q 469 666 457 666 l 471 665 l 473 665 q 477 665 475 665 q 479 622 477 651 q 482 556 481 593 q 485 479 483 519 q 488 403 487 439 q 491 338 490 366 q 494 296 492 309 q 503 229 496 266 q 515 155 509 193 q 526 85 521 118 q 530 28 530 52 q 524 -2 530 5 q 503 4 518 -9 q 494 25 499 7 q 483 64 488 43 q 473 100 477 85 q 468 111 469 115 q 447 58 458 83 q 421 15 435 33 q 390 -9 407 -3 q 354 -8 373 -16 z "},"":{"ha":593,"x_min":42,"x_max":515,"o":"m 433 18 q 433 161 429 84 q 444 319 437 239 q 457 478 450 399 q 465 628 464 557 q 447 623 457 623 q 427 625 437 623 q 404 632 415 628 q 405 620 404 631 q 406 583 406 609 q 406 513 407 557 q 399 401 404 469 q 385 237 395 334 q 359 7 374 140 l 315 0 q 304 10 307 1 q 303 31 302 19 q 307 52 304 42 q 309 66 309 62 q 313 154 309 111 q 319 238 316 197 q 327 321 323 279 q 331 408 331 363 q 330 433 331 415 q 330 457 330 450 q 279 443 301 449 q 235 433 256 437 q 190 426 213 429 q 140 423 167 423 q 65 451 88 423 q 42 526 42 479 q 99 680 42 633 q 260 726 156 726 q 303 725 275 726 q 360 722 331 724 q 417 714 389 719 q 464 701 445 709 q 498 691 481 701 q 513 661 514 681 q 514 589 515 636 q 509 484 513 543 q 503 362 506 426 q 497 240 500 298 q 494 135 494 182 q 495 64 494 88 l 495 54 q 492 39 495 49 q 484 21 490 30 q 471 6 479 12 q 457 0 464 0 q 433 18 441 0 z "},"":{"ha":311,"x_min":66,"x_max":240,"o":"m 66 335 q 88 395 66 369 q 152 420 110 420 q 215 408 190 420 q 240 359 240 395 q 232 317 240 338 q 208 281 224 297 q 171 255 191 264 q 125 245 151 245 q 92 254 103 245 q 75 277 80 263 q 68 306 69 290 q 66 335 66 321 z "},"":{"ha":464,"x_min":152,"x_max":401,"o":"m 189 -335 q 189 -313 189 -323 q 193 -299 190 -302 q 201 -298 197 -296 q 213 -316 206 -301 q 257 -311 231 -316 q 309 -293 283 -307 q 351 -254 334 -279 q 369 -187 369 -228 q 353 -144 369 -157 q 313 -124 336 -132 q 262 -111 290 -117 q 212 -89 235 -104 q 172 -45 189 -73 q 156 34 156 -18 q 159 87 152 77 q 173 88 165 96 q 184 62 180 80 q 179 31 189 43 q 190 -16 179 -1 q 218 -39 201 -30 q 248 -54 227 -43 q 291 -73 269 -64 q 334 -92 313 -83 q 361 -104 354 -102 q 390 -138 378 -119 q 401 -189 401 -156 q 380 -269 401 -235 q 329 -327 359 -304 q 266 -361 298 -350 q 210 -373 233 -373 q 192 -366 195 -373 q 189 -335 189 -359 z "},"":{"ha":157,"x_min":20,"x_max":98,"o":"m 55 433 q 52 459 54 441 q 48 498 51 476 q 44 544 46 520 q 39 590 41 569 q 36 630 37 612 q 34 656 35 648 q 26 702 31 680 q 21 748 21 724 q 44 743 33 748 q 55 730 56 739 q 60 698 56 720 q 67 649 63 677 q 77 592 72 622 q 86 534 82 561 q 94 485 90 507 q 99 453 97 463 l 99 449 q 97 443 99 446 q 90 435 94 439 q 82 428 87 431 q 72 425 77 425 q 55 433 60 425 z "},"":{"ha":425,"x_min":62,"x_max":334,"o":"m 62 640 q 64 693 62 659 q 79 762 66 727 q 117 823 91 798 q 194 848 144 848 q 267 832 239 848 q 309 794 294 817 q 328 745 323 772 q 334 699 334 719 q 326 648 334 675 q 301 596 319 620 q 254 557 283 572 q 176 541 224 541 q 126 551 148 541 q 90 576 104 562 q 69 609 76 591 q 62 640 62 627 m 95 647 q 153 585 118 595 q 222 588 189 574 q 279 635 255 602 q 307 703 304 667 q 286 770 311 738 q 195 814 262 802 q 140 792 160 814 q 110 742 119 770 q 98 686 100 713 q 95 647 95 658 z "},"":{"ha":680,"x_min":11,"x_max":586,"o":"m 331 99 q 332 111 331 103 q 334 122 332 119 l 446 236 q 475 264 468 256 q 485 277 479 270 q 496 292 491 285 q 503 305 500 298 l 506 311 l 208 594 l 255 594 l 377 503 q 446 451 411 477 q 513 400 481 425 q 568 359 545 376 q 583 348 579 351 q 586 335 586 345 l 585 331 l 585 327 q 576 311 582 323 q 568 297 571 298 l 365 60 q 361 58 362 58 l 358 58 q 335 72 339 58 q 331 99 331 85 m 136 85 q 136 98 136 90 q 138 109 137 106 l 208 178 q 251 222 231 201 q 278 251 271 243 q 289 264 283 256 q 299 279 294 271 q 307 292 304 286 l 311 298 l 11 581 l 58 581 l 180 490 q 250 437 214 464 q 317 387 285 411 q 372 346 349 362 q 386 334 382 336 q 389 321 389 331 l 388 317 l 388 313 q 380 297 385 309 q 372 282 374 285 l 168 46 q 164 45 165 45 l 161 45 q 140 58 144 45 q 136 85 136 72 z "},"":{"ha":769,"x_min":22,"x_max":722,"o":"m 536 62 q 534 79 536 66 q 530 107 532 92 q 528 135 529 122 q 525 152 526 148 q 522 174 522 165 q 520 186 522 182 q 514 191 518 190 q 499 193 510 193 q 454 186 476 193 q 409 172 431 179 q 366 158 387 164 q 323 152 345 152 q 304 159 312 152 q 296 176 296 167 l 296 183 q 398 321 353 250 q 479 469 444 393 q 478 499 473 487 q 505 511 483 511 q 519 508 514 511 q 525 490 524 505 l 548 271 q 553 245 551 250 q 567 241 555 241 q 632 252 601 241 q 690 262 663 262 q 713 252 704 262 q 722 232 722 243 q 720 219 722 225 q 709 212 718 213 q 634 213 674 213 q 559 202 594 213 l 559 197 q 565 143 559 170 q 571 91 571 117 q 572 80 571 87 q 571 66 572 73 q 566 56 570 60 q 555 52 563 52 q 536 62 541 52 m 103 28 q 109 48 103 39 q 121 66 114 57 l 342 791 q 359 812 345 799 q 387 826 373 826 l 387 774 q 363 697 380 750 q 327 578 347 644 l 243 297 q 208 177 224 229 q 184 99 191 125 q 178 68 179 84 q 173 37 176 53 q 161 9 170 22 q 137 -11 153 -4 q 130 -5 134 -9 q 121 3 126 -1 q 111 13 115 8 q 104 19 106 18 q 103 23 103 20 l 103 28 m 69 414 q 62 460 66 427 q 54 532 58 494 q 45 603 49 570 q 39 650 41 636 q 28 699 35 674 q 22 749 22 724 q 55 743 39 749 q 69 728 71 738 q 77 694 72 718 q 87 643 81 671 q 100 582 94 614 q 113 521 107 549 q 124 469 119 492 q 132 434 129 445 l 132 431 q 120 416 132 425 q 92 407 109 407 q 69 414 77 407 m 376 209 q 411 211 388 209 q 458 218 434 213 q 498 229 481 224 q 514 241 515 235 l 490 401 l 376 222 l 376 209 z "},"":{"ha":917,"x_min":22,"x_max":842,"o":"m 137 22 q 142 43 137 34 q 153 62 146 53 l 373 787 q 391 808 376 793 q 420 822 407 822 l 420 770 q 396 692 412 745 q 359 572 380 640 l 274 292 q 239 172 255 225 q 216 94 224 119 q 211 63 213 79 q 205 33 209 47 q 193 5 201 18 q 168 -16 186 -8 q 152 -1 164 -14 q 138 15 140 11 q 137 18 137 18 l 137 22 m 606 372 q 606 393 606 376 q 604 415 605 410 q 596 423 602 422 q 581 425 590 425 q 530 410 549 425 q 494 376 510 395 q 462 341 479 357 q 420 326 445 326 q 400 328 411 326 q 395 345 389 330 q 431 387 412 366 q 472 421 450 407 q 522 444 494 435 q 589 453 551 453 q 639 435 625 453 q 652 388 652 416 q 637 310 652 351 q 601 227 623 269 q 555 148 579 186 q 511 79 530 110 l 511 68 l 802 140 q 808 140 803 140 q 815 141 812 141 q 829 140 822 141 q 838 133 836 140 q 840 123 840 127 q 841 113 840 118 q 842 100 841 106 l 734 100 l 461 18 q 484 109 461 65 q 534 195 506 152 q 584 280 562 237 q 606 372 606 323 m 66 369 q 60 422 64 384 q 51 503 56 460 q 43 584 46 545 q 38 639 39 623 q 28 694 35 666 q 22 749 22 722 q 52 743 38 749 q 66 727 66 738 q 71 689 66 715 q 81 630 76 663 q 93 561 87 597 q 105 492 99 525 q 115 432 111 458 q 121 393 118 406 l 121 387 q 111 370 121 381 q 87 359 102 359 q 66 369 73 359 z "},"":{"ha":996,"x_min":20,"x_max":937,"o":"m 146 353 q 127 363 130 353 q 124 384 125 373 q 124 399 124 391 q 127 414 125 407 q 135 426 130 421 q 150 434 140 432 l 150 391 q 161 389 155 390 q 169 388 164 389 q 177 389 173 388 q 225 406 203 393 q 260 439 246 420 q 283 481 275 458 q 290 525 290 503 l 290 532 q 290 544 290 538 q 289 554 289 549 q 289 561 289 560 q 267 577 280 574 q 239 581 253 581 q 183 570 209 581 q 134 546 157 560 q 90 522 110 533 q 53 512 71 512 l 53 553 q 69 575 58 560 q 93 608 79 589 q 120 648 106 627 q 148 687 134 668 q 171 721 161 706 q 186 744 181 737 q 193 754 188 746 l 210 786 q 217 798 216 794 q 207 799 215 799 q 197 799 200 799 q 157 790 176 799 q 120 771 138 781 q 84 752 101 760 q 48 743 66 743 q 29 747 37 743 q 21 761 21 751 q 36 782 21 772 q 72 799 50 792 q 121 814 94 807 q 173 826 148 821 q 218 833 198 830 q 248 835 239 835 q 266 835 255 835 q 279 835 278 835 q 285 830 281 834 q 289 825 289 827 q 285 817 289 824 q 279 807 281 810 q 264 786 275 802 q 238 750 253 771 q 207 706 224 730 q 175 663 190 683 q 149 627 161 643 q 135 607 138 611 q 130 598 133 604 q 125 589 126 591 q 155 599 142 596 q 181 605 169 603 q 206 607 194 607 q 236 607 219 607 q 306 592 279 607 q 332 535 332 576 q 318 469 332 502 q 279 410 304 437 q 220 368 254 384 q 146 353 186 353 m 282 50 q 287 70 282 61 q 300 90 292 79 l 519 812 q 537 835 521 822 q 566 848 553 848 l 566 798 q 542 719 557 772 q 505 600 526 666 l 420 319 q 386 199 401 251 q 362 121 370 146 q 357 90 358 106 q 351 59 355 75 q 340 31 347 43 q 315 11 332 18 q 308 16 312 12 l 288 35 q 283 42 285 41 q 282 46 282 45 l 282 50 m 758 25 q 756 44 758 31 q 752 71 754 57 q 749 98 750 85 q 746 116 747 111 q 743 137 743 130 q 741 150 742 145 q 736 155 740 154 q 721 156 732 156 q 676 150 698 156 q 634 136 655 143 q 592 121 612 128 q 550 115 571 115 q 531 123 540 115 q 522 141 522 131 q 522 143 522 142 q 523 146 523 145 q 623 287 578 214 q 701 438 668 360 q 701 466 697 453 q 725 480 706 480 q 739 476 735 480 q 746 457 744 472 l 768 237 q 773 210 770 215 q 787 206 775 206 q 819 209 803 206 q 851 216 836 212 q 880 224 865 221 q 909 227 895 227 q 929 217 921 227 q 938 196 938 207 q 935 185 938 190 q 924 176 933 179 q 851 177 890 178 q 779 167 813 176 l 779 160 q 786 107 779 133 q 792 53 792 81 q 792 42 792 49 q 791 29 792 35 q 787 18 790 23 q 774 14 783 14 q 758 25 763 14 m 601 174 q 635 176 611 174 q 680 183 658 178 q 719 193 703 188 q 735 206 736 199 l 712 367 l 601 186 l 601 174 z "},"":{"ha":522,"x_min":12,"x_max":513,"o":"m 460 171 q 448 125 460 145 q 418 90 437 104 q 376 70 400 77 q 326 63 353 63 q 243 73 279 63 q 177 103 207 84 q 122 150 147 122 q 67 212 97 178 q 58 213 64 212 q 49 213 52 213 q 25 207 37 213 q 12 186 12 201 q 48 110 12 142 q 134 56 84 77 q 237 24 184 34 q 323 13 290 13 q 467 55 420 13 q 513 186 513 97 q 491 298 513 245 q 438 402 469 351 q 379 502 408 452 q 334 607 349 553 q 320 622 331 617 q 297 627 310 627 q 273 628 284 628 l 258 628 q 273 547 258 585 q 310 473 288 509 q 359 402 333 436 q 407 330 385 367 q 445 255 429 294 q 460 171 460 216 m 317 804 q 317 784 313 791 q 327 774 320 777 q 343 769 334 770 q 359 769 353 769 q 390 773 374 769 q 406 796 406 777 q 400 811 406 803 q 385 825 394 818 q 366 835 376 831 q 353 837 357 838 q 332 823 345 835 q 317 804 319 810 z "},"":{"ha":731,"x_min":5,"x_max":686,"o":"m 33 -64 q 15 -57 20 -64 q 7 -40 9 -50 q 7 -18 5 -30 q 8 0 8 -7 l 245 1006 q 257 1033 248 1019 q 275 1054 266 1047 q 288 1029 279 1042 q 308 1006 296 1016 l 685 142 q 686 136 686 141 l 686 127 q 681 104 686 114 q 662 94 675 94 q 637 110 644 94 l 543 330 q 526 333 543 331 q 499 335 509 335 q 484 334 494 335 q 463 333 473 334 q 443 331 452 332 q 433 330 434 330 q 352 315 401 324 q 255 296 302 307 q 173 278 208 286 q 136 267 138 270 l 56 -46 q 47 -60 54 -56 q 33 -64 41 -64 m 275 913 q 272 903 274 909 q 267 889 270 897 q 263 875 264 882 q 260 865 262 868 q 240 780 251 830 l 193 567 q 172 465 180 511 q 157 385 163 419 q 151 342 151 351 q 203 345 170 342 q 276 353 237 347 q 355 366 315 359 q 427 382 395 373 q 479 402 458 392 q 499 423 499 412 q 498 432 499 426 q 496 441 498 438 l 275 913 m 259 1322 q 267 1326 260 1324 q 274 1329 273 1328 q 296 1326 285 1331 q 318 1315 308 1322 q 337 1299 328 1308 q 353 1283 346 1291 q 373 1259 361 1274 q 399 1227 385 1244 q 425 1195 412 1210 q 445 1171 437 1180 q 451 1155 448 1166 q 456 1139 454 1143 q 462 1114 457 1130 q 452 1089 467 1097 l 431 1100 l 259 1322 z "},"":{"ha":731,"x_min":5,"x_max":686,"o":"m 33 -64 q 15 -57 20 -64 q 7 -40 9 -50 q 7 -18 5 -30 q 8 0 8 -7 l 245 1006 q 257 1033 248 1019 q 275 1054 266 1047 q 288 1029 279 1042 q 308 1006 296 1016 l 685 142 q 686 136 686 141 l 686 127 q 681 104 686 114 q 662 94 675 94 q 637 110 644 94 l 543 330 q 526 333 543 331 q 499 335 509 335 q 484 334 494 335 q 463 333 473 334 q 443 331 452 332 q 433 330 434 330 q 352 315 401 324 q 255 296 302 307 q 173 278 208 286 q 136 267 138 270 l 56 -46 q 47 -60 54 -56 q 33 -64 41 -64 m 275 913 q 272 903 274 909 q 267 889 270 897 q 263 875 264 882 q 260 865 262 868 q 240 780 251 830 l 193 567 q 172 465 180 511 q 157 385 163 419 q 151 342 151 351 q 203 345 170 342 q 276 353 237 347 q 355 366 315 359 q 427 382 395 373 q 479 402 458 392 q 499 423 499 412 q 498 432 499 426 q 496 441 498 438 l 275 913 m 191 1105 l 174 1095 q 163 1118 160 1101 q 170 1146 167 1135 q 174 1161 171 1150 q 179 1177 176 1172 q 199 1204 187 1187 q 222 1238 210 1221 q 245 1270 233 1255 q 263 1294 256 1284 q 277 1311 270 1302 q 295 1328 285 1320 q 315 1340 305 1336 q 335 1343 326 1344 q 342 1339 338 1341 q 349 1336 346 1337 l 191 1105 z "},"":{"ha":731,"x_min":5,"x_max":686,"o":"m 33 -64 q 15 -57 20 -64 q 7 -40 9 -50 q 7 -18 5 -30 q 8 0 8 -7 l 245 1006 q 257 1033 248 1019 q 275 1054 266 1047 q 288 1029 279 1042 q 308 1006 296 1016 l 685 142 q 686 136 686 141 l 686 127 q 681 104 686 114 q 662 94 675 94 q 637 110 644 94 l 543 330 q 526 333 543 331 q 499 335 509 335 q 484 334 494 335 q 463 333 473 334 q 443 331 452 332 q 433 330 434 330 q 352 315 401 324 q 255 296 302 307 q 173 278 208 286 q 136 267 138 270 l 56 -46 q 47 -60 54 -56 q 33 -64 41 -64 m 275 913 q 272 903 274 909 q 267 889 270 897 q 263 875 264 882 q 260 865 262 868 q 240 780 251 830 l 193 567 q 172 465 180 511 q 157 385 163 419 q 151 342 151 351 q 203 345 170 342 q 276 353 237 347 q 355 366 315 359 q 427 382 395 373 q 479 402 458 392 q 499 423 499 412 q 498 432 499 426 q 496 441 498 438 l 275 913 m 141 1226 q 165 1278 151 1244 q 195 1350 179 1313 q 224 1421 210 1388 q 247 1476 239 1455 q 253 1501 251 1488 q 259 1527 255 1515 q 270 1546 263 1538 q 294 1554 277 1554 l 302 1554 q 309 1553 308 1554 l 483 1340 q 524 1335 515 1348 q 533 1302 533 1321 q 524 1264 533 1284 q 491 1244 514 1244 q 439 1288 461 1263 q 398 1340 416 1313 q 366 1394 380 1367 q 339 1443 351 1421 q 324 1453 336 1447 q 309 1459 312 1459 q 300 1453 307 1459 q 293 1443 294 1447 l 172 1208 q 170 1207 172 1207 l 165 1207 q 141 1226 149 1207 z "},"":{"ha":731,"x_min":5,"x_max":686,"o":"m 33 -64 q 15 -57 20 -64 q 7 -40 9 -50 q 7 -18 5 -30 q 8 0 8 -7 l 245 1006 q 257 1033 248 1019 q 275 1054 266 1047 q 288 1029 279 1042 q 308 1006 296 1016 l 685 142 q 686 136 686 141 l 686 127 q 681 104 686 114 q 662 94 675 94 q 637 110 644 94 l 543 330 q 526 333 543 331 q 499 335 509 335 q 484 334 494 335 q 463 333 473 334 q 443 331 452 332 q 433 330 434 330 q 352 315 401 324 q 255 296 302 307 q 173 278 208 286 q 136 267 138 270 l 56 -46 q 47 -60 54 -56 q 33 -64 41 -64 m 275 913 q 272 903 274 909 q 267 889 270 897 q 263 875 264 882 q 260 865 262 868 q 240 780 251 830 l 193 567 q 172 465 180 511 q 157 385 163 419 q 151 342 151 351 q 203 345 170 342 q 276 353 237 347 q 355 366 315 359 q 427 382 395 373 q 479 402 458 392 q 499 423 499 412 q 498 432 499 426 q 496 441 498 438 l 275 913 m 60 1161 q 65 1233 56 1198 q 95 1296 75 1268 q 146 1339 115 1324 q 218 1352 178 1355 q 281 1330 254 1352 q 334 1282 308 1308 q 389 1234 361 1256 q 457 1213 418 1213 q 510 1228 490 1213 q 545 1262 530 1244 q 572 1296 560 1280 q 598 1312 583 1312 q 556 1200 598 1233 q 450 1168 514 1168 q 374 1187 404 1168 q 318 1231 343 1207 q 269 1274 293 1255 q 212 1294 244 1294 q 167 1278 184 1294 q 138 1240 149 1263 q 122 1189 127 1217 q 114 1139 117 1161 q 98 1128 107 1134 q 80 1122 90 1122 q 64 1136 68 1122 q 60 1161 60 1150 z "},"":{"ha":731,"x_min":5,"x_max":686,"o":"m 33 -64 q 15 -57 20 -64 q 7 -40 9 -50 q 7 -18 5 -30 q 8 0 8 -7 l 245 1006 q 257 1033 248 1019 q 275 1054 266 1047 q 288 1029 279 1042 q 308 1006 296 1016 l 685 142 q 686 136 686 141 l 686 127 q 681 104 686 114 q 662 94 675 94 q 637 110 644 94 l 543 330 q 526 333 543 331 q 499 335 509 335 q 484 334 494 335 q 463 333 473 334 q 443 331 452 332 q 433 330 434 330 q 352 315 401 324 q 255 296 302 307 q 173 278 208 286 q 136 267 138 270 l 56 -46 q 47 -60 54 -56 q 33 -64 41 -64 m 275 913 q 272 903 274 909 q 267 889 270 897 q 263 875 264 882 q 260 865 262 868 q 240 780 251 830 l 193 567 q 172 465 180 511 q 157 385 163 419 q 151 342 151 351 q 203 345 170 342 q 276 353 237 347 q 355 366 315 359 q 427 382 395 373 q 479 402 458 392 q 499 423 499 412 q 498 432 499 426 q 496 441 498 438 l 275 913 m 130 1199 q 142 1238 130 1221 q 178 1255 155 1255 q 214 1246 199 1255 q 228 1214 228 1238 q 210 1164 228 1187 q 163 1141 191 1141 q 144 1147 151 1141 q 135 1162 138 1153 q 131 1181 132 1171 q 130 1199 130 1191 m 297 1199 q 309 1238 297 1221 q 343 1255 320 1255 q 379 1246 365 1255 q 393 1214 393 1238 q 375 1164 393 1187 q 328 1141 357 1141 q 311 1147 317 1141 q 300 1162 304 1153 q 297 1181 297 1171 q 297 1199 297 1191 z "},"":{"ha":731,"x_min":5,"x_max":686,"o":"m 152 1127 q 153 1179 152 1145 q 166 1249 155 1214 q 205 1309 178 1283 q 282 1335 232 1335 q 355 1319 327 1335 q 397 1281 382 1303 q 417 1232 412 1259 q 422 1185 422 1206 q 415 1135 422 1162 q 390 1083 408 1107 q 342 1043 372 1059 q 286 1028 319 1031 q 308 1006 296 1016 l 685 142 q 686 136 686 141 l 686 127 q 681 104 686 114 q 662 94 675 94 q 637 110 644 94 l 543 330 q 526 333 543 331 q 499 335 509 335 q 484 334 494 335 q 463 333 473 334 q 443 331 452 332 q 433 330 434 330 q 352 315 401 324 q 255 296 302 307 q 173 278 208 286 q 136 267 138 270 l 56 -46 q 47 -60 54 -56 q 33 -64 41 -64 q 15 -57 20 -64 q 7 -40 9 -50 q 7 -18 5 -30 q 8 0 8 -7 l 245 1006 q 254 1028 247 1016 q 214 1038 232 1029 q 178 1063 193 1047 q 158 1095 164 1078 q 152 1127 152 1112 m 275 913 q 272 903 274 909 q 267 889 270 897 q 263 875 264 882 q 260 865 262 868 q 240 780 251 830 l 193 567 q 172 465 180 511 q 157 385 163 419 q 151 342 151 351 q 203 345 170 342 q 276 353 237 347 q 355 366 315 359 q 427 382 395 373 q 479 402 458 392 q 499 423 499 412 q 498 432 499 426 q 496 441 498 438 l 275 913 m 183 1134 q 241 1071 206 1082 q 310 1074 277 1059 q 368 1121 343 1089 q 395 1190 392 1153 q 373 1257 397 1226 q 283 1299 349 1287 q 228 1278 248 1299 q 198 1227 208 1256 q 186 1171 189 1199 q 183 1134 183 1143 z "},"":{"ha":1130,"x_min":33,"x_max":1095,"o":"m 46 23 q 34 37 35 28 q 35 56 33 46 q 43 75 38 65 q 53 91 49 84 l 576 968 q 600 991 590 986 q 618 990 610 996 q 629 971 625 985 q 633 941 633 958 l 629 808 q 685 820 652 811 q 751 839 718 829 q 817 859 785 849 q 875 872 849 868 l 884 872 q 913 865 901 872 q 925 840 925 857 q 924 832 925 837 q 922 825 924 827 q 851 818 891 823 q 770 804 811 812 q 692 779 730 795 q 628 738 654 762 l 620 393 l 624 384 l 970 526 q 1008 519 998 524 q 1017 509 1019 515 q 1006 494 1016 502 q 985 479 996 487 q 917 448 966 469 q 812 401 868 426 q 708 353 757 376 q 640 321 659 331 q 627 313 631 320 q 623 296 624 305 q 622 280 621 288 q 623 269 623 273 q 629 216 623 244 q 638 153 635 187 q 637 81 642 119 q 612 -1 633 42 q 610 -8 613 -3 q 606 -15 608 -14 q 591 -36 601 -28 q 570 -37 582 -43 q 555 -11 555 -30 l 553 263 q 533 266 553 262 q 481 274 513 270 q 413 283 450 278 q 342 290 376 288 q 283 289 309 292 q 250 278 258 286 l 76 30 q 62 20 69 20 q 46 23 54 20 m 566 869 q 507 768 536 823 q 452 659 479 713 q 400 554 425 605 q 357 462 376 503 q 324 393 338 420 q 305 358 311 365 q 376 339 332 346 q 463 330 420 332 q 536 333 506 328 q 567 349 567 338 l 567 374 q 559 572 562 491 q 555 705 556 652 q 556 786 555 757 q 559 831 557 815 q 562 854 560 848 q 566 869 564 861 m 1095 133 q 1057 122 1082 129 q 999 106 1031 115 q 931 86 967 96 q 863 66 895 76 q 804 50 830 57 q 765 39 777 42 q 719 22 734 30 l 694 9 q 671 3 685 5 q 628 1 658 1 q 635 48 628 34 q 671 69 642 62 l 1077 183 l 1095 133 z "},"":{"ha":590,"x_min":22,"x_max":562,"o":"m 235 -373 q 236 -351 235 -361 q 240 -337 237 -340 q 248 -336 243 -334 q 259 -354 252 -339 q 303 -349 277 -354 q 355 -331 330 -345 q 397 -292 380 -317 q 415 -225 415 -266 q 399 -182 415 -195 q 360 -161 384 -170 q 309 -147 336 -153 q 258 -126 281 -141 q 218 -83 235 -111 q 202 -4 202 -56 q 201 1 202 0 q 129 30 160 8 q 63 114 87 64 q 31 224 39 164 q 22 339 22 283 q 26 414 22 365 q 39 520 30 463 q 64 637 49 578 q 104 744 80 696 q 161 823 127 792 q 237 854 194 854 q 230 821 237 834 q 212 795 222 807 q 189 770 201 783 q 164 738 176 757 q 121 644 140 694 q 91 541 103 593 q 74 435 79 488 q 69 330 69 381 q 73 254 69 294 q 87 177 76 214 q 119 109 98 140 q 180 62 141 79 l 198 62 q 224 62 210 62 q 250 61 237 61 l 267 61 q 321 64 283 61 q 398 75 359 66 q 467 101 437 84 q 496 149 496 118 q 487 180 496 165 q 477 213 477 194 q 506 207 491 213 q 533 191 521 201 q 553 169 545 182 q 562 141 562 156 q 543 96 562 117 q 496 60 525 76 q 431 32 467 43 q 359 13 395 20 q 292 2 323 5 q 243 -1 262 -1 l 228 -1 l 225 -7 q 236 -54 225 -39 q 264 -77 247 -68 q 294 -92 274 -81 q 337 -111 315 -102 q 380 -130 359 -121 q 408 -141 400 -140 q 436 -176 425 -157 q 448 -227 448 -194 q 427 -307 448 -273 q 375 -365 406 -342 q 312 -399 345 -388 q 256 -411 279 -411 q 238 -404 241 -411 q 235 -373 235 -397 z "},"":{"ha":636,"x_min":54,"x_max":605,"o":"m 54 677 l 54 848 q 66 850 57 849 q 79 850 76 850 q 98 845 92 850 q 106 833 103 840 q 112 822 109 827 q 125 817 115 817 q 180 825 146 817 q 250 845 213 834 q 322 866 286 856 q 384 880 358 876 l 395 880 q 422 873 411 880 q 434 848 434 865 q 433 841 434 846 q 433 834 433 836 q 353 826 397 831 q 262 809 308 821 q 178 777 217 798 q 117 724 140 757 l 117 635 q 117 567 117 604 q 120 496 118 530 q 125 435 122 463 q 134 393 129 407 l 480 534 q 519 528 509 532 q 528 517 529 524 q 516 503 526 510 q 495 487 506 495 q 427 456 476 479 q 323 409 378 434 q 218 361 267 384 q 151 330 170 339 q 136 321 140 328 q 132 307 133 315 q 132 290 132 298 q 133 277 133 281 q 142 199 133 237 q 152 121 152 161 q 140 87 152 103 q 99 72 127 72 l 54 677 m 605 141 q 568 131 593 138 q 509 114 543 123 q 440 94 476 104 q 372 75 404 84 q 313 59 339 66 q 274 47 286 52 q 229 31 243 38 q 204 18 214 23 q 181 12 194 14 q 140 9 168 9 q 146 56 140 42 q 180 79 152 71 l 586 191 l 605 141 m 212 1322 q 219 1326 213 1324 q 227 1329 225 1328 q 249 1326 237 1331 q 271 1315 260 1322 q 290 1299 281 1308 q 305 1283 298 1291 q 326 1259 313 1274 q 351 1227 338 1244 q 377 1195 365 1210 q 397 1171 389 1180 q 404 1155 400 1166 q 408 1139 407 1143 q 414 1114 410 1130 q 404 1089 419 1097 l 384 1100 l 212 1322 z "},"":{"ha":636,"x_min":54,"x_max":605,"o":"m 54 677 l 54 848 q 66 850 57 849 q 79 850 76 850 q 98 845 92 850 q 106 833 103 840 q 112 822 109 827 q 125 817 115 817 q 180 825 146 817 q 250 845 213 834 q 322 866 286 856 q 384 880 358 876 l 395 880 q 422 873 411 880 q 434 848 434 865 q 433 841 434 846 q 433 834 433 836 q 353 826 397 831 q 262 809 308 821 q 178 777 217 798 q 117 724 140 757 l 117 635 q 117 567 117 604 q 120 496 118 530 q 125 435 122 463 q 134 393 129 407 l 480 534 q 519 528 509 532 q 528 517 529 524 q 516 503 526 510 q 495 487 506 495 q 427 456 476 479 q 323 409 378 434 q 218 361 267 384 q 151 330 170 339 q 136 321 140 328 q 132 307 133 315 q 132 290 132 298 q 133 277 133 281 q 142 199 133 237 q 152 121 152 161 q 140 87 152 103 q 99 72 127 72 l 54 677 m 605 141 q 568 131 593 138 q 509 114 543 123 q 440 94 476 104 q 372 75 404 84 q 313 59 339 66 q 274 47 286 52 q 229 31 243 38 q 204 18 214 23 q 181 12 194 14 q 140 9 168 9 q 146 56 140 42 q 180 79 152 71 l 586 191 l 605 141 m 258 1092 l 240 1081 q 230 1105 227 1088 q 236 1133 233 1122 q 240 1147 237 1137 q 245 1164 243 1158 q 265 1190 254 1173 q 288 1224 277 1207 q 311 1256 300 1241 q 330 1280 323 1271 q 344 1297 336 1289 q 361 1314 351 1306 q 382 1326 372 1322 q 401 1329 392 1331 q 408 1326 404 1328 q 415 1322 412 1324 l 258 1092 z "},"":{"ha":636,"x_min":54,"x_max":605,"o":"m 54 677 l 54 848 q 66 850 57 849 q 79 850 76 850 q 98 845 92 850 q 106 833 103 840 q 112 822 109 827 q 125 817 115 817 q 180 825 146 817 q 250 845 213 834 q 322 866 286 856 q 384 880 358 876 l 395 880 q 422 873 411 880 q 434 848 434 865 q 433 841 434 846 q 433 834 433 836 q 353 826 397 831 q 262 809 308 821 q 178 777 217 798 q 117 724 140 757 l 117 635 q 117 567 117 604 q 120 496 118 530 q 125 435 122 463 q 134 393 129 407 l 480 534 q 519 528 509 532 q 528 517 529 524 q 516 503 526 510 q 495 487 506 495 q 427 456 476 479 q 323 409 378 434 q 218 361 267 384 q 151 330 170 339 q 136 321 140 328 q 132 307 133 315 q 132 290 132 298 q 133 277 133 281 q 142 199 133 237 q 152 121 152 161 q 140 87 152 103 q 99 72 127 72 l 54 677 m 605 141 q 568 131 593 138 q 509 114 543 123 q 440 94 476 104 q 372 75 404 84 q 313 59 339 66 q 274 47 286 52 q 229 31 243 38 q 204 18 214 23 q 181 12 194 14 q 140 9 168 9 q 146 56 140 42 q 180 79 152 71 l 586 191 l 605 141 m 94 1099 q 117 1151 103 1116 q 147 1223 132 1185 q 177 1294 163 1260 q 199 1348 191 1328 q 205 1374 203 1360 q 212 1399 208 1388 q 222 1419 216 1411 q 247 1427 229 1427 l 255 1427 q 262 1426 260 1427 l 435 1213 q 477 1207 468 1221 q 486 1175 486 1194 q 476 1137 486 1157 q 444 1116 467 1116 q 391 1160 414 1135 q 351 1213 369 1185 q 318 1267 332 1240 q 292 1316 304 1294 q 277 1326 289 1320 q 262 1332 264 1332 q 253 1326 259 1332 q 245 1316 247 1320 l 125 1081 q 122 1080 125 1080 l 118 1080 q 94 1099 102 1080 z "},"":{"ha":636,"x_min":54,"x_max":605,"o":"m 54 677 l 54 848 q 66 850 57 849 q 79 850 76 850 q 98 845 92 850 q 106 833 103 840 q 112 822 109 827 q 125 817 115 817 q 180 825 146 817 q 250 845 213 834 q 322 866 286 856 q 384 880 358 876 l 395 880 q 422 873 411 880 q 434 848 434 865 q 433 841 434 846 q 433 834 433 836 q 353 826 397 831 q 262 809 308 821 q 178 777 217 798 q 117 724 140 757 l 117 635 q 117 567 117 604 q 120 496 118 530 q 125 435 122 463 q 134 393 129 407 l 480 534 q 519 528 509 532 q 528 517 529 524 q 516 503 526 510 q 495 487 506 495 q 427 456 476 479 q 323 409 378 434 q 218 361 267 384 q 151 330 170 339 q 136 321 140 328 q 132 307 133 315 q 132 290 132 298 q 133 277 133 281 q 142 199 133 237 q 152 121 152 161 q 140 87 152 103 q 99 72 127 72 l 54 677 m 605 141 q 568 131 593 138 q 509 114 543 123 q 440 94 476 104 q 372 75 404 84 q 313 59 339 66 q 274 47 286 52 q 229 31 243 38 q 204 18 214 23 q 181 12 194 14 q 140 9 168 9 q 146 56 140 42 q 180 79 152 71 l 586 191 l 605 141 m 186 1138 q 198 1177 186 1160 q 233 1194 210 1194 q 269 1185 255 1194 q 283 1153 283 1177 q 265 1103 283 1126 q 218 1080 247 1080 q 200 1086 206 1080 q 191 1101 194 1092 q 186 1120 187 1109 q 186 1138 186 1130 m 353 1138 q 364 1177 353 1160 q 399 1194 376 1194 q 435 1185 420 1194 q 449 1153 449 1177 q 431 1103 449 1126 q 384 1080 412 1080 q 366 1086 373 1080 q 356 1101 359 1092 q 353 1120 353 1109 q 353 1138 353 1130 z "},"":{"ha":164,"x_min":-22,"x_max":186,"o":"m 79 16 q 72 98 77 42 q 60 227 66 155 q 47 377 54 298 q 33 527 39 456 q 22 655 27 598 q 16 738 18 712 l 16 747 q 16 763 16 754 q 15 780 15 772 l 15 804 q 16 821 15 812 q 16 837 16 830 l 16 848 q 28 864 19 861 q 47 867 38 867 q 56 866 50 867 q 64 865 61 865 l 126 110 q 130 98 127 106 q 135 79 132 90 q 140 60 138 68 q 142 47 141 52 l 142 39 q 137 24 142 31 q 123 12 132 18 q 108 3 115 7 q 95 0 100 0 q 85 6 91 0 q 79 16 79 12 m -22 1322 q -14 1326 -20 1324 q -7 1329 -8 1328 q 16 1326 4 1331 q 37 1315 27 1322 q 56 1299 47 1308 q 72 1283 65 1291 q 92 1259 80 1274 q 118 1227 104 1244 q 144 1195 132 1210 q 164 1171 156 1180 q 170 1155 167 1166 q 175 1139 174 1143 q 181 1114 176 1130 q 171 1089 186 1097 l 151 1100 l -22 1322 z "},"":{"ha":164,"x_min":-5,"x_max":183,"o":"m 79 16 q 72 98 77 42 q 60 227 66 155 q 47 377 54 298 q 33 527 39 456 q 22 655 27 598 q 16 738 18 712 l 16 747 q 16 763 16 754 q 15 780 15 772 l 15 804 q 16 821 15 812 q 16 837 16 830 l 16 848 q 28 864 19 861 q 47 867 38 867 q 56 866 50 867 q 64 865 61 865 l 126 110 q 130 98 127 106 q 135 79 132 90 q 140 60 138 68 q 142 47 141 52 l 142 39 q 137 24 142 31 q 123 12 132 18 q 108 3 115 7 q 95 0 100 0 q 85 6 91 0 q 79 16 79 12 m 26 1092 l 8 1081 q -2 1105 -5 1088 q 4 1133 1 1122 q 8 1147 5 1137 q 14 1164 11 1158 q 33 1190 22 1173 q 56 1224 45 1207 q 79 1256 68 1241 q 98 1280 91 1271 q 112 1297 104 1289 q 130 1314 119 1306 q 150 1326 140 1322 q 170 1329 160 1331 q 176 1326 172 1328 q 183 1322 180 1324 l 26 1092 z "},"":{"ha":164,"x_min":-138,"x_max":254,"o":"m 79 16 q 72 98 77 42 q 60 227 66 155 q 47 377 54 298 q 33 527 39 456 q 22 655 27 598 q 16 738 18 712 l 16 747 q 16 763 16 754 q 15 780 15 772 l 15 804 q 16 821 15 812 q 16 837 16 830 l 16 848 q 28 864 19 861 q 47 867 38 867 q 56 866 50 867 q 64 865 61 865 l 126 110 q 130 98 127 106 q 135 79 132 90 q 140 60 138 68 q 142 47 141 52 l 142 39 q 137 24 142 31 q 123 12 132 18 q 108 3 115 7 q 95 0 100 0 q 85 6 91 0 q 79 16 79 12 m -138 1226 q -115 1278 -129 1244 q -85 1350 -100 1313 q -55 1421 -69 1388 q -33 1476 -41 1455 q -26 1501 -28 1488 q -20 1527 -24 1515 q -9 1546 -16 1538 q 15 1554 -3 1554 l 23 1554 q 30 1553 28 1554 l 203 1340 q 245 1335 236 1348 q 254 1302 254 1321 q 244 1264 254 1284 q 212 1244 235 1244 q 159 1288 182 1263 q 119 1340 137 1313 q 86 1394 100 1367 q 60 1443 72 1421 q 45 1453 57 1447 q 30 1459 33 1459 q 21 1453 27 1459 q 14 1443 15 1447 l -107 1208 q -110 1207 -107 1207 l -114 1207 q -138 1226 -130 1207 z "},"":{"ha":164,"x_min":-46,"x_max":217,"o":"m 79 16 q 72 98 77 42 q 60 227 66 155 q 47 377 54 298 q 33 527 39 456 q 22 655 27 598 q 16 738 18 712 l 16 747 q 16 763 16 754 q 15 780 15 772 l 15 804 q 16 821 15 812 q 16 837 16 830 l 16 848 q 28 864 19 861 q 47 867 38 867 q 56 866 50 867 q 64 865 61 865 l 126 110 q 130 98 127 106 q 135 79 132 90 q 140 60 138 68 q 142 47 141 52 l 142 39 q 137 24 142 31 q 123 12 132 18 q 108 3 115 7 q 95 0 100 0 q 85 6 91 0 q 79 16 79 12 m -46 1138 q -34 1177 -46 1160 q 1 1194 -22 1194 q 37 1185 23 1194 q 52 1153 52 1177 q 33 1103 52 1126 q -14 1080 15 1080 q -32 1086 -26 1080 q -41 1101 -38 1092 q -45 1120 -45 1109 q -46 1138 -46 1130 m 121 1138 q 132 1177 121 1160 q 167 1194 144 1194 q 203 1185 189 1194 q 217 1153 217 1177 q 199 1103 217 1126 q 152 1080 180 1080 q 134 1086 141 1080 q 124 1101 127 1092 q 121 1120 121 1109 q 121 1138 121 1130 z "},"":{"ha":677,"x_min":18,"x_max":646,"o":"m 42 404 q 20 436 22 420 q 30 465 18 452 q 66 488 42 477 q 118 507 90 499 l 94 787 q 81 793 91 787 q 60 806 71 799 q 39 823 49 814 q 30 841 30 833 q 43 861 30 849 q 72 885 56 873 q 103 905 88 897 q 125 914 118 914 q 150 905 145 914 q 155 882 155 895 q 156 855 155 869 q 172 834 157 841 q 273 778 220 807 q 379 714 326 749 q 481 640 433 680 q 566 554 529 601 q 624 454 602 507 q 646 336 646 400 q 613 216 646 277 q 530 108 581 156 q 418 29 480 60 q 298 -1 357 -1 q 265 9 281 -1 q 250 39 250 20 q 276 53 250 43 q 341 78 302 62 q 425 117 380 94 q 509 172 471 140 q 574 248 548 205 q 601 347 601 292 q 578 432 601 385 q 518 525 555 479 q 433 615 481 571 q 336 693 385 659 q 241 747 288 727 q 159 768 194 768 q 163 644 159 705 q 174 521 167 583 q 241 533 208 529 q 298 537 274 537 q 336 534 323 537 q 342 524 349 530 q 304 506 335 518 q 213 480 274 494 q 178 469 201 479 q 197 299 189 384 q 205 129 205 214 q 201 100 205 111 q 172 79 198 90 l 157 94 l 125 441 q 77 416 100 427 q 42 404 54 406 z "},"":{"ha":779,"x_min":14,"x_max":723,"o":"m 54 625 q 48 669 54 648 q 34 710 42 690 q 20 749 26 730 q 14 791 14 769 q 18 814 14 799 q 31 846 23 830 q 46 875 38 861 q 62 892 54 888 q 75 867 66 891 q 94 812 84 842 q 112 753 103 781 q 125 720 121 726 q 153 680 133 707 q 197 621 172 654 q 248 553 221 589 q 300 486 275 518 q 346 427 326 453 q 376 389 366 401 q 403 362 380 384 q 457 312 426 340 l 518 258 q 566 216 548 231 q 579 203 567 213 q 604 180 591 193 q 629 158 617 168 q 644 146 642 148 q 648 222 652 179 q 644 301 644 266 q 636 428 644 365 q 619 553 628 491 q 602 679 610 616 q 594 806 594 742 l 594 821 q 595 843 594 831 q 595 864 595 854 l 595 878 q 620 894 605 894 q 642 880 636 894 q 649 848 648 865 q 646 816 650 831 q 643 799 643 800 l 723 122 q 713 92 723 103 q 692 74 704 81 q 666 64 680 66 q 643 60 652 61 q 640 58 642 58 l 635 58 q 618 66 627 58 q 602 83 609 73 q 589 104 594 92 q 581 122 583 115 q 536 168 567 137 q 469 236 506 198 q 391 317 433 274 q 313 399 350 359 q 246 469 275 438 q 203 515 217 500 q 180 542 197 522 q 147 585 164 562 q 115 628 130 608 q 94 658 99 648 l 94 610 q 93 539 94 576 q 92 468 92 502 l 92 420 q 100 195 92 307 q 109 -30 109 84 l 109 -35 q 94 -52 106 -39 q 77 -66 83 -64 l 54 -50 l 54 625 m 125 990 q 130 1062 121 1027 q 160 1125 140 1097 q 212 1168 180 1153 q 283 1181 243 1184 q 346 1159 319 1181 q 399 1111 373 1137 q 454 1063 426 1085 q 522 1042 483 1042 q 575 1057 555 1042 q 610 1091 595 1073 q 637 1125 625 1109 q 663 1141 648 1141 q 621 1029 663 1062 q 515 997 579 997 q 439 1017 469 997 q 383 1060 408 1036 q 334 1103 358 1084 q 277 1123 309 1123 q 232 1107 250 1123 q 203 1069 214 1092 q 187 1018 193 1046 q 179 968 182 990 q 163 957 172 963 q 145 951 155 951 q 129 965 133 951 q 125 990 125 979 z "},"":{"ha":621,"x_min":23,"x_max":590,"o":"m 23 377 q 36 490 30 433 q 52 604 42 548 q 78 711 61 661 q 125 800 95 762 q 202 860 156 837 q 316 883 248 883 q 414 859 372 883 q 488 796 457 836 q 537 706 518 757 q 568 602 556 655 q 585 496 579 549 q 590 400 590 444 q 567 257 590 328 q 501 128 544 186 q 397 35 458 71 q 256 -1 335 -1 q 144 35 189 -1 q 72 127 99 72 q 34 245 45 182 q 23 362 23 309 l 23 377 m 68 365 q 77 261 68 317 q 110 157 87 205 q 173 78 133 110 q 274 46 213 46 q 397 83 346 46 q 481 174 448 119 q 529 294 514 229 q 544 416 544 359 q 536 542 544 469 q 503 680 528 614 q 431 790 477 745 q 311 836 384 836 q 221 811 259 836 q 156 747 183 787 q 112 656 129 707 q 85 553 95 605 q 72 451 76 500 q 68 365 68 401 m 205 1322 q 212 1326 206 1324 q 220 1329 218 1328 q 242 1326 231 1331 q 264 1315 254 1322 q 283 1299 274 1308 q 298 1283 292 1291 q 319 1259 307 1274 q 345 1227 331 1244 q 370 1195 358 1210 q 391 1171 382 1180 q 397 1155 393 1166 q 401 1139 400 1143 q 408 1114 403 1130 q 397 1089 412 1097 l 377 1100 l 205 1322 z "},"":{"ha":621,"x_min":23,"x_max":590,"o":"m 23 377 q 36 490 30 433 q 52 604 42 548 q 78 711 61 661 q 125 800 95 762 q 202 860 156 837 q 316 883 248 883 q 414 859 372 883 q 488 796 457 836 q 537 706 518 757 q 568 602 556 655 q 585 496 579 549 q 590 400 590 444 q 567 257 590 328 q 501 128 544 186 q 397 35 458 71 q 256 -1 335 -1 q 144 35 189 -1 q 72 127 99 72 q 34 245 45 182 q 23 362 23 309 l 23 377 m 68 365 q 77 261 68 317 q 110 157 87 205 q 173 78 133 110 q 274 46 213 46 q 397 83 346 46 q 481 174 448 119 q 529 294 514 229 q 544 416 544 359 q 536 542 544 469 q 503 680 528 614 q 431 790 477 745 q 311 836 384 836 q 221 811 259 836 q 156 747 183 787 q 112 656 129 707 q 85 553 95 605 q 72 451 76 500 q 68 365 68 401 m 250 1092 l 232 1081 q 222 1105 218 1088 q 228 1133 225 1122 q 232 1147 229 1137 q 237 1164 235 1158 q 257 1190 245 1173 q 280 1224 269 1207 q 303 1256 292 1241 q 321 1280 315 1271 q 336 1297 328 1289 q 353 1314 343 1306 q 374 1326 363 1322 q 393 1329 384 1331 q 400 1326 396 1328 q 407 1322 404 1324 l 250 1092 z "},"":{"ha":621,"x_min":23,"x_max":590,"o":"m 23 377 q 36 490 30 433 q 52 604 42 548 q 78 711 61 661 q 125 800 95 762 q 202 860 156 837 q 316 883 248 883 q 414 859 372 883 q 488 796 457 836 q 537 706 518 757 q 568 602 556 655 q 585 496 579 549 q 590 400 590 444 q 567 257 590 328 q 501 128 544 186 q 397 35 458 71 q 256 -1 335 -1 q 144 35 189 -1 q 72 127 99 72 q 34 245 45 182 q 23 362 23 309 l 23 377 m 68 365 q 77 261 68 317 q 110 157 87 205 q 173 78 133 110 q 274 46 213 46 q 397 83 346 46 q 481 174 448 119 q 529 294 514 229 q 544 416 544 359 q 536 542 544 469 q 503 680 528 614 q 431 790 477 745 q 311 836 384 836 q 221 811 259 836 q 156 747 183 787 q 112 656 129 707 q 85 553 95 605 q 72 451 76 500 q 68 365 68 401 m 83 1039 q 106 1091 92 1057 q 136 1163 121 1126 q 166 1234 152 1200 q 189 1289 180 1268 q 195 1314 193 1301 q 201 1339 197 1328 q 212 1359 205 1351 q 236 1367 218 1367 l 244 1367 q 251 1366 250 1367 l 425 1153 q 466 1147 457 1161 q 475 1115 475 1134 q 465 1077 475 1097 q 433 1057 456 1057 q 380 1101 403 1076 q 340 1153 358 1126 q 307 1207 321 1180 q 281 1256 293 1234 q 266 1266 278 1260 q 251 1272 254 1272 q 242 1266 248 1272 q 235 1256 236 1260 l 114 1021 q 111 1020 114 1020 l 107 1020 q 83 1039 91 1020 z "},"":{"ha":621,"x_min":23,"x_max":590,"o":"m 23 377 q 36 490 30 433 q 52 604 42 548 q 78 711 61 661 q 125 800 95 762 q 202 860 156 837 q 316 883 248 883 q 414 859 372 883 q 488 796 457 836 q 537 706 518 757 q 568 602 556 655 q 585 496 579 549 q 590 400 590 444 q 567 257 590 328 q 501 128 544 186 q 397 35 458 71 q 256 -1 335 -1 q 144 35 189 -1 q 72 127 99 72 q 34 245 45 182 q 23 362 23 309 l 23 377 m 68 365 q 77 261 68 317 q 110 157 87 205 q 173 78 133 110 q 274 46 213 46 q 397 83 346 46 q 481 174 448 119 q 529 294 514 229 q 544 416 544 359 q 536 542 544 469 q 503 680 528 614 q 431 790 477 745 q 311 836 384 836 q 221 811 259 836 q 156 747 183 787 q 112 656 129 707 q 85 553 95 605 q 72 451 76 500 q 68 365 68 401 m 49 990 q 54 1062 45 1027 q 84 1125 64 1097 q 136 1168 104 1153 q 208 1181 167 1184 q 270 1159 243 1181 q 323 1111 297 1137 q 378 1063 350 1085 q 446 1042 407 1042 q 499 1057 479 1042 q 534 1091 519 1073 q 561 1125 549 1109 q 587 1141 572 1141 q 545 1029 587 1062 q 439 997 503 997 q 363 1017 393 997 q 307 1060 332 1036 q 258 1103 282 1084 q 201 1123 233 1123 q 156 1107 174 1123 q 127 1069 138 1092 q 111 1018 117 1046 q 103 968 106 990 q 87 957 96 963 q 69 951 79 951 q 53 965 57 951 q 49 990 49 979 z "},"":{"ha":621,"x_min":23,"x_max":590,"o":"m 23 377 q 36 490 30 433 q 52 604 42 548 q 78 711 61 661 q 125 800 95 762 q 202 860 156 837 q 316 883 248 883 q 414 859 372 883 q 488 796 457 836 q 537 706 518 757 q 568 602 556 655 q 585 496 579 549 q 590 400 590 444 q 567 257 590 328 q 501 128 544 186 q 397 35 458 71 q 256 -1 335 -1 q 144 35 189 -1 q 72 127 99 72 q 34 245 45 182 q 23 362 23 309 l 23 377 m 68 365 q 77 261 68 317 q 110 157 87 205 q 173 78 133 110 q 274 46 213 46 q 397 83 346 46 q 481 174 448 119 q 529 294 514 229 q 544 416 544 359 q 536 542 544 469 q 503 680 528 614 q 431 790 477 745 q 311 836 384 836 q 221 811 259 836 q 156 747 183 787 q 112 656 129 707 q 85 553 95 605 q 72 451 76 500 q 68 365 68 401 m 178 1138 q 190 1177 178 1160 q 225 1194 202 1194 q 261 1185 247 1194 q 275 1153 275 1177 q 257 1103 275 1126 q 210 1080 239 1080 q 192 1086 198 1080 q 182 1101 186 1092 q 178 1120 179 1109 q 178 1138 178 1130 m 345 1138 q 356 1177 345 1160 q 391 1194 368 1194 q 427 1185 412 1194 q 441 1153 441 1177 q 422 1103 441 1126 q 376 1080 404 1080 q 358 1086 365 1080 q 348 1101 351 1092 q 345 1120 345 1109 q 345 1138 345 1130 z "},"":{"ha":621,"x_min":23,"x_max":590,"o":"m 130 -16 q 137 8 130 -3 q 152 30 141 18 q 142 35 146 31 q 72 127 99 72 q 34 245 45 182 q 23 362 23 309 l 23 377 q 36 490 30 433 q 52 604 42 548 q 78 711 61 661 q 125 800 95 762 q 202 860 156 837 q 316 883 248 883 q 414 859 372 883 l 429 850 l 442 891 q 464 917 444 901 q 503 933 484 933 l 503 872 q 479 806 494 848 q 487 796 481 800 q 537 706 518 757 q 568 602 556 655 q 585 496 579 549 q 590 400 590 444 q 567 257 590 328 q 501 128 544 186 q 397 35 458 71 q 256 -1 335 -1 q 222 1 237 -1 q 221 -5 221 -1 q 205 -39 216 -23 q 174 -62 195 -54 q 164 -56 170 -61 q 151 -44 159 -50 q 138 -33 144 -38 q 132 -24 133 -27 q 130 -20 130 -22 l 130 -16 m 68 365 q 77 261 68 317 q 110 157 87 205 q 170 80 132 111 l 412 804 q 311 836 372 836 q 221 811 259 836 q 156 747 183 787 q 112 656 129 707 q 85 553 95 605 q 72 451 76 500 q 68 365 68 401 m 274 46 q 397 83 346 46 q 481 174 448 119 q 529 294 514 229 q 544 416 544 359 q 536 542 544 469 q 502 678 528 614 q 461 754 486 722 q 422 636 445 701 q 368 470 396 556 q 313 304 339 384 q 266 161 286 224 q 236 68 245 99 q 231 50 233 60 q 274 46 251 46 z "},"":{"ha":590,"x_min":30,"x_max":552,"o":"m 79 251 q 73 315 77 273 q 64 412 69 358 q 55 526 60 467 q 45 640 50 586 q 37 738 41 694 q 31 802 33 781 q 31 817 31 804 q 30 834 30 830 l 79 834 q 82 779 80 817 q 87 696 84 742 q 94 597 91 650 q 100 499 96 545 q 106 416 103 453 q 110 361 109 378 q 123 267 114 320 q 153 169 132 214 q 209 92 175 123 q 296 61 243 61 q 374 90 340 61 q 430 163 407 118 q 467 264 453 209 q 490 374 481 320 q 503 473 499 427 q 506 544 506 518 q 496 672 506 612 q 486 795 486 732 q 496 814 486 810 q 518 819 506 819 q 526 819 521 819 q 534 818 532 818 q 545 764 543 788 q 550 719 548 741 q 552 674 552 697 l 552 624 q 550 523 552 585 q 540 392 548 461 q 515 253 532 323 q 469 126 498 183 q 394 34 439 69 q 285 -1 349 -1 q 201 22 237 -1 q 139 83 164 46 q 98 164 114 119 q 79 251 83 209 m 189 1322 q 196 1326 190 1324 q 203 1329 202 1328 q 226 1326 214 1331 q 248 1315 237 1322 q 267 1299 258 1308 q 282 1283 275 1291 q 302 1259 290 1274 q 328 1227 315 1244 q 354 1195 342 1210 q 374 1171 366 1180 q 380 1155 377 1166 q 385 1139 384 1143 q 391 1114 387 1130 q 381 1089 396 1097 l 361 1100 l 189 1322 z "},"":{"ha":590,"x_min":30,"x_max":552,"o":"m 79 251 q 73 315 77 273 q 64 412 69 358 q 55 526 60 467 q 45 640 50 586 q 37 738 41 694 q 31 802 33 781 q 31 817 31 804 q 30 834 30 830 l 79 834 q 82 779 80 817 q 87 696 84 742 q 94 597 91 650 q 100 499 96 545 q 106 416 103 453 q 110 361 109 378 q 123 267 114 320 q 153 169 132 214 q 209 92 175 123 q 296 61 243 61 q 374 90 340 61 q 430 163 407 118 q 467 264 453 209 q 490 374 481 320 q 503 473 499 427 q 506 544 506 518 q 496 672 506 612 q 486 795 486 732 q 496 814 486 810 q 518 819 506 819 q 526 819 521 819 q 534 818 532 818 q 545 764 543 788 q 550 719 548 741 q 552 674 552 697 l 552 624 q 550 523 552 585 q 540 392 548 461 q 515 253 532 323 q 469 126 498 183 q 394 34 439 69 q 285 -1 349 -1 q 201 22 237 -1 q 139 83 164 46 q 98 164 114 119 q 79 251 83 209 m 235 1092 l 217 1081 q 207 1105 203 1088 q 213 1133 210 1122 q 217 1147 214 1137 q 222 1164 220 1158 q 242 1190 231 1173 q 265 1224 254 1207 q 288 1256 277 1241 q 307 1280 300 1271 q 321 1297 313 1289 q 338 1314 328 1306 q 359 1326 349 1322 q 378 1329 369 1331 q 385 1326 381 1328 q 392 1322 389 1324 l 235 1092 z "},"":{"ha":590,"x_min":30,"x_max":552,"o":"m 79 251 q 73 315 77 273 q 64 412 69 358 q 55 526 60 467 q 45 640 50 586 q 37 738 41 694 q 31 802 33 781 q 31 817 31 804 q 30 834 30 830 l 79 834 q 82 779 80 817 q 87 696 84 742 q 94 597 91 650 q 100 499 96 545 q 106 416 103 453 q 110 361 109 378 q 123 267 114 320 q 153 169 132 214 q 209 92 175 123 q 296 61 243 61 q 374 90 340 61 q 430 163 407 118 q 467 264 453 209 q 490 374 481 320 q 503 473 499 427 q 506 544 506 518 q 496 672 506 612 q 486 795 486 732 q 496 814 486 810 q 518 819 506 819 q 526 819 521 819 q 534 818 532 818 q 545 764 543 788 q 550 719 548 741 q 552 674 552 697 l 552 624 q 550 523 552 585 q 540 392 548 461 q 515 253 532 323 q 469 126 498 183 q 394 34 439 69 q 285 -1 349 -1 q 201 22 237 -1 q 139 83 164 46 q 98 164 114 119 q 79 251 83 209 m 73 1226 q 97 1278 83 1244 q 127 1350 111 1313 q 157 1421 142 1388 q 179 1476 171 1455 q 185 1501 183 1488 q 191 1527 187 1515 q 202 1546 195 1538 q 227 1554 209 1554 l 235 1554 q 241 1553 240 1554 l 415 1340 q 456 1335 448 1348 q 465 1302 465 1321 q 456 1264 465 1284 q 423 1244 446 1244 q 371 1288 393 1263 q 330 1340 349 1313 q 298 1394 312 1367 q 271 1443 283 1421 q 256 1453 269 1447 q 241 1459 244 1459 q 233 1453 239 1459 q 225 1443 227 1447 l 104 1208 q 102 1207 104 1207 l 98 1207 q 73 1226 81 1207 z "},"":{"ha":590,"x_min":30,"x_max":552,"o":"m 79 251 q 73 315 77 273 q 64 412 69 358 q 55 526 60 467 q 45 640 50 586 q 37 738 41 694 q 31 802 33 781 q 31 817 31 804 q 30 834 30 830 l 79 834 q 82 779 80 817 q 87 696 84 742 q 94 597 91 650 q 100 499 96 545 q 106 416 103 453 q 110 361 109 378 q 123 267 114 320 q 153 169 132 214 q 209 92 175 123 q 296 61 243 61 q 374 90 340 61 q 430 163 407 118 q 467 264 453 209 q 490 374 481 320 q 503 473 499 427 q 506 544 506 518 q 496 672 506 612 q 486 795 486 732 q 496 814 486 810 q 518 819 506 819 q 526 819 521 819 q 534 818 532 818 q 545 764 543 788 q 550 719 548 741 q 552 674 552 697 l 552 624 q 550 523 552 585 q 540 392 548 461 q 515 253 532 323 q 469 126 498 183 q 394 34 439 69 q 285 -1 349 -1 q 201 22 237 -1 q 139 83 164 46 q 98 164 114 119 q 79 251 83 209 m 163 1138 q 175 1177 163 1160 q 210 1194 187 1194 q 246 1185 232 1194 q 260 1153 260 1177 q 242 1103 260 1126 q 195 1080 224 1080 q 177 1086 183 1080 q 168 1101 171 1092 q 163 1120 164 1109 q 163 1138 163 1130 m 330 1138 q 341 1177 330 1160 q 376 1194 353 1194 q 412 1185 397 1194 q 426 1153 426 1177 q 408 1103 426 1126 q 361 1080 389 1080 q 343 1086 350 1080 q 333 1101 336 1092 q 330 1120 330 1109 q 330 1138 330 1130 z "},"":{"ha":798,"x_min":-7,"x_max":773,"o":"m 728 1020 q 731 1065 713 1050 q 773 1080 749 1080 l 773 1005 l 675 -138 l 625 -113 l 728 1020 m -5 914 q -7 917 -7 914 l -7 921 q -1 938 -7 930 q 16 945 5 945 l 18 944 l 23 944 l 618 621 q 661 607 646 616 q 677 568 677 598 q 674 545 677 557 q 654 532 671 532 l 647 532 q 635 541 643 534 q 617 554 627 547 q 600 568 608 562 q 590 578 591 574 l -5 914 m 338 1092 l 320 1081 q 310 1105 307 1088 q 316 1133 313 1122 q 320 1147 317 1137 q 326 1164 323 1158 q 345 1190 334 1173 q 368 1224 357 1207 q 391 1256 380 1241 q 410 1280 403 1271 q 424 1297 416 1289 q 441 1314 431 1306 q 462 1326 452 1322 q 481 1329 472 1331 q 488 1326 484 1328 q 495 1322 492 1324 l 338 1092 z "},"":{"ha":511,"x_min":46,"x_max":492,"o":"m 46 1062 q 56 1081 46 1076 q 77 1086 66 1086 q 85 1085 79 1086 q 94 1084 91 1084 l 127 576 q 151 640 137 610 q 183 690 164 669 q 230 724 202 712 q 296 736 258 736 q 378 715 342 736 q 440 659 415 693 q 479 581 465 624 q 492 496 492 538 q 462 378 492 434 q 382 278 431 321 q 273 209 334 235 q 152 183 213 183 q 151 55 152 106 q 148 -28 151 4 q 140 -77 145 -61 q 128 -100 136 -94 q 111 -105 121 -106 q 90 -103 102 -104 q 80 64 84 -30 q 73 262 76 159 q 67 473 69 365 q 62 686 65 582 q 55 884 58 789 q 46 1053 52 978 l 46 1062 m 286 688 q 227 659 252 688 q 186 593 202 629 q 161 526 170 557 q 152 484 153 494 q 152 437 152 473 q 153 361 152 401 q 154 286 153 321 q 155 237 155 250 q 251 258 201 237 q 345 314 301 279 q 416 395 388 349 q 445 490 445 441 q 433 555 445 519 q 399 619 420 590 q 349 668 378 648 q 286 688 320 688 z "},"":{"ha":724,"x_min":91,"x_max":678,"o":"m 220 189 q 211 176 220 179 q 197 172 202 172 q 179 191 187 172 q 165 237 171 209 q 156 298 160 264 q 149 364 152 332 q 144 420 145 396 q 141 457 142 445 l 141 597 q 127 683 137 636 q 108 777 117 730 q 95 869 99 825 q 97 947 91 913 q 123 1003 103 982 q 186 1024 144 1024 q 282 1021 227 1024 q 387 1004 338 1019 q 470 958 435 990 q 505 865 505 925 q 485 776 505 819 q 437 692 465 732 q 375 616 408 652 q 313 551 342 579 q 441 531 376 544 q 559 488 506 518 q 645 408 612 457 q 678 282 678 359 q 653 199 678 240 q 586 120 628 159 q 492 48 544 81 q 385 -10 439 15 q 279 -50 331 -35 q 189 -64 228 -64 q 161 -58 175 -64 q 135 -43 146 -53 q 116 -20 123 -33 q 109 5 109 -8 q 111 31 109 18 q 126 47 113 43 q 139 21 132 35 q 157 0 146 7 l 168 0 q 185 -1 176 0 q 201 -1 194 -1 l 213 -1 q 287 10 244 -1 q 376 43 330 22 q 467 91 422 64 q 549 150 513 118 q 608 216 586 182 q 629 285 629 250 q 603 375 629 336 q 535 439 576 414 q 445 476 494 464 q 353 488 396 488 q 340 490 349 488 q 321 493 332 492 q 295 494 309 494 q 267 488 281 494 l 250 574 q 325 625 288 593 q 391 697 362 658 q 439 780 420 736 q 457 865 457 823 q 431 923 457 903 q 370 951 404 943 q 298 960 335 959 q 241 960 262 960 l 222 960 q 200 960 212 960 q 181 958 189 959 q 172 958 174 958 l 157 928 l 203 551 l 220 189 z "},"":{"ha":553,"x_min":22,"x_max":581,"o":"m 22 141 q 31 239 22 180 q 56 360 39 297 q 100 487 73 423 q 160 602 126 551 q 237 684 194 652 q 332 715 281 715 q 317 677 332 696 q 281 642 301 659 q 241 610 262 625 q 213 581 221 594 q 155 488 180 538 q 110 383 129 437 q 80 273 91 330 q 69 164 69 217 q 72 139 69 156 q 79 104 75 122 q 92 74 84 87 q 110 61 100 61 l 114 61 q 117 62 115 61 q 178 151 153 103 q 220 249 202 198 q 250 353 237 300 q 274 457 262 406 q 277 502 278 472 q 280 560 277 532 q 294 610 283 589 q 334 631 305 631 q 347 630 339 631 q 354 628 354 629 q 439 451 404 524 q 499 331 475 378 q 538 256 524 283 q 561 215 553 229 q 571 196 568 201 q 574 189 574 191 q 576 169 575 183 q 578 139 578 155 q 580 109 579 123 q 581 91 581 95 q 551 92 567 91 q 528 110 534 94 l 354 471 l 339 487 q 323 434 335 472 q 299 353 312 396 q 275 273 286 311 q 260 220 264 235 q 239 163 252 199 q 208 90 227 126 q 164 26 189 53 q 110 -1 140 -1 q 69 14 85 -1 q 42 53 53 30 q 26 100 31 76 q 22 141 22 125 m 170 1073 q 177 1076 171 1074 q 184 1080 183 1078 q 207 1077 195 1081 q 229 1065 218 1073 q 248 1050 239 1058 q 263 1034 256 1042 q 283 1009 271 1024 q 309 977 296 994 q 335 945 323 960 q 355 921 347 930 q 361 905 358 917 q 366 890 365 894 q 372 864 368 880 q 362 840 377 848 l 342 850 l 170 1073 z "},"":{"ha":553,"x_min":22,"x_max":581,"o":"m 22 141 q 31 239 22 180 q 56 360 39 297 q 100 487 73 423 q 160 602 126 551 q 237 684 194 652 q 332 715 281 715 q 317 677 332 696 q 281 642 301 659 q 241 610 262 625 q 213 581 221 594 q 155 488 180 538 q 110 383 129 437 q 80 273 91 330 q 69 164 69 217 q 72 139 69 156 q 79 104 75 122 q 92 74 84 87 q 110 61 100 61 l 114 61 q 117 62 115 61 q 178 151 153 103 q 220 249 202 198 q 250 353 237 300 q 274 457 262 406 q 277 502 278 472 q 280 560 277 532 q 294 610 283 589 q 334 631 305 631 q 347 630 339 631 q 354 628 354 629 q 439 451 404 524 q 499 331 475 378 q 538 256 524 283 q 561 215 553 229 q 571 196 568 201 q 574 189 574 191 q 576 169 575 183 q 578 139 578 155 q 580 109 579 123 q 581 91 581 95 q 551 92 567 91 q 528 110 534 94 l 354 471 l 339 487 q 323 434 335 472 q 299 353 312 396 q 275 273 286 311 q 260 220 264 235 q 239 163 252 199 q 208 90 227 126 q 164 26 189 53 q 110 -1 140 -1 q 69 14 85 -1 q 42 53 53 30 q 26 100 31 76 q 22 141 22 125 m 214 842 l 197 831 q 186 855 183 838 q 193 883 190 872 q 197 898 194 887 q 202 914 199 909 q 222 941 210 924 q 245 975 233 958 q 268 1006 256 991 q 286 1031 279 1021 q 300 1048 293 1039 q 318 1065 308 1057 q 338 1077 328 1073 q 358 1080 349 1081 q 365 1076 361 1078 q 372 1073 369 1074 l 214 842 z "},"":{"ha":553,"x_min":22,"x_max":581,"o":"m 22 141 q 31 239 22 180 q 56 360 39 297 q 100 487 73 423 q 160 602 126 551 q 237 684 194 652 q 332 715 281 715 q 317 677 332 696 q 281 642 301 659 q 241 610 262 625 q 213 581 221 594 q 155 488 180 538 q 110 383 129 437 q 80 273 91 330 q 69 164 69 217 q 72 139 69 156 q 79 104 75 122 q 92 74 84 87 q 110 61 100 61 l 114 61 q 117 62 115 61 q 178 151 153 103 q 220 249 202 198 q 250 353 237 300 q 274 457 262 406 q 277 502 278 472 q 280 560 277 532 q 294 610 283 589 q 334 631 305 631 q 347 630 339 631 q 354 628 354 629 q 439 451 404 524 q 499 331 475 378 q 538 256 524 283 q 561 215 553 229 q 571 196 568 201 q 574 189 574 191 q 576 169 575 183 q 578 139 578 155 q 580 109 579 123 q 581 91 581 95 q 551 92 567 91 q 528 110 534 94 l 354 471 l 339 487 q 323 434 335 472 q 299 353 312 396 q 275 273 286 311 q 260 220 264 235 q 239 163 252 199 q 208 90 227 126 q 164 26 189 53 q 110 -1 140 -1 q 69 14 85 -1 q 42 53 53 30 q 26 100 31 76 q 22 141 22 125 m 54 977 q 78 1029 64 994 q 108 1101 92 1063 q 138 1172 123 1138 q 160 1226 152 1206 q 166 1252 164 1238 q 172 1277 168 1265 q 183 1297 176 1289 q 208 1305 190 1305 l 216 1305 q 222 1303 221 1305 l 396 1090 q 437 1085 429 1099 q 446 1053 446 1072 q 437 1015 446 1035 q 404 994 427 994 q 352 1038 374 1013 q 311 1090 330 1063 q 279 1145 293 1118 q 252 1194 264 1172 q 237 1204 250 1198 q 222 1210 225 1210 q 214 1204 220 1210 q 206 1194 208 1198 l 85 959 q 83 958 85 958 l 79 958 q 54 977 62 958 z "},"":{"ha":553,"x_min":11,"x_max":581,"o":"m 22 141 q 31 239 22 180 q 56 360 39 297 q 100 487 73 423 q 160 602 126 551 q 237 684 194 652 q 332 715 281 715 q 317 677 332 696 q 281 642 301 659 q 241 610 262 625 q 213 581 221 594 q 155 488 180 538 q 110 383 129 437 q 80 273 91 330 q 69 164 69 217 q 72 139 69 156 q 79 104 75 122 q 92 74 84 87 q 110 61 100 61 l 114 61 q 117 62 115 61 q 178 151 153 103 q 220 249 202 198 q 250 353 237 300 q 274 457 262 406 q 277 502 278 472 q 280 560 277 532 q 294 610 283 589 q 334 631 305 631 q 347 630 339 631 q 354 628 354 629 q 439 451 404 524 q 499 331 475 378 q 538 256 524 283 q 561 215 553 229 q 571 196 568 201 q 574 189 574 191 q 576 169 575 183 q 578 139 578 155 q 580 109 579 123 q 581 91 581 95 q 551 92 567 91 q 528 110 534 94 l 354 471 l 339 487 q 323 434 335 472 q 299 353 312 396 q 275 273 286 311 q 260 220 264 235 q 239 163 252 199 q 208 90 227 126 q 164 26 189 53 q 110 -1 140 -1 q 69 14 85 -1 q 42 53 53 30 q 26 100 31 76 q 22 141 22 125 m 15 741 q 20 812 11 777 q 50 876 30 848 q 102 919 71 903 q 174 932 133 935 q 236 909 209 932 q 290 861 263 887 q 345 814 316 836 q 412 792 373 792 q 465 808 445 792 q 500 842 486 823 q 527 876 515 860 q 553 891 538 891 q 511 780 553 812 q 406 747 469 747 q 329 767 359 747 q 273 810 298 787 q 224 854 248 834 q 167 873 199 873 q 122 858 140 873 q 94 819 104 842 q 77 768 83 796 q 69 719 72 741 q 54 707 62 713 q 35 701 45 701 q 19 715 23 701 q 15 741 15 730 z "},"":{"ha":553,"x_min":22,"x_max":581,"o":"m 22 141 q 31 239 22 180 q 56 360 39 297 q 100 487 73 423 q 160 602 126 551 q 237 684 194 652 q 332 715 281 715 q 317 677 332 696 q 281 642 301 659 q 241 610 262 625 q 213 581 221 594 q 155 488 180 538 q 110 383 129 437 q 80 273 91 330 q 69 164 69 217 q 72 139 69 156 q 79 104 75 122 q 92 74 84 87 q 110 61 100 61 l 114 61 q 117 62 115 61 q 178 151 153 103 q 220 249 202 198 q 250 353 237 300 q 274 457 262 406 q 277 502 278 472 q 280 560 277 532 q 294 610 283 589 q 334 631 305 631 q 347 630 339 631 q 354 628 354 629 q 439 451 404 524 q 499 331 475 378 q 538 256 524 283 q 561 215 553 229 q 571 196 568 201 q 574 189 574 191 q 576 169 575 183 q 578 139 578 155 q 580 109 579 123 q 581 91 581 95 q 551 92 567 91 q 528 110 534 94 l 354 471 l 339 487 q 323 434 335 472 q 299 353 312 396 q 275 273 286 311 q 260 220 264 235 q 239 163 252 199 q 208 90 227 126 q 164 26 189 53 q 110 -1 140 -1 q 69 14 85 -1 q 42 53 53 30 q 26 100 31 76 q 22 141 22 125 m 144 888 q 156 927 144 910 q 191 944 168 944 q 227 936 213 944 q 241 903 241 928 q 223 853 241 876 q 176 830 205 830 q 158 836 164 830 q 149 851 152 842 q 144 870 145 860 q 144 888 144 880 m 311 888 q 322 927 311 910 q 357 944 334 944 q 393 936 378 944 q 407 903 407 928 q 389 853 407 876 q 342 830 370 830 q 324 836 331 830 q 314 851 317 842 q 311 870 311 860 q 311 888 311 880 z "},"":{"ha":553,"x_min":22,"x_max":581,"o":"m 127 785 q 130 838 127 803 q 143 907 132 872 q 182 967 155 941 q 259 993 209 993 q 332 977 304 993 q 374 939 359 962 q 394 890 389 917 q 399 844 399 864 q 391 793 399 821 q 366 741 384 765 q 332 709 353 723 q 316 677 330 693 q 281 642 301 659 q 241 610 262 625 q 213 581 221 594 q 155 488 180 538 q 110 383 129 437 q 80 273 91 330 q 69 164 69 217 q 72 139 69 156 q 79 104 75 122 q 92 74 84 87 q 110 61 100 61 l 114 61 q 117 62 115 61 q 178 151 153 103 q 220 249 202 198 q 250 353 237 300 q 274 457 262 406 q 277 502 278 472 q 280 560 277 532 q 294 610 283 589 q 334 631 305 631 q 347 630 339 631 q 354 628 354 629 q 439 451 404 524 q 499 331 475 378 q 538 256 524 283 q 561 215 553 229 q 571 196 568 201 q 574 189 574 191 q 576 169 575 183 q 578 139 578 155 q 580 109 579 123 q 581 91 581 95 q 551 92 567 91 q 528 110 534 94 l 354 471 l 339 487 q 323 434 335 472 q 299 353 312 396 q 275 273 286 311 q 260 220 264 235 q 239 163 252 199 q 208 90 227 126 q 164 26 189 53 q 110 -1 140 -1 q 69 14 85 -1 q 42 53 53 30 q 26 100 31 76 q 22 141 22 125 q 31 239 22 180 q 56 360 39 297 q 100 487 73 423 q 160 602 126 551 q 237 684 194 652 q 240 686 237 685 q 191 696 213 686 q 155 721 170 705 q 134 753 141 736 q 127 785 127 770 m 160 792 q 218 729 183 741 q 287 732 254 718 q 345 779 320 747 q 372 848 369 811 q 350 915 374 884 q 260 958 326 945 q 205 936 225 958 q 174 886 184 914 q 162 829 164 857 q 160 792 160 802 z "},"":{"ha":897,"x_min":30,"x_max":878,"o":"m 41 167 q 77 258 52 205 q 138 366 103 311 q 215 475 172 422 q 305 568 258 529 q 403 624 353 606 q 503 628 453 642 q 477 595 496 609 q 433 572 457 582 q 385 552 408 562 q 349 533 361 543 q 267 461 307 502 q 195 374 228 420 q 135 276 161 327 q 92 175 109 225 q 88 150 91 167 q 85 115 85 133 q 87 81 84 96 q 102 65 91 66 l 103 64 l 109 64 q 192 131 155 92 q 260 214 229 170 q 319 304 292 258 q 372 396 347 351 q 389 439 381 411 q 408 494 396 468 q 436 537 419 519 q 480 545 453 555 q 491 542 483 544 q 498 538 499 540 q 513 438 506 483 q 526 354 519 393 q 528 431 525 391 q 548 505 532 471 q 595 561 564 538 q 680 583 627 583 q 736 568 703 583 q 802 531 770 553 q 855 484 833 509 q 878 441 878 460 q 876 423 878 431 q 861 410 873 415 l 593 316 l 591 311 q 591 296 591 304 l 590 278 q 590 264 590 270 q 594 198 590 237 q 611 121 598 159 q 648 57 624 84 q 711 30 671 30 q 735 36 724 30 q 755 49 746 42 q 776 62 765 56 q 799 68 787 68 q 790 30 799 47 q 766 -2 781 12 q 732 -24 751 -16 q 694 -31 713 -31 q 627 -9 654 -31 q 581 49 600 14 q 576 28 579 42 q 571 0 574 15 q 566 -27 568 -15 q 562 -43 563 -39 q 532 -33 545 -39 q 515 -8 518 -26 l 442 408 l 411 359 q 367 290 391 327 q 321 220 343 252 q 290 174 298 187 q 255 124 278 156 q 203 63 232 92 q 144 15 175 34 q 84 5 113 -4 q 50 32 61 12 q 34 76 38 52 q 33 125 30 100 q 41 167 35 151 m 694 524 q 654 510 670 524 q 627 477 637 496 q 611 433 616 457 q 606 389 606 410 q 654 393 628 389 q 707 404 681 396 q 753 425 732 411 q 783 457 774 438 q 744 507 762 491 q 694 524 726 524 z "},"":{"ha":471,"x_min":22,"x_max":437,"o":"m 191 -385 q 193 -363 191 -373 q 197 -349 194 -353 q 205 -349 201 -346 q 216 -366 210 -351 q 260 -361 235 -366 q 311 -343 286 -357 q 354 -304 336 -330 q 372 -237 372 -278 q 356 -195 372 -208 q 317 -174 340 -182 q 266 -159 294 -165 q 214 -138 237 -153 q 176 -96 191 -123 q 160 -16 160 -68 q 159 -1 159 -7 q 98 18 123 0 q 54 66 71 37 q 29 130 37 95 q 22 197 22 164 q 26 248 22 210 q 37 334 30 285 q 58 435 45 382 q 90 533 72 488 q 132 606 109 578 q 187 635 156 635 q 155 545 175 597 q 118 437 136 494 q 89 323 100 381 q 82 214 77 264 q 113 122 87 163 q 194 60 138 81 q 283 83 245 60 q 349 134 321 106 q 398 186 377 163 q 437 209 419 209 q 412 118 437 157 q 348 52 387 79 q 260 12 309 26 q 189 0 225 3 q 183 -19 189 -9 q 193 -66 183 -52 q 222 -90 203 -80 q 252 -104 231 -94 q 295 -123 273 -114 q 338 -142 317 -133 q 365 -153 358 -152 q 394 -188 382 -170 q 406 -239 406 -206 q 384 -319 406 -285 q 332 -377 362 -354 q 269 -412 301 -400 q 213 -423 237 -423 q 195 -416 199 -423 q 191 -385 191 -410 z "},"":{"ha":457,"x_min":-38,"x_max":426,"o":"m 79 315 q 15 286 47 296 q -38 298 -18 275 q -20 333 -38 324 q 20 347 -3 342 q 64 361 42 353 q 95 393 87 369 q 110 458 103 420 q 129 532 117 496 q 164 591 141 567 q 228 614 187 614 q 286 599 251 614 q 351 562 320 583 q 404 515 382 540 q 426 471 426 491 q 424 453 426 461 q 410 439 422 445 l 142 347 l 141 340 q 140 326 141 335 l 140 309 q 140 296 140 300 q 144 229 140 269 q 161 151 148 189 q 197 87 174 114 q 259 60 220 60 q 284 66 274 60 q 304 79 294 72 q 325 93 315 87 q 349 99 335 99 q 340 60 349 79 q 316 28 331 42 q 282 7 301 15 q 244 -1 263 -1 q 161 35 193 -1 q 113 121 130 71 q 90 226 96 172 q 79 315 83 279 m 244 555 q 203 541 220 555 q 175 507 186 528 q 159 463 164 487 q 155 420 155 439 q 203 423 176 420 q 255 434 229 426 q 302 455 281 442 q 331 487 323 468 q 293 537 311 519 q 244 555 275 555 m 121 1073 q 128 1076 122 1074 q 136 1080 134 1078 q 158 1077 146 1081 q 180 1065 170 1073 q 199 1050 190 1058 q 214 1034 208 1042 q 235 1009 222 1024 q 260 977 247 994 q 286 945 274 960 q 307 921 298 930 q 313 905 309 917 q 317 890 316 894 q 323 864 319 880 q 313 840 328 848 l 293 850 l 121 1073 z "},"":{"ha":457,"x_min":-38,"x_max":426,"o":"m 79 315 q 15 286 47 296 q -38 298 -18 275 q -20 333 -38 324 q 20 347 -3 342 q 64 361 42 353 q 95 393 87 369 q 110 458 103 420 q 129 532 117 496 q 164 591 141 567 q 228 614 187 614 q 286 599 251 614 q 351 562 320 583 q 404 515 382 540 q 426 471 426 491 q 424 453 426 461 q 410 439 422 445 l 142 347 l 141 340 q 140 326 141 335 l 140 309 q 140 296 140 300 q 144 229 140 269 q 161 151 148 189 q 197 87 174 114 q 259 60 220 60 q 284 66 274 60 q 304 79 294 72 q 325 93 315 87 q 349 99 335 99 q 340 60 349 79 q 316 28 331 42 q 282 7 301 15 q 244 -1 263 -1 q 161 35 193 -1 q 113 121 130 71 q 90 226 96 172 q 79 315 83 279 m 244 555 q 203 541 220 555 q 175 507 186 528 q 159 463 164 487 q 155 420 155 439 q 203 423 176 420 q 255 434 229 426 q 302 455 281 442 q 331 487 323 468 q 293 537 311 519 q 244 555 275 555 m 167 842 l 149 831 q 139 855 136 838 q 145 883 142 872 q 149 898 146 887 q 155 914 152 909 q 174 941 163 924 q 197 975 186 958 q 220 1006 209 991 q 239 1031 232 1021 q 253 1048 245 1039 q 271 1065 260 1057 q 291 1077 281 1073 q 311 1080 301 1081 q 317 1076 313 1078 q 324 1073 321 1074 l 167 842 z "},"":{"ha":457,"x_min":-38,"x_max":439,"o":"m 79 315 q 15 286 47 296 q -38 298 -18 275 q -20 333 -38 324 q 20 347 -3 342 q 64 361 42 353 q 95 393 87 369 q 110 458 103 420 q 129 532 117 496 q 164 591 141 567 q 228 614 187 614 q 286 599 251 614 q 351 562 320 583 q 404 515 382 540 q 426 471 426 491 q 424 453 426 461 q 410 439 422 445 l 142 347 l 141 340 q 140 326 141 335 l 140 309 q 140 296 140 300 q 144 229 140 269 q 161 151 148 189 q 197 87 174 114 q 259 60 220 60 q 284 66 274 60 q 304 79 294 72 q 325 93 315 87 q 349 99 335 99 q 340 60 349 79 q 316 28 331 42 q 282 7 301 15 q 244 -1 263 -1 q 161 35 193 -1 q 113 121 130 71 q 90 226 96 172 q 79 315 83 279 m 244 555 q 203 541 220 555 q 175 507 186 528 q 159 463 164 487 q 155 420 155 439 q 203 423 176 420 q 255 434 229 426 q 302 455 281 442 q 331 487 323 468 q 293 537 311 519 q 244 555 275 555 m 47 720 q 71 772 57 738 q 101 844 85 807 q 131 916 117 882 q 153 970 145 949 q 159 996 157 982 q 165 1021 161 1009 q 176 1040 170 1032 q 201 1048 183 1048 l 209 1048 q 216 1047 214 1048 l 389 834 q 431 829 422 842 q 439 796 439 815 q 430 758 439 779 q 397 738 420 738 q 345 782 368 757 q 304 834 323 807 q 272 888 286 861 q 245 937 258 916 q 231 947 243 941 q 216 954 218 954 q 207 947 213 954 q 199 937 201 941 l 79 703 q 76 701 79 701 l 72 701 q 47 720 56 701 z "},"":{"ha":457,"x_min":-38,"x_max":426,"o":"m 79 315 q 15 286 47 296 q -38 298 -18 275 q -20 333 -38 324 q 20 347 -3 342 q 64 361 42 353 q 95 393 87 369 q 110 458 103 420 q 129 532 117 496 q 164 591 141 567 q 228 614 187 614 q 286 599 251 614 q 351 562 320 583 q 404 515 382 540 q 426 471 426 491 q 424 453 426 461 q 410 439 422 445 l 142 347 l 141 340 q 140 326 141 335 l 140 309 q 140 296 140 300 q 144 229 140 269 q 161 151 148 189 q 197 87 174 114 q 259 60 220 60 q 284 66 274 60 q 304 79 294 72 q 325 93 315 87 q 349 99 335 99 q 340 60 349 79 q 316 28 331 42 q 282 7 301 15 q 244 -1 263 -1 q 161 35 193 -1 q 113 121 130 71 q 90 226 96 172 q 79 315 83 279 m 244 555 q 203 541 220 555 q 175 507 186 528 q 159 463 164 487 q 155 420 155 439 q 203 423 176 420 q 255 434 229 426 q 302 455 281 442 q 331 487 323 468 q 293 537 311 519 q 244 555 275 555 m 95 888 q 107 927 95 910 q 142 944 119 944 q 178 936 164 944 q 193 903 193 928 q 174 853 193 876 q 127 830 156 830 q 109 836 115 830 q 100 851 103 842 q 96 870 96 860 q 95 888 95 880 m 262 888 q 273 927 262 910 q 308 944 285 944 q 344 936 330 944 q 358 903 358 928 q 340 853 358 876 q 293 830 321 830 q 275 836 282 830 q 265 851 269 842 q 262 870 262 860 q 262 888 262 880 z "},"":{"ha":197,"x_min":-7,"x_max":201,"o":"m 16 617 q 35 612 24 617 q 47 597 45 606 l 142 126 q 166 87 159 102 q 174 47 174 72 q 170 17 174 35 q 151 -1 165 -1 l 145 -1 q 142 0 142 -1 q 134 5 140 1 l 114 26 q 110 31 110 30 l 16 567 l 16 617 m -7 1073 q 0 1076 -5 1074 q 8 1080 5 1078 q 31 1077 19 1081 q 52 1065 42 1073 q 71 1050 62 1058 q 87 1034 80 1042 q 107 1009 95 1024 q 133 977 119 994 q 159 945 146 960 q 179 921 171 930 q 185 905 182 917 q 189 890 189 894 q 196 864 191 880 q 186 840 201 848 l 165 850 l -7 1073 z "},"":{"ha":197,"x_min":5,"x_max":195,"o":"m 16 617 q 35 612 24 617 q 47 597 45 606 l 142 126 q 166 87 159 102 q 174 47 174 72 q 170 17 174 35 q 151 -1 165 -1 l 145 -1 q 142 0 142 -1 q 134 5 140 1 l 114 26 q 110 31 110 30 l 16 567 l 16 617 m 38 842 l 19 831 q 9 855 5 838 q 16 883 14 872 q 20 898 18 887 q 26 914 23 909 q 44 941 33 924 q 67 975 56 958 q 91 1006 79 991 q 110 1031 103 1021 q 123 1048 115 1039 q 142 1065 132 1057 q 162 1077 152 1073 q 182 1080 172 1081 q 189 1076 184 1078 q 195 1073 193 1074 l 38 842 z "},"":{"ha":197,"x_min":-96,"x_max":296,"o":"m -96 827 q -73 880 -88 846 q -43 951 -58 914 q -14 1023 -28 989 q 8 1077 0 1057 q 16 1103 14 1089 q 21 1128 18 1116 q 32 1148 24 1141 q 56 1156 39 1156 l 65 1156 q 71 1154 69 1156 l 245 941 q 286 936 277 949 q 296 903 296 922 q 286 866 296 886 q 252 846 275 846 q 201 889 224 864 q 159 942 178 914 q 127 996 141 970 q 102 1044 114 1023 q 85 1055 98 1048 q 71 1061 73 1061 q 62 1055 68 1061 q 54 1044 56 1048 l -66 811 q -68 810 -66 810 l -73 810 q -96 827 -90 810 m 16 617 q 35 612 24 617 q 47 597 45 606 l 142 126 q 166 87 159 102 q 174 47 174 72 q 170 17 174 35 q 151 -1 165 -1 l 145 -1 q 142 0 142 -1 q 134 5 140 1 l 114 26 q 110 31 110 30 l 16 567 l 16 617 z "},"":{"ha":197,"x_min":-33,"x_max":229,"o":"m 16 617 q 35 612 24 617 q 47 597 45 606 l 142 126 q 166 87 159 102 q 174 47 174 72 q 170 17 174 35 q 151 -1 165 -1 l 145 -1 q 142 0 142 -1 q 134 5 140 1 l 114 26 q 110 31 110 30 l 16 567 l 16 617 m -33 888 q -20 927 -33 910 q 15 944 -8 944 q 51 936 37 944 q 65 903 65 928 q 47 853 65 876 q 0 830 28 830 q -19 836 -12 830 q -28 851 -26 842 q -32 870 -31 860 q -33 888 -33 880 m 133 888 q 144 927 133 910 q 179 944 156 944 q 215 936 201 944 q 229 903 229 928 q 211 853 229 876 q 164 830 193 830 q 146 836 153 830 q 137 851 140 842 q 134 870 134 860 q 133 888 133 880 z "},"":{"ha":590,"x_min":30,"x_max":570,"o":"m 264 677 q 275 687 264 686 q 302 689 285 688 q 347 647 326 669 q 388 604 369 625 l 445 629 l 475 595 l 427 560 q 508 422 477 491 q 553 296 538 354 q 568 191 567 237 q 562 122 570 145 q 544 71 562 94 q 501 31 526 47 q 448 5 476 15 q 397 -4 420 -4 q 323 14 363 -4 q 242 64 283 33 q 163 136 201 95 q 96 219 126 176 q 48 305 66 262 q 30 385 30 349 q 53 465 30 437 q 125 492 76 492 q 178 486 156 492 q 233 458 201 480 q 269 437 245 453 q 321 397 293 420 q 378 349 349 374 q 433 302 408 324 q 473 262 457 279 q 492 236 490 243 q 490 283 494 255 q 478 345 487 312 q 456 410 469 377 q 429 467 444 442 q 401 505 415 491 q 376 517 387 519 q 343 503 358 510 q 319 495 328 495 q 297 507 308 495 q 293 530 286 519 q 315 546 298 537 q 353 568 332 555 q 350 591 362 576 q 319 623 338 606 q 282 656 300 640 q 264 677 264 671 m 79 393 q 110 278 79 336 q 189 172 141 220 q 292 93 236 123 q 397 62 347 62 q 435 64 416 62 q 468 81 453 65 q 469 106 469 88 q 469 129 469 123 q 453 201 469 164 q 410 270 437 237 q 347 331 382 302 q 273 381 311 359 q 199 415 236 403 q 133 427 163 427 q 113 427 127 427 q 94 425 98 426 q 85 410 91 422 q 79 393 79 397 z "},"":{"ha":690,"x_min":38,"x_max":654,"o":"m 38 505 q 39 524 38 513 q 41 545 39 534 q 50 562 43 555 q 69 568 57 568 q 78 568 72 568 q 87 567 84 567 q 97 369 88 471 q 133 172 106 267 q 140 223 134 187 q 154 299 146 259 q 169 374 161 339 q 179 425 176 410 q 205 484 189 453 q 245 540 221 514 q 298 582 269 566 q 359 598 327 598 q 456 574 414 598 q 531 509 498 549 q 587 418 564 469 q 625 315 610 368 q 647 213 640 262 q 654 126 654 164 l 654 110 q 652 94 654 102 q 645 82 650 87 q 628 77 640 77 q 605 94 614 77 q 597 172 604 127 q 581 267 591 217 q 554 364 571 316 q 512 450 537 412 q 453 512 487 488 q 372 536 419 536 q 306 522 334 536 q 259 485 278 509 q 229 429 240 461 q 212 361 217 397 q 201 293 208 342 q 186 189 194 244 q 172 84 178 133 q 164 16 165 35 q 150 0 160 3 q 129 -3 140 -3 q 122 -2 127 -3 q 117 0 117 -1 l 39 471 q 39 486 39 473 q 38 505 38 498 m 84 741 q 90 812 80 777 q 119 876 99 848 q 171 919 140 903 q 243 932 202 935 q 305 909 278 932 q 359 861 332 887 q 414 814 385 836 q 481 792 442 792 q 534 808 514 792 q 570 842 555 823 q 596 876 585 860 q 623 891 608 891 q 581 780 623 812 q 475 747 538 747 q 398 767 429 747 q 342 810 368 787 q 293 854 317 834 q 236 873 269 873 q 191 858 209 873 q 163 819 174 842 q 146 768 152 796 q 138 719 141 741 q 123 707 132 713 q 104 701 114 701 q 88 715 92 701 q 84 741 84 730 z "},"":{"ha":439,"x_min":30,"x_max":411,"o":"m 30 205 q 31 277 30 232 q 37 375 31 323 q 53 481 42 427 q 84 579 64 536 q 136 650 104 623 q 213 677 167 677 q 315 642 277 677 q 375 554 354 606 q 404 443 396 502 q 411 336 411 384 q 396 225 411 285 q 350 115 381 165 q 272 32 319 65 q 160 -1 225 -1 q 92 18 118 -1 q 54 68 66 38 q 35 134 41 98 q 30 205 30 171 m 76 221 q 77 168 76 195 q 85 115 79 140 q 110 76 92 91 q 161 61 127 61 q 260 88 221 61 q 321 158 298 115 q 353 252 345 201 q 362 351 362 304 q 357 429 362 381 q 338 521 353 476 q 294 597 323 566 q 220 629 266 629 q 163 604 187 629 q 123 537 140 578 q 98 448 107 496 q 84 354 90 399 q 77 273 79 309 q 76 221 76 236 m 114 1073 q 121 1076 115 1074 q 129 1080 127 1078 q 151 1077 140 1081 q 173 1065 163 1073 q 192 1050 183 1058 q 208 1034 201 1042 q 228 1009 216 1024 q 254 977 240 994 q 279 945 267 960 q 300 921 292 930 q 306 905 302 917 q 311 890 309 894 q 317 864 312 880 q 307 840 321 848 l 286 850 l 114 1073 z "},"":{"ha":439,"x_min":30,"x_max":411,"o":"m 30 205 q 31 277 30 232 q 37 375 31 323 q 53 481 42 427 q 84 579 64 536 q 136 650 104 623 q 213 677 167 677 q 315 642 277 677 q 375 554 354 606 q 404 443 396 502 q 411 336 411 384 q 396 225 411 285 q 350 115 381 165 q 272 32 319 65 q 160 -1 225 -1 q 92 18 118 -1 q 54 68 66 38 q 35 134 41 98 q 30 205 30 171 m 76 221 q 77 168 76 195 q 85 115 79 140 q 110 76 92 91 q 161 61 127 61 q 260 88 221 61 q 321 158 298 115 q 353 252 345 201 q 362 351 362 304 q 357 429 362 381 q 338 521 353 476 q 294 597 323 566 q 220 629 266 629 q 163 604 187 629 q 123 537 140 578 q 98 448 107 496 q 84 354 90 399 q 77 273 79 309 q 76 221 76 236 m 159 842 l 141 831 q 131 855 127 838 q 137 883 134 872 q 141 898 138 887 q 146 914 144 909 q 166 941 155 924 q 189 975 178 958 q 212 1006 201 991 q 231 1031 224 1021 q 245 1048 237 1039 q 262 1065 252 1057 q 283 1077 273 1073 q 302 1080 293 1081 q 309 1076 305 1078 q 316 1073 313 1074 l 159 842 z "},"":{"ha":439,"x_min":26,"x_max":418,"o":"m 30 205 q 31 277 30 232 q 37 375 31 323 q 53 481 42 427 q 84 579 64 536 q 136 650 104 623 q 213 677 167 677 q 315 642 277 677 q 375 554 354 606 q 404 443 396 502 q 411 336 411 384 q 396 225 411 285 q 350 115 381 165 q 272 32 319 65 q 160 -1 225 -1 q 92 18 118 -1 q 54 68 66 38 q 35 134 41 98 q 30 205 30 171 m 76 221 q 77 168 76 195 q 85 115 79 140 q 110 76 92 91 q 161 61 127 61 q 260 88 221 61 q 321 158 298 115 q 353 252 345 201 q 362 351 362 304 q 357 429 362 381 q 338 521 353 476 q 294 597 323 566 q 220 629 266 629 q 163 604 187 629 q 123 537 140 578 q 98 448 107 496 q 84 354 90 399 q 77 273 79 309 q 76 221 76 236 m 26 758 q 50 810 35 776 q 79 882 64 845 q 109 954 95 920 q 132 1008 123 987 q 138 1034 136 1020 q 144 1059 140 1047 q 155 1078 148 1070 q 179 1086 161 1086 l 187 1086 q 194 1085 193 1086 l 368 872 q 409 867 400 880 q 418 834 418 853 q 408 796 418 817 q 376 776 399 776 q 323 820 346 795 q 283 872 301 845 q 250 926 264 899 q 224 975 236 954 q 209 985 221 979 q 194 991 197 991 q 185 985 191 991 q 178 975 179 979 l 57 741 q 54 739 57 739 l 50 739 q 26 758 34 739 z "},"":{"ha":439,"x_min":-46,"x_max":496,"o":"m 30 205 q 31 277 30 232 q 37 375 31 323 q 53 481 42 427 q 84 579 64 536 q 136 650 104 623 q 213 677 167 677 q 315 642 277 677 q 375 554 354 606 q 404 443 396 502 q 411 336 411 384 q 396 225 411 285 q 350 115 381 165 q 272 32 319 65 q 160 -1 225 -1 q 92 18 118 -1 q 54 68 66 38 q 35 134 41 98 q 30 205 30 171 m 76 221 q 77 168 76 195 q 85 115 79 140 q 110 76 92 91 q 161 61 127 61 q 260 88 221 61 q 321 158 298 115 q 353 252 345 201 q 362 351 362 304 q 357 429 362 381 q 338 521 353 476 q 294 597 323 566 q 220 629 266 629 q 163 604 187 629 q 123 537 140 578 q 98 448 107 496 q 84 354 90 399 q 77 273 79 309 q 76 221 76 236 m -42 741 q -37 812 -46 777 q -7 876 -27 848 q 45 919 14 903 q 117 932 76 935 q 179 909 152 932 q 233 861 206 887 q 288 814 259 836 q 355 792 316 792 q 408 808 388 792 q 444 842 429 823 q 470 876 458 860 q 496 891 481 891 q 454 780 496 812 q 349 747 412 747 q 272 767 302 747 q 216 810 241 787 q 167 854 191 834 q 110 873 142 873 q 65 858 83 873 q 37 819 47 842 q 20 768 26 796 q 12 719 15 741 q -3 707 5 713 q -22 701 -12 701 q -38 715 -34 701 q -42 741 -42 730 z "},"":{"ha":439,"x_min":30,"x_max":411,"o":"m 30 205 q 31 277 30 232 q 37 375 31 323 q 53 481 42 427 q 84 579 64 536 q 136 650 104 623 q 213 677 167 677 q 315 642 277 677 q 375 554 354 606 q 404 443 396 502 q 411 336 411 384 q 396 225 411 285 q 350 115 381 165 q 272 32 319 65 q 160 -1 225 -1 q 92 18 118 -1 q 54 68 66 38 q 35 134 41 98 q 30 205 30 171 m 76 221 q 77 168 76 195 q 85 115 79 140 q 110 76 92 91 q 161 61 127 61 q 260 88 221 61 q 321 158 298 115 q 353 252 345 201 q 362 351 362 304 q 357 429 362 381 q 338 521 353 476 q 294 597 323 566 q 220 629 266 629 q 163 604 187 629 q 123 537 140 578 q 98 448 107 496 q 84 354 90 399 q 77 273 79 309 q 76 221 76 236 m 88 888 q 100 927 88 910 q 136 944 113 944 q 172 936 157 944 q 186 903 186 928 q 168 853 186 876 q 121 830 149 830 q 102 836 109 830 q 93 851 96 842 q 89 870 90 860 q 88 888 88 880 m 255 888 q 267 927 255 910 q 301 944 278 944 q 337 936 323 944 q 351 903 351 928 q 333 853 351 876 q 286 830 315 830 q 269 836 275 830 q 258 851 262 842 q 255 870 255 860 q 255 888 255 880 z "},"":{"ha":661,"x_min":26,"x_max":624,"o":"m 52 389 q 35 430 26 415 q 75 451 43 445 q 153 458 106 457 q 247 458 199 460 q 336 456 294 457 q 403 457 378 454 q 449 458 414 457 q 524 456 484 458 q 593 446 563 454 q 624 420 624 438 q 614 403 624 408 q 591 397 605 397 l 472 397 q 327 397 403 397 q 178 395 251 396 q 52 389 104 393 m 267 237 q 271 271 267 251 q 285 308 275 290 q 309 338 294 326 q 340 351 323 351 q 368 345 355 351 q 391 327 381 338 q 408 302 401 316 q 414 275 414 289 q 406 243 415 262 q 380 210 396 225 q 347 184 363 194 q 319 175 330 174 q 279 194 290 175 q 267 237 267 213 m 250 549 q 257 592 250 571 q 279 630 264 613 q 312 657 293 647 q 354 667 331 667 q 376 661 368 667 q 389 645 384 654 q 395 625 393 636 q 396 604 396 613 q 387 569 396 586 q 365 538 378 552 q 334 517 351 525 q 298 509 316 509 q 265 519 281 509 q 250 549 250 530 z "},"":{"ha":439,"x_min":30,"x_max":411,"o":"m 52 -23 q 56 -3 52 -12 q 69 18 61 5 l 75 34 q 54 66 62 49 q 35 134 41 98 q 30 205 30 171 q 31 277 30 232 q 37 375 31 323 q 53 481 42 427 q 84 579 64 536 q 136 650 104 623 q 213 677 167 677 q 267 669 243 677 l 289 739 q 307 762 290 749 q 335 774 323 774 l 335 724 q 311 646 327 699 q 315 642 312 643 q 375 554 354 606 q 404 443 396 502 q 411 336 411 384 q 396 225 411 285 q 350 115 381 165 q 272 32 319 65 q 160 -1 225 -1 q 125 3 140 -1 l 121 -14 q 109 -43 117 -30 q 84 -62 102 -56 q 77 -56 81 -61 l 57 -37 q 53 -31 54 -33 q 52 -27 52 -28 l 52 -23 m 161 61 q 260 88 221 61 q 321 158 298 115 q 353 252 345 201 q 362 351 362 304 q 357 429 362 381 q 336 519 353 476 q 296 595 323 564 q 274 526 286 563 l 190 245 q 155 126 171 178 q 136 64 142 87 q 161 61 146 61 m 76 221 q 77 168 76 195 q 85 115 79 140 q 94 95 88 104 l 254 624 q 220 629 237 629 q 163 604 187 629 q 123 537 140 578 q 98 448 107 496 q 84 354 90 399 q 77 273 79 309 q 76 221 76 236 z "},"":{"ha":608,"x_min":37,"x_max":589,"o":"m 179 0 q 132 5 153 -9 q 95 48 111 19 q 66 115 79 77 q 47 189 54 152 q 39 255 41 225 q 39 298 37 285 q 41 340 39 312 q 43 405 42 369 q 47 479 45 441 q 50 555 49 518 q 53 619 52 591 q 54 661 54 647 q 58 662 57 661 l 62 663 q 85 651 76 663 q 102 628 95 639 q 101 560 102 609 q 100 456 100 511 q 101 351 100 400 q 102 282 102 301 q 108 231 103 266 q 121 161 113 197 q 143 96 129 125 q 179 62 157 66 q 275 104 236 62 q 339 210 313 146 q 380 348 365 274 q 407 487 396 422 q 427 596 418 552 q 448 644 435 640 l 480 637 l 556 113 q 570 100 564 109 q 580 83 575 92 q 587 64 585 73 q 589 50 589 54 q 572 30 586 41 q 549 18 559 19 l 544 18 q 541 18 543 18 q 534 31 538 22 q 524 49 529 39 q 515 68 518 58 q 510 81 511 79 q 501 123 506 95 q 492 186 496 152 q 485 260 488 221 q 478 334 481 298 q 471 398 475 370 q 464 439 468 426 q 445 366 457 408 q 414 275 433 323 q 373 182 396 228 q 321 98 350 137 q 256 33 292 60 q 179 0 221 7 m 197 1073 q 204 1076 198 1074 q 212 1080 210 1078 q 234 1077 222 1081 q 256 1065 245 1073 q 275 1050 266 1058 q 290 1034 283 1042 q 311 1009 298 1024 q 336 977 323 994 q 362 945 350 960 q 382 921 374 930 q 389 905 385 917 q 393 890 392 894 q 399 864 395 880 q 389 840 404 848 l 369 850 l 197 1073 z "},"":{"ha":608,"x_min":37,"x_max":589,"o":"m 179 0 q 132 5 153 -9 q 95 48 111 19 q 66 115 79 77 q 47 189 54 152 q 39 255 41 225 q 39 298 37 285 q 41 340 39 312 q 43 405 42 369 q 47 479 45 441 q 50 555 49 518 q 53 619 52 591 q 54 661 54 647 q 58 662 57 661 l 62 663 q 85 651 76 663 q 102 628 95 639 q 101 560 102 609 q 100 456 100 511 q 101 351 100 400 q 102 282 102 301 q 108 231 103 266 q 121 161 113 197 q 143 96 129 125 q 179 62 157 66 q 275 104 236 62 q 339 210 313 146 q 380 348 365 274 q 407 487 396 422 q 427 596 418 552 q 448 644 435 640 l 480 637 l 556 113 q 570 100 564 109 q 580 83 575 92 q 587 64 585 73 q 589 50 589 54 q 572 30 586 41 q 549 18 559 19 l 544 18 q 541 18 543 18 q 534 31 538 22 q 524 49 529 39 q 515 68 518 58 q 510 81 511 79 q 501 123 506 95 q 492 186 496 152 q 485 260 488 221 q 478 334 481 298 q 471 398 475 370 q 464 439 468 426 q 445 366 457 408 q 414 275 433 323 q 373 182 396 228 q 321 98 350 137 q 256 33 292 60 q 179 0 221 7 m 243 842 l 225 831 q 215 855 212 838 q 221 883 218 872 q 225 898 222 887 q 231 914 228 909 q 250 941 239 924 q 273 975 262 958 q 296 1006 285 991 q 315 1031 308 1021 q 329 1048 321 1039 q 347 1065 336 1057 q 367 1077 357 1073 q 387 1080 377 1081 q 393 1076 389 1078 q 400 1073 397 1074 l 243 842 z "},"":{"ha":608,"x_min":37,"x_max":589,"o":"m 179 0 q 132 5 153 -9 q 95 48 111 19 q 66 115 79 77 q 47 189 54 152 q 39 255 41 225 q 39 298 37 285 q 41 340 39 312 q 43 405 42 369 q 47 479 45 441 q 50 555 49 518 q 53 619 52 591 q 54 661 54 647 q 58 662 57 661 l 62 663 q 85 651 76 663 q 102 628 95 639 q 101 560 102 609 q 100 456 100 511 q 101 351 100 400 q 102 282 102 301 q 108 231 103 266 q 121 161 113 197 q 143 96 129 125 q 179 62 157 66 q 275 104 236 62 q 339 210 313 146 q 380 348 365 274 q 407 487 396 422 q 427 596 418 552 q 448 644 435 640 l 480 637 l 556 113 q 570 100 564 109 q 580 83 575 92 q 587 64 585 73 q 589 50 589 54 q 572 30 586 41 q 549 18 559 19 l 544 18 q 541 18 543 18 q 534 31 538 22 q 524 49 529 39 q 515 68 518 58 q 510 81 511 79 q 501 123 506 95 q 492 186 496 152 q 485 260 488 221 q 478 334 481 298 q 471 398 475 370 q 464 439 468 426 q 445 366 457 408 q 414 275 433 323 q 373 182 396 228 q 321 98 350 137 q 256 33 292 60 q 179 0 221 7 m 109 800 q 132 852 118 818 q 162 924 146 887 q 192 996 178 962 q 214 1050 206 1029 q 220 1076 218 1062 q 227 1101 222 1089 q 237 1120 231 1112 q 262 1128 244 1128 l 270 1128 q 277 1127 275 1128 l 450 914 q 492 909 483 922 q 500 876 500 895 q 491 838 500 859 q 458 818 481 818 q 406 862 429 837 q 366 914 384 887 q 333 968 347 941 q 307 1017 319 996 q 292 1027 304 1021 q 277 1034 279 1034 q 268 1027 274 1034 q 260 1017 262 1021 l 140 783 q 137 781 140 781 l 133 781 q 109 800 117 781 z "},"":{"ha":608,"x_min":37,"x_max":589,"o":"m 179 0 q 132 5 153 -9 q 95 48 111 19 q 66 115 79 77 q 47 189 54 152 q 39 255 41 225 q 39 298 37 285 q 41 340 39 312 q 43 405 42 369 q 47 479 45 441 q 50 555 49 518 q 53 619 52 591 q 54 661 54 647 q 58 662 57 661 l 62 663 q 85 651 76 663 q 102 628 95 639 q 101 560 102 609 q 100 456 100 511 q 101 351 100 400 q 102 282 102 301 q 108 231 103 266 q 121 161 113 197 q 143 96 129 125 q 179 62 157 66 q 275 104 236 62 q 339 210 313 146 q 380 348 365 274 q 407 487 396 422 q 427 596 418 552 q 448 644 435 640 l 480 637 l 556 113 q 570 100 564 109 q 580 83 575 92 q 587 64 585 73 q 589 50 589 54 q 572 30 586 41 q 549 18 559 19 l 544 18 q 541 18 543 18 q 534 31 538 22 q 524 49 529 39 q 515 68 518 58 q 510 81 511 79 q 501 123 506 95 q 492 186 496 152 q 485 260 488 221 q 478 334 481 298 q 471 398 475 370 q 464 439 468 426 q 445 366 457 408 q 414 275 433 323 q 373 182 396 228 q 321 98 350 137 q 256 33 292 60 q 179 0 221 7 m 172 888 q 184 927 172 910 q 220 944 197 944 q 256 936 241 944 q 270 903 270 928 q 252 853 270 876 q 205 830 233 830 q 186 836 193 830 q 177 851 180 842 q 173 870 174 860 q 172 888 172 880 m 339 888 q 351 927 339 910 q 385 944 362 944 q 421 936 407 944 q 435 903 435 928 q 417 853 435 876 q 370 830 399 830 q 353 836 359 830 q 342 851 346 842 q 339 870 339 860 q 339 888 339 880 z "},"":{"ha":684,"x_min":23,"x_max":654,"o":"m 574 -222 q 582 -70 574 -145 q 590 81 590 5 q 572 138 590 114 q 528 179 553 161 q 391 275 457 231 q 263 366 326 320 q 140 461 201 411 q 23 574 80 511 l 54 605 q 96 572 68 594 q 160 522 125 549 q 235 463 195 494 q 310 404 274 431 q 374 353 346 376 q 416 321 403 331 q 456 295 431 311 q 507 264 481 279 q 551 238 532 250 q 574 227 571 227 l 590 227 l 590 244 q 592 297 591 262 q 594 376 593 332 q 597 471 595 420 q 602 566 600 521 q 604 646 604 610 q 605 699 605 681 q 626 717 610 713 q 654 720 642 720 q 651 483 654 602 l 643 247 q 637 9 640 127 q 637 -228 635 -110 q 621 -250 631 -239 q 597 -262 612 -262 q 578 -248 583 -262 q 574 -222 574 -235 m 282 842 l 264 831 q 254 855 251 838 q 260 883 258 872 q 264 898 262 887 q 270 914 267 909 q 290 941 278 924 q 313 975 301 958 q 336 1006 324 991 q 354 1031 347 1021 q 368 1048 361 1039 q 386 1065 376 1057 q 406 1077 396 1073 q 426 1080 416 1081 q 433 1076 429 1078 q 439 1073 437 1074 l 282 842 z "},"":{"ha":543,"x_min":18,"x_max":506,"o":"m 18 884 q 35 940 24 928 q 56 942 45 952 q 77 903 66 932 q 94 835 87 873 q 104 752 102 796 q 103 667 107 708 q 118 671 109 669 q 138 675 127 673 q 159 680 149 678 q 172 684 168 682 l 179 684 q 294 665 236 684 q 399 613 353 647 q 475 530 445 579 q 506 420 506 481 q 475 296 506 353 q 394 199 444 240 q 283 136 345 159 q 160 113 221 113 q 168 35 160 73 q 182 -41 175 -4 q 197 -116 190 -79 q 205 -190 205 -153 q 197 -208 205 -201 q 179 -214 190 -214 q 159 -203 167 -214 q 149 -179 152 -193 q 143 -153 145 -165 q 141 -134 141 -140 q 132 -74 138 -115 q 118 18 126 -33 q 101 125 110 69 q 85 233 92 182 q 71 325 77 285 q 62 384 65 365 l 18 884 m 92 549 l 92 536 q 93 520 92 529 q 94 505 94 511 l 94 495 q 100 439 96 472 q 110 371 104 407 q 121 298 115 335 q 130 233 126 262 q 137 184 134 203 q 141 164 140 165 q 251 170 195 152 q 351 229 307 189 q 426 321 396 269 q 457 430 456 374 q 433 516 457 480 q 373 576 410 552 q 291 611 336 600 q 201 623 245 623 q 159 620 179 623 q 125 610 140 617 q 101 589 110 604 q 92 549 92 574 z "},"":{"ha":684,"x_min":23,"x_max":654,"o":"m 574 -222 q 582 -70 574 -145 q 590 81 590 5 q 572 138 590 114 q 528 179 553 161 q 391 275 457 231 q 263 366 326 320 q 140 461 201 411 q 23 574 80 511 l 54 605 q 96 572 68 594 q 160 522 125 549 q 235 463 195 494 q 310 404 274 431 q 374 353 346 376 q 416 321 403 331 q 456 295 431 311 q 507 264 481 279 q 551 238 532 250 q 574 227 571 227 l 590 227 l 590 244 q 592 297 591 262 q 594 376 593 332 q 597 471 595 420 q 602 566 600 521 q 604 646 604 610 q 605 699 605 681 q 626 717 610 713 q 654 720 642 720 q 651 483 654 602 l 643 247 q 637 9 640 127 q 637 -228 635 -110 q 621 -250 631 -239 q 597 -262 612 -262 q 578 -248 583 -262 q 574 -222 574 -235 m 210 888 q 222 927 210 910 q 258 944 235 944 q 294 936 279 944 q 308 903 308 928 q 290 853 308 876 q 243 830 271 830 q 224 836 231 830 q 215 851 218 842 q 211 870 212 860 q 210 888 210 880 m 377 888 q 389 927 377 910 q 423 944 400 944 q 459 936 445 944 q 473 903 473 928 q 455 853 473 876 q 408 830 437 830 q 391 836 397 830 q 380 851 384 842 q 377 870 377 860 q 377 888 377 880 z "},"":{"ha":731,"x_min":5,"x_max":686,"o":"m 33 -64 q 15 -57 20 -64 q 7 -40 9 -50 q 7 -18 5 -30 q 8 0 8 -7 l 245 1006 q 257 1033 248 1019 q 275 1054 266 1047 q 288 1029 279 1042 q 308 1006 296 1016 l 685 142 q 686 136 686 141 l 686 127 q 681 104 686 114 q 662 94 675 94 q 637 110 644 94 l 543 330 q 526 333 543 331 q 499 335 509 335 q 484 334 494 335 q 463 333 473 334 q 443 331 452 332 q 433 330 434 330 q 352 315 401 324 q 255 296 302 307 q 173 278 208 286 q 136 267 138 270 l 56 -46 q 47 -60 54 -56 q 33 -64 41 -64 m 275 913 q 272 903 274 909 q 267 889 270 897 q 263 875 264 882 q 260 865 262 868 q 240 780 251 830 l 193 567 q 172 465 180 511 q 157 385 163 419 q 151 342 151 351 q 203 345 170 342 q 276 353 237 347 q 355 366 315 359 q 427 382 395 373 q 479 402 458 392 q 499 423 499 412 q 498 432 499 426 q 496 441 498 438 l 275 913 m 152 1153 q 199 1159 182 1158 q 231 1159 217 1160 q 262 1158 245 1158 q 312 1160 279 1158 q 332 1162 315 1161 q 369 1163 349 1162 q 411 1164 389 1164 l 472 1164 q 513 1163 491 1164 q 553 1162 534 1162 q 579 1160 572 1161 q 591 1147 585 1158 q 595 1130 597 1135 q 583 1111 594 1123 q 564 1097 571 1099 q 503 1102 540 1099 q 428 1108 467 1105 q 353 1113 389 1111 q 292 1114 316 1115 q 237 1110 266 1111 q 182 1105 209 1109 q 173 1105 180 1105 q 157 1103 165 1104 q 140 1102 148 1103 q 132 1101 133 1101 q 134 1131 132 1114 q 152 1153 136 1147 z "},"":{"ha":553,"x_min":22,"x_max":581,"o":"m 22 141 q 31 239 22 180 q 56 360 39 297 q 100 487 73 423 q 160 602 126 551 q 237 684 194 652 q 332 715 281 715 q 317 677 332 696 q 281 642 301 659 q 241 610 262 625 q 213 581 221 594 q 155 488 180 538 q 110 383 129 437 q 80 273 91 330 q 69 164 69 217 q 72 139 69 156 q 79 104 75 122 q 92 74 84 87 q 110 61 100 61 l 114 61 q 117 62 115 61 q 178 151 153 103 q 220 249 202 198 q 250 353 237 300 q 274 457 262 406 q 277 502 278 472 q 280 560 277 532 q 294 610 283 589 q 334 631 305 631 q 347 630 339 631 q 354 628 354 629 q 439 451 404 524 q 499 331 475 378 q 538 256 524 283 q 561 215 553 229 q 571 196 568 201 q 574 189 574 191 q 576 169 575 183 q 578 139 578 155 q 580 109 579 123 q 581 91 581 95 q 551 92 567 91 q 528 110 534 94 l 354 471 l 339 487 q 323 434 335 472 q 299 353 312 396 q 275 273 286 311 q 260 220 264 235 q 239 163 252 199 q 208 90 227 126 q 164 26 189 53 q 110 -1 140 -1 q 69 14 85 -1 q 42 53 53 30 q 26 100 31 76 q 22 141 22 125 m 68 903 q 115 909 98 909 q 147 909 133 910 q 178 909 161 909 q 228 910 195 909 q 248 912 231 911 q 285 913 264 913 q 327 914 305 914 l 388 914 q 429 913 407 914 q 469 912 450 913 q 495 910 488 911 q 507 897 500 909 q 511 880 513 886 q 498 861 510 873 q 480 848 487 849 q 419 852 456 849 q 344 859 382 856 q 269 863 305 861 q 208 864 232 865 q 153 861 182 861 q 98 856 125 860 q 89 855 96 856 q 73 854 81 854 q 56 852 64 853 q 47 852 49 852 q 50 881 47 864 q 68 903 52 898 z "},"":{"ha":731,"x_min":5,"x_max":686,"o":"m 33 -64 q 15 -57 20 -64 q 7 -40 9 -50 q 7 -18 5 -30 q 8 0 8 -7 l 245 1006 q 257 1033 248 1019 q 275 1054 266 1047 q 288 1029 279 1042 q 308 1006 296 1016 l 685 142 q 686 136 686 141 l 686 127 q 681 104 686 114 q 662 94 675 94 q 637 110 644 94 l 543 330 q 526 333 543 331 q 499 335 509 335 q 484 334 494 335 q 463 333 473 334 q 443 331 452 332 q 433 330 434 330 q 352 315 401 324 q 255 296 302 307 q 173 278 208 286 q 136 267 138 270 l 56 -46 q 47 -60 54 -56 q 33 -64 41 -64 m 275 913 q 272 903 274 909 q 267 889 270 897 q 263 875 264 882 q 260 865 262 868 q 240 780 251 830 l 193 567 q 172 465 180 511 q 157 385 163 419 q 151 342 151 351 q 203 345 170 342 q 276 353 237 347 q 355 366 315 359 q 427 382 395 373 q 479 402 458 392 q 499 423 499 412 q 498 432 499 426 q 496 441 498 438 l 275 913 m 172 1236 q 231 1168 203 1187 q 281 1152 258 1150 q 323 1172 304 1154 q 357 1212 342 1190 q 382 1255 372 1234 q 401 1286 393 1276 q 412 1290 408 1297 q 416 1249 416 1283 q 408 1204 416 1226 q 381 1166 400 1183 q 331 1139 362 1150 q 255 1128 300 1128 q 203 1139 225 1128 q 168 1164 182 1149 q 146 1196 153 1179 q 140 1227 140 1214 l 140 1249 q 143 1268 140 1263 q 153 1268 146 1274 q 172 1236 159 1263 z "},"":{"ha":553,"x_min":22,"x_max":581,"o":"m 22 141 q 31 239 22 180 q 56 360 39 297 q 100 487 73 423 q 160 602 126 551 q 237 684 194 652 q 332 715 281 715 q 317 677 332 696 q 281 642 301 659 q 241 610 262 625 q 213 581 221 594 q 155 488 180 538 q 110 383 129 437 q 80 273 91 330 q 69 164 69 217 q 72 139 69 156 q 79 104 75 122 q 92 74 84 87 q 110 61 100 61 l 114 61 q 117 62 115 61 q 178 151 153 103 q 220 249 202 198 q 250 353 237 300 q 274 457 262 406 q 277 502 278 472 q 280 560 277 532 q 294 610 283 589 q 334 631 305 631 q 347 630 339 631 q 354 628 354 629 q 439 451 404 524 q 499 331 475 378 q 538 256 524 283 q 561 215 553 229 q 571 196 568 201 q 574 189 574 191 q 576 169 575 183 q 578 139 578 155 q 580 109 579 123 q 581 91 581 95 q 551 92 567 91 q 528 110 534 94 l 354 471 l 339 487 q 323 434 335 472 q 299 353 312 396 q 275 273 286 311 q 260 220 264 235 q 239 163 252 199 q 208 90 227 126 q 164 26 189 53 q 110 -1 140 -1 q 69 14 85 -1 q 42 53 53 30 q 26 100 31 76 q 22 141 22 125 m 171 918 q 229 851 202 869 q 279 835 256 833 q 321 854 302 837 q 355 895 340 872 q 381 938 370 917 q 399 969 392 959 q 411 972 407 979 q 415 932 415 966 q 407 887 415 909 q 380 849 399 865 q 330 822 361 833 q 254 811 298 811 q 202 821 224 811 q 166 846 180 831 q 145 879 152 861 q 138 910 138 897 l 138 932 q 142 951 138 945 q 151 951 145 956 q 171 918 157 945 z "},"":{"ha":731,"x_min":5,"x_max":693,"o":"m 566 -7 q 574 -41 566 -26 q 595 -73 583 -57 q 616 -102 606 -88 q 625 -133 625 -117 q 556 -118 582 -133 q 517 -81 530 -103 q 500 -37 505 -60 q 495 1 495 -15 q 500 40 495 18 q 520 82 506 62 q 561 115 534 102 q 628 129 587 129 l 543 330 q 526 333 543 331 q 499 335 509 335 q 484 334 494 335 q 463 333 473 334 q 443 331 452 332 q 433 330 434 330 q 352 315 401 324 q 255 296 302 307 q 173 278 208 286 q 136 267 138 270 l 56 -46 q 47 -60 54 -56 q 33 -64 41 -64 q 15 -57 20 -64 q 7 -40 9 -50 q 7 -18 5 -30 q 8 0 8 -7 l 245 1006 q 257 1033 248 1019 q 275 1054 266 1047 q 288 1029 279 1042 q 308 1006 296 1016 l 685 142 q 686 136 686 141 l 686 123 q 693 107 693 118 q 673 90 693 92 q 629 81 652 88 q 585 56 605 75 q 566 -7 566 38 m 275 913 q 272 903 274 909 q 267 889 270 897 q 263 875 264 882 q 260 865 262 868 q 240 780 251 830 l 193 567 q 172 465 180 511 q 157 385 163 419 q 151 342 151 351 q 203 345 170 342 q 276 353 237 347 q 355 366 315 359 q 427 382 395 373 q 479 402 458 392 q 499 423 499 412 q 498 432 499 426 q 496 441 498 438 l 275 913 z "},"":{"ha":553,"x_min":22,"x_max":589,"o":"m 460 -7 q 469 -40 460 -24 q 490 -71 479 -56 q 511 -102 502 -87 q 519 -132 519 -117 q 452 -117 477 -132 q 412 -80 426 -102 q 395 -36 399 -58 q 391 3 391 -14 q 395 41 391 18 q 415 83 400 64 q 456 115 430 103 q 518 130 480 129 l 354 471 l 339 487 q 323 434 335 472 q 299 353 312 396 q 275 273 286 311 q 260 220 264 235 q 239 163 252 199 q 208 90 227 126 q 164 26 189 53 q 110 -1 140 -1 q 69 14 85 -1 q 42 53 53 30 q 26 100 31 76 q 22 141 22 125 q 31 239 22 180 q 56 360 39 297 q 100 487 73 423 q 160 602 126 551 q 237 684 194 652 q 332 715 281 715 q 317 677 332 696 q 281 642 301 659 q 241 610 262 625 q 213 581 221 594 q 155 488 180 538 q 110 383 129 437 q 80 273 91 330 q 69 164 69 217 q 72 139 69 156 q 79 104 75 122 q 92 74 84 87 q 110 61 100 61 l 114 61 q 117 62 115 61 q 178 151 153 103 q 220 249 202 198 q 250 353 237 300 q 274 457 262 406 q 277 502 278 472 q 280 560 277 532 q 294 610 283 589 q 334 631 305 631 q 347 630 339 631 q 354 628 354 629 q 439 451 404 524 q 499 331 475 378 q 538 256 524 283 q 561 215 553 229 q 571 196 568 201 q 574 189 574 191 q 576 169 575 183 q 579 140 578 155 l 579 126 q 589 109 589 121 q 581 95 589 99 l 581 91 l 562 91 q 524 81 544 88 q 480 58 500 76 q 460 -7 460 39 z "},"":{"ha":590,"x_min":22,"x_max":562,"o":"m 22 339 q 26 414 22 365 q 39 520 30 463 q 64 637 49 578 q 104 744 80 696 q 161 823 127 792 q 237 854 194 854 q 230 821 237 834 q 212 795 222 807 q 189 770 201 783 q 164 738 176 757 q 121 644 140 694 q 91 541 103 593 q 74 435 79 488 q 69 330 69 381 q 73 254 69 294 q 87 177 76 214 q 119 109 98 140 q 180 62 141 79 l 198 62 q 224 62 210 62 q 250 61 237 61 l 267 61 q 321 64 283 61 q 398 75 359 66 q 467 101 437 84 q 496 149 496 118 q 487 180 496 165 q 477 213 477 194 q 506 207 491 213 q 533 191 521 201 q 553 169 545 182 q 562 141 562 156 q 543 96 562 117 q 496 60 525 76 q 431 32 467 43 q 359 13 395 20 q 292 2 323 5 q 243 -1 262 -1 q 130 31 174 -1 q 63 114 87 64 q 31 224 39 164 q 22 339 22 283 m 165 962 l 148 951 q 138 975 134 958 q 144 1002 141 991 q 148 1017 145 1006 q 153 1034 151 1028 q 173 1060 161 1043 q 196 1094 184 1077 q 219 1126 208 1111 q 237 1150 231 1141 q 252 1167 244 1158 q 269 1184 259 1176 q 290 1196 279 1192 q 309 1199 300 1200 q 316 1196 312 1198 q 323 1192 320 1194 l 165 962 z "},"":{"ha":471,"x_min":22,"x_max":437,"o":"m 22 197 q 26 248 22 210 q 37 334 30 285 q 58 435 45 382 q 90 533 72 488 q 132 606 109 578 q 187 635 156 635 q 155 545 175 597 q 118 437 136 494 q 89 323 100 381 q 82 214 77 264 q 113 122 87 163 q 194 60 138 81 q 283 83 245 60 q 349 134 321 106 q 398 186 377 163 q 437 209 419 209 q 412 118 437 157 q 348 52 387 79 q 261 12 309 26 q 164 -1 213 -1 q 98 18 126 -1 q 54 66 71 37 q 29 130 37 95 q 22 197 22 164 m 175 842 l 157 831 q 147 855 144 838 q 153 883 151 872 q 157 898 155 887 q 163 914 160 909 q 182 941 171 924 q 205 975 194 958 q 229 1006 217 991 q 247 1031 240 1021 q 261 1048 254 1039 q 279 1065 269 1057 q 299 1077 289 1073 q 319 1080 309 1081 q 326 1076 321 1078 q 332 1073 330 1074 l 175 842 z "},"":{"ha":590,"x_min":22,"x_max":562,"o":"m 22 339 q 26 414 22 365 q 39 520 30 463 q 64 637 49 578 q 104 744 80 696 q 161 823 127 792 q 237 854 194 854 q 230 821 237 834 q 212 795 222 807 q 189 770 201 783 q 164 738 176 757 q 121 644 140 694 q 91 541 103 593 q 74 435 79 488 q 69 330 69 381 q 73 254 69 294 q 87 177 76 214 q 119 109 98 140 q 180 62 141 79 l 198 62 q 224 62 210 62 q 250 61 237 61 l 267 61 q 321 64 283 61 q 398 75 359 66 q 467 101 437 84 q 496 149 496 118 q 487 180 496 165 q 477 213 477 194 q 506 207 491 213 q 533 191 521 201 q 553 169 545 182 q 562 141 562 156 q 543 96 562 117 q 496 60 525 76 q 431 32 467 43 q 359 13 395 20 q 292 2 323 5 q 243 -1 262 -1 q 130 31 174 -1 q 63 114 87 64 q 31 224 39 164 q 22 339 22 283 m 57 972 q 81 1025 66 990 q 111 1097 95 1059 q 140 1168 126 1134 q 163 1222 155 1202 q 169 1248 167 1234 q 175 1273 171 1261 q 186 1293 179 1284 q 210 1301 193 1301 l 218 1301 q 225 1299 224 1301 l 399 1086 q 440 1081 431 1095 q 449 1048 449 1067 q 439 1010 449 1031 q 407 990 430 990 q 355 1034 377 1009 q 314 1086 332 1059 q 281 1141 296 1114 q 255 1190 267 1168 q 240 1200 252 1194 q 225 1206 228 1206 q 216 1200 222 1206 q 209 1190 210 1194 l 88 955 q 85 954 88 954 l 81 954 q 57 972 65 954 z "},"":{"ha":471,"x_min":22,"x_max":437,"o":"m 22 197 q 26 248 22 210 q 37 334 30 285 q 58 435 45 382 q 90 533 72 488 q 132 606 109 578 q 187 635 156 635 q 155 545 175 597 q 118 437 136 494 q 89 323 100 381 q 82 214 77 264 q 113 122 87 163 q 194 60 138 81 q 283 83 245 60 q 349 134 321 106 q 398 186 377 163 q 437 209 419 209 q 412 118 437 157 q 348 52 387 79 q 261 12 309 26 q 164 -1 213 -1 q 98 18 126 -1 q 54 66 71 37 q 29 130 37 95 q 22 197 22 164 m 42 754 q 66 806 52 772 q 96 878 80 841 q 125 949 111 916 q 148 1004 140 983 q 154 1029 152 1016 q 160 1055 156 1043 q 171 1074 164 1066 q 195 1082 178 1082 l 203 1082 q 210 1081 209 1082 l 384 868 q 425 863 416 876 q 434 830 434 849 q 425 792 434 812 q 392 772 415 772 q 340 816 362 791 q 299 868 317 841 q 267 922 281 895 q 240 971 252 949 q 225 981 237 975 q 210 987 213 987 q 201 981 208 987 q 194 971 195 975 l 73 736 q 71 735 73 735 l 66 735 q 42 754 50 735 z "},"":{"ha":590,"x_min":22,"x_max":562,"o":"m 22 339 q 26 414 22 365 q 39 520 30 463 q 64 637 49 578 q 104 744 80 696 q 161 823 127 792 q 237 854 194 854 q 230 821 237 834 q 212 795 222 807 q 189 770 201 783 q 164 738 176 757 q 121 644 140 694 q 91 541 103 593 q 74 435 79 488 q 69 330 69 381 q 73 254 69 294 q 87 177 76 214 q 119 109 98 140 q 180 62 141 79 l 198 62 q 224 62 210 62 q 250 61 237 61 l 267 61 q 321 64 283 61 q 398 75 359 66 q 467 101 437 84 q 496 149 496 118 q 487 180 496 165 q 477 213 477 194 q 506 207 491 213 q 533 191 521 201 q 553 169 545 182 q 562 141 562 156 q 543 96 562 117 q 496 60 525 76 q 431 32 467 43 q 359 13 395 20 q 292 2 323 5 q 243 -1 262 -1 q 130 31 174 -1 q 63 114 87 64 q 31 224 39 164 q 22 339 22 283 m 210 1069 q 231 1130 210 1104 q 292 1156 251 1156 q 355 1143 330 1156 q 380 1092 380 1130 q 371 1049 380 1070 q 347 1012 362 1028 q 311 985 332 996 q 266 975 290 975 q 235 984 245 975 q 218 1007 224 993 q 212 1038 213 1021 q 210 1069 210 1054 z "},"":{"ha":471,"x_min":22,"x_max":437,"o":"m 22 197 q 26 248 22 210 q 37 334 30 285 q 58 435 45 382 q 90 533 72 488 q 132 606 109 578 q 187 635 156 635 q 155 545 175 597 q 118 437 136 494 q 89 323 100 381 q 82 214 77 264 q 113 122 87 163 q 194 60 138 81 q 283 83 245 60 q 349 134 321 106 q 398 186 377 163 q 437 209 419 209 q 412 118 437 157 q 348 52 387 79 q 261 12 309 26 q 164 -1 213 -1 q 98 18 126 -1 q 54 66 71 37 q 29 130 37 95 q 22 197 22 164 m 151 819 q 171 880 151 854 q 232 906 191 906 q 295 893 270 906 q 320 842 320 880 q 311 800 320 821 q 288 762 302 779 q 252 736 273 746 q 206 726 231 726 q 175 734 186 726 q 159 758 164 743 q 152 788 153 772 q 151 819 151 804 z "},"":{"ha":590,"x_min":22,"x_max":562,"o":"m 22 339 q 26 414 22 365 q 39 520 30 463 q 64 637 49 578 q 104 744 80 696 q 161 823 127 792 q 237 854 194 854 q 230 821 237 834 q 212 795 222 807 q 189 770 201 783 q 164 738 176 757 q 121 644 140 694 q 91 541 103 593 q 74 435 79 488 q 69 330 69 381 q 73 254 69 294 q 87 177 76 214 q 119 109 98 140 q 180 62 141 79 l 198 62 q 224 62 210 62 q 250 61 237 61 l 267 61 q 321 64 283 61 q 398 75 359 66 q 467 101 437 84 q 496 149 496 118 q 487 180 496 165 q 477 213 477 194 q 506 207 491 213 q 533 191 521 201 q 553 169 545 182 q 562 141 562 156 q 543 96 562 117 q 496 60 525 76 q 431 32 467 43 q 359 13 395 20 q 292 2 323 5 q 243 -1 262 -1 q 130 31 174 -1 q 63 114 87 64 q 31 224 39 164 q 22 339 22 283 m 80 1176 q 99 1184 85 1184 q 104 1183 104 1184 q 168 1067 136 1107 q 232 1015 199 1027 q 296 1015 264 1004 q 358 1048 328 1025 q 414 1099 388 1070 q 463 1153 441 1127 q 471 1160 468 1158 q 480 1161 475 1161 q 506 1151 498 1161 q 514 1131 514 1141 q 360 993 438 1029 q 220 970 282 956 q 119 1038 159 983 q 80 1176 80 1093 z "},"":{"ha":471,"x_min":22,"x_max":456,"o":"m 22 197 q 26 248 22 210 q 37 334 30 285 q 58 435 45 382 q 90 533 72 488 q 132 606 109 578 q 187 635 156 635 q 155 545 175 597 q 118 437 136 494 q 89 323 100 381 q 82 214 77 264 q 113 122 87 163 q 194 60 138 81 q 283 83 245 60 q 349 134 321 106 q 398 186 377 163 q 437 209 419 209 q 412 118 437 157 q 348 52 387 79 q 261 12 309 26 q 164 -1 213 -1 q 98 18 126 -1 q 54 66 71 37 q 29 130 37 95 q 22 197 22 164 m 22 1048 q 41 1057 27 1057 q 46 1055 46 1057 q 109 939 77 979 q 174 888 141 899 q 238 887 206 876 q 300 920 270 898 q 356 971 330 943 q 404 1025 382 1000 q 413 1032 410 1031 q 422 1034 416 1034 q 448 1023 439 1034 q 456 1004 456 1013 q 302 865 380 902 q 162 842 224 829 q 61 911 100 856 q 22 1048 22 966 z "},"":{"ha":677,"x_min":30,"x_max":646,"o":"m 250 39 q 276 53 250 43 q 341 78 302 62 q 425 117 380 94 q 509 172 471 140 q 574 248 548 205 q 601 347 601 292 q 578 432 601 385 q 518 525 555 479 q 433 615 481 571 q 336 693 385 659 q 241 747 288 727 q 159 768 194 768 q 166 608 159 688 q 182 449 174 529 q 197 290 190 369 q 205 129 205 210 q 201 100 205 111 q 172 79 198 90 l 157 94 l 94 787 q 81 793 91 787 q 60 806 71 799 q 39 823 49 814 q 30 841 30 833 q 43 861 30 849 q 72 885 56 873 q 103 905 88 897 q 125 914 118 914 q 150 905 145 914 q 155 882 155 895 q 156 855 155 869 q 172 834 157 841 q 273 778 220 807 q 379 714 326 749 q 481 640 433 680 q 566 554 529 601 q 624 454 602 507 q 646 336 646 400 q 613 216 646 277 q 530 108 581 156 q 418 29 480 60 q 298 -1 357 -1 q 265 9 281 -1 q 250 39 250 20 m 121 1298 q 140 1306 126 1306 q 145 1305 145 1306 q 208 1189 176 1229 q 273 1137 240 1149 q 337 1137 305 1126 q 399 1170 369 1147 q 455 1221 429 1192 q 503 1275 481 1249 q 512 1282 509 1280 q 521 1283 515 1283 q 547 1273 538 1283 q 555 1253 555 1263 q 401 1115 479 1152 q 261 1092 323 1078 q 160 1160 199 1105 q 121 1298 121 1215 z "},"":{"ha":636,"x_min":54,"x_max":605,"o":"m 54 677 l 54 848 q 66 850 57 849 q 79 850 76 850 q 98 845 92 850 q 106 833 103 840 q 112 822 109 827 q 125 817 115 817 q 180 825 146 817 q 250 845 213 834 q 322 866 286 856 q 384 880 358 876 l 395 880 q 422 873 411 880 q 434 848 434 865 q 433 841 434 846 q 433 834 433 836 q 353 826 397 831 q 262 809 308 821 q 178 777 217 798 q 117 724 140 757 l 117 635 q 117 567 117 604 q 120 496 118 530 q 125 435 122 463 q 134 393 129 407 l 480 534 q 519 528 509 532 q 528 517 529 524 q 516 503 526 510 q 495 487 506 495 q 427 456 476 479 q 323 409 378 434 q 218 361 267 384 q 151 330 170 339 q 136 321 140 328 q 132 307 133 315 q 132 290 132 298 q 133 277 133 281 q 142 199 133 237 q 152 121 152 161 q 140 87 152 103 q 99 72 127 72 l 54 677 m 605 141 q 568 131 593 138 q 509 114 543 123 q 440 94 476 104 q 372 75 404 84 q 313 59 339 66 q 274 47 286 52 q 229 31 243 38 q 204 18 214 23 q 181 12 194 14 q 140 9 168 9 q 146 56 140 42 q 180 79 152 71 l 586 191 l 605 141 m 104 1153 q 152 1159 134 1158 q 184 1159 170 1160 q 215 1158 198 1158 q 264 1160 232 1158 q 284 1162 267 1161 q 321 1163 301 1162 q 363 1164 342 1164 l 425 1164 q 465 1163 444 1164 q 506 1162 487 1162 q 532 1160 525 1161 q 543 1147 537 1158 q 548 1130 549 1135 q 535 1111 547 1123 q 517 1097 524 1099 q 456 1102 492 1099 q 380 1108 419 1105 q 305 1113 342 1111 q 244 1114 269 1115 q 190 1110 218 1111 q 134 1105 161 1109 q 125 1105 133 1105 q 109 1103 118 1104 q 93 1102 100 1103 q 84 1101 85 1101 q 86 1131 84 1114 q 104 1153 88 1147 z "}}}
